ply
format ascii 1.0
comment Created by Blender 2.70 (sub 0) - www.blender.org, source file: 'combodiamond.blend'
element vertex 480
property float x
property float y
property float z
property float nx
property float ny
property float nz
element face 160
property list uchar uint vertex_indices
end_header
0.606966 1.682873 0.024557 0.335870 0.560085 0.757295
0.360811 0.388904 1.090732 0.335870 0.560085 0.757295
0.770123 1.615293 0.002176 0.335870 0.560085 0.757295
1.207699 1.322220 0.022084 0.393455 0.514979 0.761570
1.071304 1.434426 0.016676 0.393455 0.514979 0.761570
0.360811 0.388904 1.090732 0.393455 0.514979 0.761570
0.924584 1.532712 0.007636 0.327805 0.559367 0.761350
0.360811 0.388904 1.090732 0.327805 0.559367 0.761350
1.071304 1.434426 0.016676 0.327805 0.559367 0.761350
0.770123 1.615293 0.002176 0.284065 0.581712 0.762180
0.360811 0.388904 1.090732 0.284065 0.581712 0.762180
0.924584 1.532712 0.007636 0.284065 0.581712 0.762180
1.544948 0.912347 0.019096 0.515757 0.392419 0.761579
1.446662 1.059067 0.010057 0.515757 0.392419 0.761579
0.360811 0.388904 1.090732 0.515757 0.392419 0.761579
1.446662 1.059067 0.010057 0.488293 0.431767 0.758385
1.334457 1.195462 0.004649 0.488293 0.431767 0.758385
0.360811 0.388904 1.090732 0.488293 0.431767 0.758385
1.207699 1.322220 0.022084 0.510013 0.405686 0.758488
0.360811 0.388904 1.090732 0.510013 0.405686 0.758488
1.334457 1.195462 0.004649 0.510013 0.405686 0.758488
1.627531 0.757883 0.024556 0.552726 0.322670 0.768360
1.544948 0.912347 0.019096 0.552726 0.322670 0.768360
0.360811 0.388904 1.090732 0.552726 0.322670 0.768360
1.695109 -0.617831 0.024556 0.617292 -0.162108 0.769852
1.745937 -0.450215 0.019096 0.617292 -0.162108 0.769852
0.532900 0.019859 1.090732 0.617292 -0.162108 0.769852
1.797291 0.078082 0.022083 0.645730 -0.073915 0.759980
0.532900 0.019859 1.090732 0.645730 -0.073915 0.759980
1.797291 -0.101183 0.004648 0.645730 -0.073915 0.759980
1.780185 -0.276969 0.010057 0.648885 -0.039764 0.759847
1.797291 -0.101183 0.004648 0.648885 -0.039764 0.759847
0.532900 0.019859 1.090732 0.648885 -0.039764 0.759847
1.745937 -0.450215 0.019096 0.640474 -0.086799 0.763059
1.780185 -0.276969 0.010057 0.640474 -0.086799 0.763059
0.532900 0.019859 1.090732 0.640474 -0.086799 0.763059
1.695109 0.594730 0.002176 0.610958 0.210129 0.763266
0.532900 0.019859 1.090732 0.610958 0.210129 0.763266
1.745937 0.427114 0.007636 0.610958 0.210129 0.763266
1.745937 0.427114 0.007636 0.625946 0.163528 0.762529
0.532900 0.019859 1.090732 0.625946 0.163528 0.762529
1.780185 0.253868 0.016675 0.625946 0.163528 0.762529
1.797291 0.078082 0.022083 0.640822 0.085828 0.762876
1.780185 0.253868 0.016675 0.640822 0.085828 0.762876
0.532900 0.019859 1.090732 0.640822 0.085828 0.762876
1.627531 0.757883 0.024556 0.632311 0.157862 0.758461
0.532900 0.019859 1.090732 0.632311 0.157862 0.758461
1.695109 0.594730 0.002176 0.632311 0.157862 0.758461
0.770121 -1.638394 0.024557 0.156398 -0.629598 0.761017
0.024583 -0.534869 1.090733 0.156398 -0.629598 0.761017
0.606969 -1.705974 0.002176 0.156398 -0.629598 0.761017
0.090322 -1.808154 0.022085 0.085621 -0.637912 0.765334
0.266108 -1.791049 0.016676 0.085621 -0.637912 0.765334
0.024583 -0.534869 1.090733 0.085621 -0.637912 0.765334
0.439354 -1.756800 0.007637 0.163056 -0.622865 0.765148
0.024583 -0.534869 1.090733 0.163056 -0.622865 0.765148
0.266108 -1.791049 0.016676 0.163056 -0.622865 0.765148
0.606969 -1.705974 0.002176 0.209280 -0.607885 0.765949
0.024583 -0.534869 1.090733 0.209280 -0.607885 0.765949
0.439354 -1.756800 0.007637 0.209280 -0.607885 0.765949
-0.437975 -1.756800 0.019098 -0.086257 -0.638243 0.764988
-0.264729 -1.791049 0.010058 -0.086257 -0.638243 0.764988
0.024583 -0.534869 1.090733 -0.086257 -0.638243 0.764988
-0.264729 -1.791049 0.010058 -0.039460 -0.646418 0.761962
-0.088943 -1.808154 0.004650 -0.039460 -0.646418 0.761962
0.024583 -0.534869 1.090733 -0.039460 -0.646418 0.761962
0.090322 -1.808154 0.022085 -0.074108 -0.643345 0.761981
0.024583 -0.534869 1.090733 -0.074108 -0.643345 0.761981
-0.088943 -1.808154 0.004650 -0.074108 -0.643345 0.761981
-0.605590 -1.705974 0.024558 -0.161490 -0.615441 0.771462
-0.437975 -1.756800 0.019098 -0.161490 -0.615441 0.771462
0.024583 -0.534869 1.090733 -0.161490 -0.615441 0.771462
0.770121 -1.638394 0.024557 0.321167 -0.549732 0.771133
0.924583 -1.555813 0.019097 0.321167 -0.549732 0.771133
0.393628 -0.362781 1.090732 0.321167 -0.549732 0.771133
1.334457 -1.218562 0.022084 0.403019 -0.507749 0.761424
0.393628 -0.362781 1.090732 0.403019 -0.507749 0.761424
1.207699 -1.345321 0.004649 0.403019 -0.507749 0.761424
1.071304 -1.457527 0.010057 0.429650 -0.485576 0.761326
1.207699 -1.345321 0.004649 0.429650 -0.485576 0.761326
0.393628 -0.362781 1.090732 0.429650 -0.485576 0.761326
0.924583 -1.555813 0.019097 0.390636 -0.512828 0.764468
1.071304 -1.457527 0.010057 0.390636 -0.512828 0.764468
0.393628 -0.362781 1.090732 0.390636 -0.512828 0.764468
1.627531 -0.780984 0.002176 0.578985 -0.282512 0.764829
0.393628 -0.362781 1.090732 0.578985 -0.282512 0.764829
1.544949 -0.935448 0.007636 0.578985 -0.282512 0.764829
1.544949 -0.935448 0.007636 0.556735 -0.325872 0.764103
0.393628 -0.362781 1.090732 0.556735 -0.325872 0.764103
1.446662 -1.082168 0.016675 0.556735 -0.325872 0.764103
1.334457 -1.218562 0.022084 0.512420 -0.391236 0.764435
1.446662 -1.082168 0.016675 0.512420 -0.391236 0.764435
0.393628 -0.362781 1.090732 0.512420 -0.391236 0.764435
1.695109 -0.617831 0.024556 0.556959 -0.334947 0.760005
0.393628 -0.362781 1.090732 0.556959 -0.334947 0.760005
1.627531 -0.780984 0.002176 0.556959 -0.334947 0.760005
-1.693731 0.594730 0.024558 -0.559017 0.335555 0.758224
-0.390868 0.356087 1.090733 -0.559017 0.335555 0.758224
-1.626152 0.757883 0.002178 -0.559017 0.335555 0.758224
-1.333078 1.195462 0.022085 -0.514414 0.392964 0.762206
-1.445284 1.059067 0.016677 -0.514414 0.392964 0.762206
-0.390868 0.356087 1.090733 -0.514414 0.392964 0.762206
-1.543570 0.912347 0.007638 -0.558435 0.327120 0.762327
-0.390868 0.356087 1.090733 -0.558435 0.327120 0.762327
-1.445284 1.059067 0.016677 -0.558435 0.327120 0.762327
-1.626152 0.757883 0.002178 -0.580507 0.283379 0.763353
-0.390868 0.356087 1.090733 -0.580507 0.283379 0.763353
-1.543570 0.912347 0.007638 -0.580507 0.283379 0.763353
-0.923205 1.532712 0.019098 -0.392510 0.515906 0.761430
-1.069926 1.434426 0.010058 -0.392510 0.515906 0.761430
-0.390868 0.356087 1.090733 -0.392510 0.515906 0.761430
-1.069926 1.434426 0.010058 -0.431720 0.488230 0.758452
-1.206320 1.322220 0.004650 -0.431720 0.488230 0.758452
-0.390868 0.356087 1.090733 -0.431720 0.488230 0.758452
-1.333078 1.195462 0.022085 -0.405765 0.510080 0.758401
-0.390868 0.356087 1.090733 -0.405765 0.510080 0.758401
-1.206320 1.322220 0.004650 -0.405765 0.510080 0.758401
-0.768744 1.615293 0.024558 -0.322933 0.553252 0.767872
-0.923205 1.532712 0.019098 -0.322933 0.553252 0.767872
-0.390868 0.356087 1.090733 -0.322933 0.553252 0.767872
0.606966 1.682873 0.024557 0.162990 0.619939 0.767535
0.439354 1.733700 0.019097 0.162990 0.619939 0.767535
-0.021823 0.528175 1.090733 0.162990 0.619939 0.767535
-0.088946 1.785053 0.022085 0.073703 0.648275 0.757831
-0.021823 0.528175 1.090733 0.073703 0.648275 0.757831
0.090324 1.785053 0.004649 0.073703 0.648275 0.757831
0.266108 1.767948 0.010058 0.040056 0.651253 0.757803
0.090324 1.785053 0.004649 0.040056 0.651253 0.757803
-0.021823 0.528175 1.090733 0.040056 0.651253 0.757803
0.439354 1.733700 0.019097 0.087401 0.642957 0.760899
0.266108 1.767948 0.010058 0.087401 0.642957 0.760899
-0.021823 0.528175 1.090733 0.087401 0.642957 0.760899
-0.605588 1.682873 0.002177 -0.210461 0.612155 0.762215
-0.021823 0.528175 1.090733 -0.210461 0.612155 0.762215
-0.437975 1.733700 0.007637 -0.210461 0.612155 0.762215
-0.437975 1.733700 0.007637 -0.163752 0.627425 0.761264
-0.021823 0.528175 1.090733 -0.163752 0.627425 0.761264
-0.264729 1.767948 0.016676 -0.163752 0.627425 0.761264
-0.088946 1.785053 0.022085 -0.085958 0.642689 0.761290
-0.264729 1.767948 0.016676 -0.085958 0.642689 0.761290
-0.021823 0.528175 1.090733 -0.085958 0.642689 0.761290
-0.768744 1.615293 0.024558 -0.158591 0.633645 0.757194
-0.021823 0.528175 1.090733 -0.158591 0.633645 0.757194
-0.605588 1.682873 0.002177 -0.158591 0.633645 0.757194
-1.626152 -0.780984 0.024558 -0.630932 -0.157114 0.759763
-0.530140 -0.026553 1.090734 -0.630932 -0.157114 0.759763
-1.693731 -0.617831 0.002178 -0.630932 -0.157114 0.759763
-1.795912 -0.101183 0.022086 -0.639768 -0.085752 0.763769
-1.778807 -0.276969 0.016677 -0.639768 -0.085752 0.763769
-0.530140 -0.026553 1.090734 -0.639768 -0.085752 0.763769
-1.744558 -0.450215 0.007638 -0.624334 -0.163281 0.763902
-0.530140 -0.026553 1.090734 -0.624334 -0.163281 0.763902
-1.778807 -0.276969 0.016677 -0.624334 -0.163281 0.763902
-1.693731 -0.617831 0.002178 -0.609074 -0.209611 0.764913
-0.530140 -0.026553 1.090734 -0.609074 -0.209611 0.764913
-1.744558 -0.450215 0.007638 -0.609074 -0.209611 0.764913
-1.744558 0.427114 0.019098 -0.640714 0.086856 0.762851
-1.778807 0.253868 0.010059 -0.640714 0.086856 0.762851
-0.530140 -0.026553 1.090734 -0.640714 0.086856 0.762851
-1.778807 0.253868 0.010059 -0.648774 0.039751 0.759942
-1.795912 0.078082 0.004651 -0.648774 0.039751 0.759942
-0.530140 -0.026553 1.090734 -0.648774 0.039751 0.759942
-1.795912 -0.101183 0.022086 -0.645878 0.073901 0.759856
-0.530140 -0.026553 1.090734 -0.645878 0.073901 0.759856
-1.795912 0.078082 0.004651 -0.645878 0.073901 0.759856
-1.693731 0.594730 0.024558 -0.618077 0.162371 0.769167
-1.744558 0.427114 0.019098 -0.618077 0.162371 0.769167
-0.530140 -0.026553 1.090734 -0.618077 0.162371 0.769167
-1.626152 -0.780984 0.024558 -0.550254 -0.321427 0.770653
-1.543570 -0.935448 0.019098 -0.550254 -0.321427 0.770653
-0.358051 -0.395598 1.090733 -0.550254 -0.321427 0.770653
-1.206320 -1.345321 0.022085 -0.507819 -0.403099 0.761335
-0.358051 -0.395598 1.090733 -0.507819 -0.403099 0.761335
-1.333078 -1.218562 0.004650 -0.507819 -0.403099 0.761335
-1.445284 -1.082168 0.010059 -0.485513 -0.429602 0.761393
-1.333078 -1.218562 0.004650 -0.485513 -0.429602 0.761393
-0.358051 -0.395598 1.090733 -0.485513 -0.429602 0.761393
-1.543570 -0.935448 0.019098 -0.512976 -0.390726 0.764323
-1.445284 -1.082168 0.010059 -0.512976 -0.390726 0.764323
-0.358051 -0.395598 1.090733 -0.512976 -0.390726 0.764323
-0.768743 -1.638394 0.002177 -0.281830 -0.577788 0.765985
-0.358051 -0.395598 1.090733 -0.281830 -0.577788 0.765985
-0.923205 -1.555813 0.007637 -0.281830 -0.577788 0.765985
-0.923205 -1.555813 0.007637 -0.325191 -0.555809 0.765067
-0.358051 -0.395598 1.090733 -0.325191 -0.555809 0.765067
-1.069926 -1.457527 0.016677 -0.325191 -0.555809 0.765067
-1.206320 -1.345321 0.022085 -0.390747 -0.511857 0.765061
-1.069926 -1.457527 0.016677 -0.390747 -0.511857 0.765061
-0.358051 -0.395598 1.090733 -0.390747 -0.511857 0.765061
-0.605590 -1.705974 0.024558 -0.334640 -0.555897 0.760917
-0.358051 -0.395598 1.090733 -0.334640 -0.555897 0.760917
-0.768743 -1.638394 0.002177 -0.334640 -0.555897 0.760917
0.001380 -0.003348 1.445728 0.612930 0.141830 0.777304
1.627531 0.757883 0.024556 0.612930 0.141830 0.777304
0.360811 0.388904 1.090732 0.612930 0.141830 0.777304
0.001380 -0.003348 1.445728 0.534531 -0.328046 0.778885
1.695109 -0.617831 0.024556 0.534531 -0.328046 0.778885
0.532900 0.019859 1.090732 0.534531 -0.328046 0.778885
0.770121 -1.638394 0.024557 0.368366 -0.505172 0.780454
0.001380 -0.003348 1.445728 0.368366 -0.505172 0.780454
0.024583 -0.534869 1.090733 0.368366 -0.505172 0.780454
0.001380 -0.003348 1.445728 -0.325075 -0.535009 0.779802
-0.605590 -1.705974 0.024558 -0.325075 -0.535009 0.779802
0.024583 -0.534869 1.090733 -0.325075 -0.535009 0.779802
0.001380 -0.003348 1.445728 -0.610478 -0.145250 0.778601
-1.626152 -0.780984 0.024558 -0.610478 -0.145250 0.778601
-0.358051 -0.395598 1.090733 -0.610478 -0.145250 0.778601
0.001380 -0.003348 1.445728 -0.533523 0.334142 0.776983
-1.693731 0.594730 0.024558 -0.533523 0.334142 0.776983
-0.530140 -0.026553 1.090734 -0.533523 0.334142 0.776983
-0.768744 1.615293 0.024558 -0.378012 0.502722 0.777417
0.001380 -0.003348 1.445728 -0.378012 0.502722 0.777417
-0.021823 0.528175 1.090733 -0.378012 0.502722 0.777417
0.606966 1.682873 0.024557 0.086733 0.623629 0.776894
0.001380 -0.003348 1.445728 0.086733 0.623629 0.776894
0.360811 0.388904 1.090732 0.086733 0.623629 0.776894
-0.605588 1.682873 0.002177 -0.097949 0.616955 -0.780879
0.000001 -0.019755 -1.418994 -0.097949 0.616955 -0.780879
-0.359432 0.372497 -1.063999 -0.097949 0.616955 -0.780879
-1.206320 1.322220 0.004650 -0.390911 0.512045 -0.764852
-1.069926 1.434426 0.010058 -0.390911 0.512045 -0.764852
-0.359432 0.372497 -1.063999 -0.390911 0.512045 -0.764852
-0.923205 1.532712 0.019098 -0.325315 0.555975 -0.764894
-0.359432 0.372497 -1.063999 -0.325315 0.555975 -0.764894
-1.069926 1.434426 0.010058 -0.325315 0.555975 -0.764894
-0.768744 1.615293 0.024558 -0.281920 0.577941 -0.765836
-0.359432 0.372497 -1.063999 -0.281920 0.577941 -0.765836
-0.923205 1.532712 0.019098 -0.281920 0.577941 -0.765836
-1.543570 0.912347 0.007638 -0.513253 0.390893 -0.764051
-1.445284 1.059067 0.016677 -0.513253 0.390893 -0.764051
-0.359432 0.372497 -1.063999 -0.513253 0.390893 -0.764051
-1.445284 1.059067 0.016677 -0.485755 0.429789 -0.761133
-1.333078 1.195462 0.022085 -0.485755 0.429789 -0.761133
-0.359432 0.372497 -1.063999 -0.485755 0.429789 -0.761133
-1.206320 1.322220 0.004650 -0.508028 0.403347 -0.761064
-0.359432 0.372497 -1.063999 -0.508028 0.403347 -0.761064
-1.333078 1.195462 0.022085 -0.508028 0.403347 -0.761064
-0.605588 1.682873 0.002177 -0.334692 0.556101 -0.760745
-0.359432 0.372497 -1.063999 -0.334692 0.556101 -0.760745
-0.768744 1.615293 0.024558 -0.334692 0.556101 -0.760745
0.393628 -0.362781 1.090732 0.148743 -0.607959 0.779911
0.001380 -0.003348 1.445728 0.148743 -0.607959 0.779911
0.770121 -1.638394 0.024557 0.148743 -0.607959 0.779911
-1.778807 -0.276969 0.016677 -0.649180 -0.039800 -0.759593
-1.795912 -0.101183 0.022086 -0.649180 -0.039800 -0.759593
-0.531520 0.003452 -1.063999 -0.649180 -0.039800 -0.759593
-1.744558 -0.450215 0.007638 -0.641106 -0.086953 -0.762510
-1.778807 -0.276969 0.016677 -0.641106 -0.086953 -0.762510
-0.531520 0.003452 -1.063999 -0.641106 -0.086953 -0.762510
-1.693731 0.594730 0.024558 -0.609443 0.209714 -0.764591
-0.531520 0.003452 -1.063999 -0.609443 0.209714 -0.764591
-1.744558 0.427114 0.019098 -0.609443 0.209714 -0.764591
-1.744558 0.427114 0.019098 -0.624726 0.163341 -0.763568
-0.531520 0.003452 -1.063999 -0.624726 0.163341 -0.763568
-1.778807 0.253868 0.010059 -0.624726 0.163341 -0.763568
0.000001 -0.019755 -1.418994 -0.611132 0.144338 -0.778257
-1.626152 0.757883 0.002178 -0.611132 0.144338 -0.778257
-0.359432 0.372497 -1.063999 -0.611132 0.144338 -0.778257
-0.768743 -1.638394 0.002177 -0.378659 -0.502556 -0.777210
0.000001 -0.019755 -1.418994 -0.378659 -0.502556 -0.777210
-0.023203 -0.551276 -1.063999 -0.378659 -0.502556 -0.777210
-0.088943 -1.808154 0.004650 -0.085965 -0.642743 -0.761243
-0.264729 -1.791049 0.010058 -0.085965 -0.642743 -0.761243
-0.023203 -0.551276 -1.063999 -0.085965 -0.642743 -0.761243
-0.437975 -1.756800 0.019098 -0.163771 -0.627527 -0.761176
-0.023203 -0.551276 -1.063999 -0.163771 -0.627527 -0.761176
-0.264729 -1.791049 0.010058 -0.163771 -0.627527 -0.761176
-0.605590 -1.705974 0.024558 -0.210490 -0.612286 -0.762102
-0.023203 -0.551276 -1.063999 -0.210490 -0.612286 -0.762102
-0.437975 -1.756800 0.019098 -0.210490 -0.612286 -0.762102
0.439354 -1.756800 0.007637 0.087389 -0.642903 -0.760946
0.266108 -1.791049 0.016676 0.087389 -0.642903 -0.760946
-0.023203 -0.551276 -1.063999 0.087389 -0.642903 -0.760946
0.266108 -1.791049 0.016676 0.040054 -0.651228 -0.757825
0.090322 -1.808154 0.022085 0.040054 -0.651228 -0.757825
-0.023203 -0.551276 -1.063999 0.040054 -0.651228 -0.757825
-0.088943 -1.808154 0.004650 0.073709 -0.648228 -0.757871
-0.023203 -0.551276 -1.063999 0.073709 -0.648228 -0.757871
0.090322 -1.808154 0.022085 0.073709 -0.648228 -0.757871
-0.768743 -1.638394 0.002177 -0.158644 -0.633730 -0.757112
-0.023203 -0.551276 -1.063999 -0.158644 -0.633730 -0.757112
-0.605590 -1.705974 0.024558 -0.158644 -0.633730 -0.757112
-1.693731 -0.617831 0.002178 -0.559353 -0.335654 -0.757932
-0.392248 -0.379188 -1.063999 -0.559353 -0.335654 -0.757932
-1.626152 -0.780984 0.024558 -0.559353 -0.335654 -0.757932
-1.333078 -1.218562 0.004650 -0.405963 -0.510248 -0.758183
-0.392248 -0.379188 -1.063999 -0.405963 -0.510248 -0.758183
-1.206320 -1.345321 0.022085 -0.405963 -0.510248 -0.758183
-1.069926 -1.457527 0.016677 -0.431887 -0.488444 -0.758219
-1.206320 -1.345321 0.022085 -0.431887 -0.488444 -0.758219
-0.392248 -0.379188 -1.063999 -0.431887 -0.488444 -0.758219
-0.923205 -1.555813 0.007637 -0.392639 -0.516118 -0.761221
-1.069926 -1.457527 0.016677 -0.392639 -0.516118 -0.761221
-0.392248 -0.379188 -1.063999 -0.392639 -0.516118 -0.761221
-1.626152 -0.780984 0.024558 -0.580826 -0.283559 -0.763043
-0.392248 -0.379188 -1.063999 -0.580826 -0.283559 -0.763043
-1.543570 -0.935448 0.019098 -0.580826 -0.283559 -0.763043
-1.543570 -0.935448 0.019098 -0.558722 -0.327330 -0.762027
-0.392248 -0.379188 -1.063999 -0.558722 -0.327330 -0.762027
-1.445284 -1.082168 0.010059 -0.558722 -0.327330 -0.762027
-1.333078 -1.218562 0.004650 -0.514661 -0.393180 -0.761928
-1.445284 -1.082168 0.010059 -0.514661 -0.393180 -0.761928
-0.392248 -0.379188 -1.063999 -0.514661 -0.393180 -0.761928
0.000001 -0.019755 -1.418994 -0.533363 -0.335106 -0.776678
-1.693731 -0.617831 0.002178 -0.533363 -0.335106 -0.776678
-0.531520 0.003452 -1.063999 -0.533363 -0.335106 -0.776678
0.000001 -0.019755 -1.418994 0.534684 0.327099 -0.779179
1.695109 0.594730 0.002176 0.534684 0.327099 -0.779179
0.531520 -0.042960 -1.063999 0.534684 0.327099 -0.779179
1.334457 1.195462 0.004649 0.512175 0.391021 -0.764709
1.446662 1.059067 0.010057 0.512175 0.391021 -0.764709
0.392248 0.339680 -1.063999 0.512175 0.391021 -0.764709
1.544948 0.912347 0.019096 0.556451 0.325663 -0.764399
0.392248 0.339680 -1.063999 0.556451 0.325663 -0.764399
1.446662 1.059067 0.010057 0.556451 0.325663 -0.764399
1.627531 0.757883 0.024556 0.578668 0.282333 -0.765135
0.392248 0.339680 -1.063999 0.578668 0.282333 -0.765135
1.544948 0.912347 0.019096 0.578668 0.282333 -0.765135
0.924584 1.532712 0.007636 0.390508 0.512618 -0.764674
1.071304 1.434426 0.016676 0.390508 0.512618 -0.764674
0.392248 0.339680 -1.063999 0.390508 0.512618 -0.764674
1.071304 1.434426 0.016676 0.429484 0.485363 -0.761555
1.207699 1.322220 0.022084 0.429484 0.485363 -0.761555
0.392248 0.339680 -1.063999 0.429484 0.485363 -0.761555
1.334457 1.195462 0.004649 0.402823 0.507583 -0.761639
0.392248 0.339680 -1.063999 0.402823 0.507583 -0.761639
1.207699 1.322220 0.022084 0.402823 0.507583 -0.761639
1.695109 0.594730 0.002176 0.556624 0.334848 -0.760294
0.392248 0.339680 -1.063999 0.556624 0.334848 -0.760294
1.627531 0.757883 0.024556 0.556624 0.334848 -0.760294
0.770123 1.615293 0.002176 0.156345 0.629515 -0.761096
0.023203 0.511768 -1.063999 0.156345 0.629515 -0.761096
0.606966 1.682873 0.024557 0.156345 0.629515 -0.761096
0.090324 1.785053 0.004649 -0.074103 0.643392 -0.761942
0.023203 0.511768 -1.063999 -0.074103 0.643392 -0.761942
-0.088946 1.785053 0.022085 -0.074103 0.643392 -0.761942
-0.264729 1.767948 0.016676 -0.039461 0.646443 -0.761941
-0.088946 1.785053 0.022085 -0.039461 0.646443 -0.761941
0.023203 0.511768 -1.063999 -0.039461 0.646443 -0.761941
-0.437975 1.733700 0.007637 -0.086269 0.638296 -0.764942
-0.264729 1.767948 0.016676 -0.086269 0.638296 -0.764942
0.023203 0.511768 -1.063999 -0.086269 0.638296 -0.764942
0.606966 1.682873 0.024557 0.209252 0.607756 -0.766059
0.023203 0.511768 -1.063999 0.209252 0.607756 -0.766059
0.439354 1.733700 0.019097 0.209252 0.607756 -0.766059
0.439354 1.733700 0.019097 0.163039 0.622763 -0.765235
0.023203 0.511768 -1.063999 0.163039 0.622763 -0.765235
0.266108 1.767948 0.010058 0.163039 0.622763 -0.765235
0.090324 1.785053 0.004649 0.085615 0.637859 -0.765380
0.266108 1.767948 0.010058 0.085615 0.637859 -0.765380
0.023203 0.511768 -1.063999 0.085615 0.637859 -0.765380
0.770123 1.615293 0.002176 0.367732 0.505330 -0.780650
0.000001 -0.019755 -1.418994 0.367732 0.505330 -0.780650
0.023203 0.511768 -1.063999 0.367732 0.505330 -0.780650
0.000001 -0.019755 -1.418994 0.612288 -0.142728 -0.777645
1.627531 -0.780984 0.002176 0.612288 -0.142728 -0.777645
0.359431 -0.412005 -1.063999 0.612288 -0.142728 -0.777645
1.797291 -0.101183 0.004648 0.640415 -0.085799 -0.763221
1.780185 -0.276969 0.010057 0.640415 -0.085799 -0.763221
0.531520 -0.042960 -1.063999 0.640415 -0.085799 -0.763221
1.745937 -0.450215 0.019096 0.625553 -0.163467 -0.762864
0.531520 -0.042960 -1.063999 0.625553 -0.163467 -0.762864
1.780185 -0.276969 0.010057 0.625553 -0.163467 -0.762864
1.695109 -0.617831 0.024556 0.610587 -0.210027 -0.763591
0.531520 -0.042960 -1.063999 0.610587 -0.210027 -0.763591
1.745937 -0.450215 0.019096 0.610587 -0.210027 -0.763591
1.745937 0.427114 0.007636 0.640083 0.086702 -0.763398
1.780185 0.253868 0.016675 0.640083 0.086702 -0.763398
0.531520 -0.042960 -1.063999 0.640083 0.086702 -0.763398
1.780185 0.253868 0.016675 0.648480 0.039715 -0.760195
1.797291 0.078082 0.022083 0.648480 0.039715 -0.760195
0.531520 -0.042960 -1.063999 0.648480 0.039715 -0.760195
1.797291 -0.101183 0.004648 0.645319 0.073948 -0.760326
0.531520 -0.042960 -1.063999 0.645319 0.073948 -0.760326
1.797291 0.078082 0.022083 0.645319 0.073948 -0.760326
1.627531 -0.780984 0.002176 0.631961 -0.157674 -0.758791
0.531520 -0.042960 -1.063999 0.631961 -0.157674 -0.758791
1.695109 -0.617831 0.024556 0.631961 -0.157674 -0.758791
0.606969 -1.705974 0.002176 0.335817 -0.559881 -0.757470
0.359431 -0.412005 -1.063999 0.335817 -0.559881 -0.757470
0.770121 -1.638394 0.024557 0.335817 -0.559881 -0.757470
1.207699 -1.345321 0.004649 0.509803 -0.405437 -0.758763
0.359431 -0.412005 -1.063999 0.509803 -0.405437 -0.758763
1.334457 -1.218562 0.022084 0.509803 -0.405437 -0.758763
1.446662 -1.082168 0.016675 0.488050 -0.431579 -0.758648
1.334457 -1.218562 0.022084 0.488050 -0.431579 -0.758648
0.359431 -0.412005 -1.063999 0.488050 -0.431579 -0.758648
1.544949 -0.935448 0.007636 0.515478 -0.392250 -0.761854
1.446662 -1.082168 0.016675 0.515478 -0.392250 -0.761854
0.359431 -0.412005 -1.063999 0.515478 -0.392250 -0.761854
0.770121 -1.638394 0.024557 0.283974 -0.581557 -0.762332
0.359431 -0.412005 -1.063999 0.283974 -0.581557 -0.762332
0.924583 -1.555813 0.019097 0.283974 -0.581557 -0.762332
0.924583 -1.555813 0.019097 0.327680 -0.559199 -0.761526
0.359431 -0.412005 -1.063999 0.327680 -0.559199 -0.761526
1.071304 -1.457527 0.010057 0.327680 -0.559199 -0.761526
1.207699 -1.345321 0.004649 0.393290 -0.514790 -0.761783
1.071304 -1.457527 0.010057 0.393290 -0.514790 -0.761783
0.359431 -0.412005 -1.063999 0.393290 -0.514790 -0.761783
0.000001 -0.019755 -1.418994 0.336437 -0.533138 -0.776257
0.606969 -1.705974 0.002176 0.336437 -0.533138 -0.776257
-0.023203 -0.551276 -1.063999 0.336437 -0.533138 -0.776257
-1.626152 0.757883 0.002178 -0.550564 0.321585 -0.770365
-1.543570 0.912347 0.007638 -0.550564 0.321585 -0.770365
-0.359432 0.372497 -1.063999 -0.550564 0.321585 -0.770365
-1.693731 -0.617831 0.002178 -0.618449 -0.162492 -0.768842
-1.744558 -0.450215 0.007638 -0.618449 -0.162492 -0.768842
-0.531520 0.003452 -1.063999 -0.618449 -0.162492 -0.768842
-0.768743 -1.638394 0.002177 -0.323025 -0.553434 -0.767701
-0.923205 -1.555813 0.007637 -0.323025 -0.553434 -0.767701
-0.392248 -0.379188 -1.063999 -0.323025 -0.553434 -0.767701
0.606969 -1.705974 0.002176 0.162950 -0.619843 -0.767621
0.439354 -1.756800 0.007637 0.162950 -0.619843 -0.767621
-0.023203 -0.551276 -1.063999 0.162950 -0.619843 -0.767621
1.627531 -0.780984 0.002176 0.552414 -0.322512 -0.768651
1.544949 -0.935448 0.007636 0.552414 -0.322512 -0.768651
0.359431 -0.412005 -1.063999 0.552414 -0.322512 -0.768651
1.695109 0.594730 0.002176 0.616921 0.161987 -0.770174
1.745937 0.427114 0.007636 0.616921 0.161987 -0.770174
0.531520 -0.042960 -1.063999 0.616921 0.161987 -0.770174
0.770123 1.615293 0.002176 0.321075 0.549551 -0.771300
0.924584 1.532712 0.007636 0.321075 0.549551 -0.771300
0.392248 0.339680 -1.063999 0.321075 0.549551 -0.771300
-0.605588 1.682873 0.002177 -0.161530 0.615536 -0.771378
-0.437975 1.733700 0.007637 -0.161530 0.615536 -0.771378
0.023203 0.511768 -1.063999 -0.161530 0.615536 -0.771378
0.393628 -0.362781 1.090732 0.620027 -0.092819 0.779071
1.695109 -0.617831 0.024556 0.620027 -0.092819 0.779071
0.001380 -0.003348 1.445728 0.620027 -0.092819 0.779071
0.532900 0.019859 1.090732 0.502856 0.377491 0.777583
1.627531 0.757883 0.024556 0.502856 0.377491 0.777583
0.001380 -0.003348 1.445728 0.502856 0.377491 0.777583
-1.795912 0.078082 0.004651 -0.646289 -0.073869 -0.759509
-0.531520 0.003452 -1.063999 -0.646289 -0.073869 -0.759509
-1.795912 -0.101183 0.022086 -0.646289 -0.073869 -0.759509
-1.795912 0.078082 0.004651 -0.640175 0.085782 -0.763425
-1.778807 0.253868 0.010059 -0.640175 0.085782 -0.763425
-0.531520 0.003452 -1.063999 -0.640175 0.085782 -0.763425
-1.626152 0.757883 0.002178 -0.631280 0.157302 -0.759435
-0.531520 0.003452 -1.063999 -0.631280 0.157302 -0.759435
-1.693731 0.594730 0.024558 -0.631280 0.157302 -0.759435
-0.358051 -0.395598 1.090733 -0.098101 -0.616865 0.780931
-0.605590 -1.705974 0.024558 -0.098101 -0.616865 0.780931
0.001380 -0.003348 1.445728 -0.098101 -0.616865 0.780931
-0.530140 -0.026553 1.090734 -0.505011 -0.369007 0.780255
-1.626152 -0.780984 0.024558 -0.505011 -0.369007 0.780255
0.001380 -0.003348 1.445728 -0.505011 -0.369007 0.780255
-0.390868 0.356087 1.090733 -0.620460 0.092089 0.778813
-1.693731 0.594730 0.024558 -0.620460 0.092089 0.778813
0.001380 -0.003348 1.445728 -0.620460 0.092089 0.778813
-0.390868 0.356087 1.090733 -0.138220 0.615499 0.775923
0.001380 -0.003348 1.445728 -0.138220 0.615499 0.775923
-0.768744 1.615293 0.024558 -0.138220 0.615499 0.775923
-0.021823 0.528175 1.090733 0.337043 0.533034 0.776065
0.001380 -0.003348 1.445728 0.337043 0.533034 0.776065
0.606966 1.682873 0.024557 0.337043 0.533034 0.776065
0.023203 0.511768 -1.063999 -0.325667 0.534912 -0.779622
0.000001 -0.019755 -1.418994 -0.325667 0.534912 -0.779622
-0.605588 1.682873 0.002177 -0.325667 0.534912 -0.779622
-0.531520 0.003452 -1.063999 -0.504793 0.369870 -0.779987
-1.626152 0.757883 0.002178 -0.504793 0.369870 -0.779987
0.000001 -0.019755 -1.418994 -0.504793 0.369870 -0.779987
-0.392248 -0.379188 -1.063999 -0.138019 -0.615644 -0.775844
0.000001 -0.019755 -1.418994 -0.138019 -0.615644 -0.775844
-0.768743 -1.638394 0.002177 -0.138019 -0.615644 -0.775844
-0.392248 -0.379188 -1.063999 -0.621017 -0.091151 -0.778479
-1.693731 -0.617831 0.002178 -0.621017 -0.091151 -0.778479
0.000001 -0.019755 -1.418994 -0.621017 -0.091151 -0.778479
0.392248 0.339680 -1.063999 0.619459 0.093772 -0.779409
1.695109 0.594730 0.002176 0.619459 0.093772 -0.779409
0.000001 -0.019755 -1.418994 0.619459 0.093772 -0.779409
0.392248 0.339680 -1.063999 0.148956 0.607803 -0.779992
0.000001 -0.019755 -1.418994 0.148956 0.607803 -0.779992
0.770123 1.615293 0.002176 0.148956 0.607803 -0.779992
0.531520 -0.042960 -1.063999 0.503081 -0.376619 -0.777861
1.627531 -0.780984 0.002176 0.503081 -0.376619 -0.777861
0.000001 -0.019755 -1.418994 0.503081 -0.376619 -0.777861
0.359431 -0.412005 -1.063999 0.086869 -0.623549 -0.776943
0.606969 -1.705974 0.002176 0.086869 -0.623549 -0.776943
0.000001 -0.019755 -1.418994 0.086869 -0.623549 -0.776943
3 0 1 2
3 3 4 5
3 6 7 8
3 9 10 11
3 12 13 14
3 15 16 17
3 18 19 20
3 21 22 23
3 24 25 26
3 27 28 29
3 30 31 32
3 33 34 35
3 36 37 38
3 39 40 41
3 42 43 44
3 45 46 47
3 48 49 50
3 51 52 53
3 54 55 56
3 57 58 59
3 60 61 62
3 63 64 65
3 66 67 68
3 69 70 71
3 72 73 74
3 75 76 77
3 78 79 80
3 81 82 83
3 84 85 86
3 87 88 89
3 90 91 92
3 93 94 95
3 96 97 98
3 99 100 101
3 102 103 104
3 105 106 107
3 108 109 110
3 111 112 113
3 114 115 116
3 117 118 119
3 120 121 122
3 123 124 125
3 126 127 128
3 129 130 131
3 132 133 134
3 135 136 137
3 138 139 140
3 141 142 143
3 144 145 146
3 147 148 149
3 150 151 152
3 153 154 155
3 156 157 158
3 159 160 161
3 162 163 164
3 165 166 167
3 168 169 170
3 171 172 173
3 174 175 176
3 177 178 179
3 180 181 182
3 183 184 185
3 186 187 188
3 189 190 191
3 192 193 194
3 195 196 197
3 198 199 200
3 201 202 203
3 204 205 206
3 207 208 209
3 210 211 212
3 213 214 215
3 216 217 218
3 219 220 221
3 222 223 224
3 225 226 227
3 228 229 230
3 231 232 233
3 234 235 236
3 237 238 239
3 240 241 242
3 243 244 245
3 246 247 248
3 249 250 251
3 252 253 254
3 255 256 257
3 258 259 260
3 261 262 263
3 264 265 266
3 267 268 269
3 270 271 272
3 273 274 275
3 276 277 278
3 279 280 281
3 282 283 284
3 285 286 287
3 288 289 290
3 291 292 293
3 294 295 296
3 297 298 299
3 300 301 302
3 303 304 305
3 306 307 308
3 309 310 311
3 312 313 314
3 315 316 317
3 318 319 320
3 321 322 323
3 324 325 326
3 327 328 329
3 330 331 332
3 333 334 335
3 336 337 338
3 339 340 341
3 342 343 344
3 345 346 347
3 348 349 350
3 351 352 353
3 354 355 356
3 357 358 359
3 360 361 362
3 363 364 365
3 366 367 368
3 369 370 371
3 372 373 374
3 375 376 377
3 378 379 380
3 381 382 383
3 384 385 386
3 387 388 389
3 390 391 392
3 393 394 395
3 396 397 398
3 399 400 401
3 402 403 404
3 405 406 407
3 408 409 410
3 411 412 413
3 414 415 416
3 417 418 419
3 420 421 422
3 423 424 425
3 426 427 428
3 429 430 431
3 432 433 434
3 435 436 437
3 438 439 440
3 441 442 443
3 444 445 446
3 447 448 449
3 450 451 452
3 453 454 455
3 456 457 458
3 459 460 461
3 462 463 464
3 465 466 467
3 468 469 470
3 471 472 473
3 474 475 476
3 477 478 479
