ply
format ascii 1.0
comment Created by Blender 2.70 (sub 0) - www.blender.org, source file: 'diamond.blend'
element vertex 211
property float x
property float y
property float z
element face 418
property list uchar uint vertex_indices
end_header
0.000000 0.869663 0.455470
-0.596880 0.653520 0.455470
0.000000 0.000002 0.455470
-0.653518 -0.596880 0.455470
-0.884166 0.040050 0.455470
1.247733 -0.451833 0.278687
0.653518 -0.596880 0.455470
1.327617 -1.216537 0.083963
0.596880 0.653520 0.455470
0.884166 0.040050 0.455470
1.201774 0.562788 0.278687
0.000000 -0.626483 0.455470
-1.247733 -0.451833 0.278687
-0.451832 1.247734 0.278687
0.451832 1.247734 0.278687
1.216536 1.327618 0.083963
0.446531 1.742288 0.071708
0.273927 1.779746 0.083963
-0.562787 -1.201776 0.278687
-0.040049 -0.884166 0.455470
-1.201774 0.562788 0.278687
1.780544 0.254202 0.071708
1.749098 0.428002 0.083963
0.761009 -1.631991 0.083963
0.916236 -1.547730 0.071708
0.562787 -1.201776 0.278687
-1.327617 -1.216537 0.083963
-0.078548 -1.798989 0.083963
1.079286 1.438784 0.071708
0.934155 1.539443 0.083963
0.761009 -1.631991 0.081496
0.040049 -0.884166 0.455470
0.078548 -1.798989 0.083963
0.254204 -1.780544 0.071708
0.428004 -1.749098 0.083963
-1.216536 1.327618 0.083963
-1.798988 0.078546 0.083963
-1.064772 -1.452167 0.083963
-0.916236 -1.547730 0.071708
1.438782 -1.079287 0.071708
-0.273927 1.779746 0.083963
-0.446531 1.742288 0.071708
-0.934155 1.539443 0.083963
-1.079286 1.438784 0.071708
0.273927 1.779746 0.071708
-0.428004 -1.749098 0.083963
-0.254204 -1.780544 0.071708
0.777855 1.621696 0.071708
0.777855 1.621696 0.030759
0.615875 1.692108 0.081496
1.452167 1.064774 0.071708
1.547729 0.916237 0.071708
1.453166 1.061947 0.042220
-1.749098 0.428002 0.083963
-1.780544 0.254202 0.071708
-1.779745 -0.273929 0.083963
-1.742286 -0.446533 0.071708
1.798988 0.078546 0.083963
0.428004 -1.749098 0.071708
0.427996 -1.749097 0.042220
-1.539441 -0.934157 0.083963
-1.438782 -1.079287 0.071708
-0.761009 -1.631991 0.083963
-0.761009 -1.631991 0.081496
-1.064772 -1.452167 0.071708
-1.200578 -1.339242 0.071708
-1.327617 -1.216537 0.071708
-1.539441 -0.934157 0.071708
-1.621695 -0.777856 0.071708
-1.692106 -0.615877 0.083963
-1.692106 -0.615877 0.081496
-1.779745 -0.273929 0.071708
-1.795923 -0.098050 0.071708
-1.798988 0.078546 0.071708
-1.749098 0.428002 0.071708
-1.696739 0.596685 0.071708
-1.631990 0.761010 0.083963
-1.631990 0.761010 0.081496
-1.547729 0.916237 0.071708
-1.452167 1.064774 0.083963
-1.452167 1.064774 0.071708
-1.339241 1.200579 0.071708
-1.216536 1.327618 0.071708
-0.934155 1.539443 0.071708
-0.777855 1.621696 0.071708
-0.615875 1.692108 0.083963
-0.615875 1.692108 0.081496
-0.273927 1.779746 0.071708
-0.098048 1.795924 0.071708
1.064772 -1.452167 0.083963
1.200578 -1.339242 0.071708
1.327617 -1.216537 0.071708
1.064772 -1.452167 0.071708
1.539441 -0.934157 0.071708
1.621695 -0.777856 0.071708
1.539441 -0.934157 0.083963
0.098048 1.795924 0.071708
0.615875 1.692108 0.083963
1.742286 -0.446533 0.071708
1.779745 -0.273929 0.071708
1.779745 -0.273929 0.083963
1.692106 -0.615877 0.081496
1.692106 -0.615877 0.083963
1.798988 0.078546 0.071708
1.795923 -0.098050 0.071708
1.749098 0.428002 0.071708
1.696739 0.596685 0.071708
0.078548 -1.798989 0.071708
0.596685 -1.696739 0.071708
1.197483 -1.339923 0.035601
0.913633 -1.549082 0.030759
1.061944 -1.453169 0.042220
1.452167 1.064774 0.083963
1.631990 0.761010 0.083963
1.631990 0.761010 0.081496
1.549079 0.913637 0.030759
1.539439 -0.934157 0.042220
1.621692 -0.777857 0.030759
0.449332 1.741403 0.030759
1.339241 1.200579 0.071708
1.339920 1.197486 0.035601
1.216536 1.327618 0.071708
0.254196 -1.780543 0.035601
0.100723 1.794217 0.035601
0.934155 1.539443 0.071708
0.934155 1.539443 0.042220
0.596679 -1.696738 0.030759
-0.078548 -1.798989 0.071708
0.000000 -1.797626 0.071708
-0.428004 -1.749098 0.071708
-0.596685 -1.696739 0.071708
-1.061944 -1.453169 0.042220
-0.913633 -1.549082 0.030759
-1.197483 -1.339923 0.035601
-1.621692 -0.777857 0.030759
-1.539439 -0.934157 0.042220
-1.453166 1.061947 0.042220
-1.549079 0.913637 0.030759
-1.339920 1.197486 0.035601
-0.449332 1.741403 0.030759
-0.276640 1.778454 0.042220
-0.100723 1.794217 0.035601
0.023203 -0.531522 -1.010082
0.359431 0.392251 -1.010082
1.216536 1.327618 0.018166
1.079286 1.438784 0.035601
0.000000 0.913770 0.441075
0.276640 1.778454 0.042220
-0.000000 0.628015 -0.928651
0.000000 -1.796898 0.055888
1.749095 0.428000 0.042220
-0.427996 -1.749097 0.042220
-0.254196 -1.780543 0.035601
-0.596679 -1.696738 0.030759
1.741400 -0.449329 0.030759
1.780541 0.254200 0.035601
0.000000 -0.869664 0.455470
0.000000 0.573660 -0.973105
0.615875 1.692108 0.008379
0.000000 0.523077 -1.010082
1.438780 -1.079289 0.035601
1.327615 -1.216538 0.018166
1.778451 -0.276637 0.042220
1.696736 0.596683 0.030759
0.078542 -1.798991 0.018166
0.000000 -1.717350 0.112801
0.000000 -0.913768 0.441076
0.392248 -0.359433 -1.010082
-0.777855 1.621696 0.030759
-0.934155 1.539443 0.042220
-1.079286 1.438784 0.035601
-1.696736 0.596683 0.030759
-1.749095 0.428000 0.042220
-1.780541 0.254200 0.035601
-1.794214 -0.100720 0.035601
-1.741400 -0.449329 0.030759
-1.778451 -0.276637 0.042220
-1.438780 -1.079289 0.035601
-0.615875 1.692108 0.008379
-0.359431 0.392251 -1.010082
-1.216536 1.327618 0.018166
-1.631990 0.761010 0.008379
-1.692104 -0.615878 0.008379
-0.531520 0.023206 -1.010082
-1.798988 0.078546 0.018166
-0.761009 -1.631991 0.008379
-0.023203 -0.531522 -1.010082
-0.078542 -1.798991 0.018166
0.000000 -0.590932 -0.958973
0.000000 -0.628015 -0.928650
0.000000 -0.767942 -0.814294
0.000000 -0.573659 -0.973105
-0.392248 -0.359433 -1.010082
-1.327615 -1.216538 0.018166
0.761009 -1.631991 0.008379
0.000000 0.590932 -0.958973
0.000000 1.797626 0.071708
0.531520 0.023206 -1.010082
0.000000 1.796898 0.025805
0.000000 0.767942 -0.814295
1.798988 0.078546 0.018166
1.794214 -0.100720 0.035601
1.692104 -0.615878 0.008379
0.000000 -1.796899 0.025805
0.000000 1.717350 0.112801
0.000000 1.797626 0.078512
0.000000 -1.797626 0.078512
1.631990 0.761010 0.008379
0.000000 -0.000001 -1.365077
0.000000 1.796898 0.055888
0.000000 -0.523076 -1.010082
3 0 1 2
3 3 1 4
3 5 6 7
3 8 9 10
3 1 3 11
3 4 12 3
3 13 1 0
3 14 8 15
3 14 16 17
3 3 18 19
3 1 20 4
3 10 21 22
3 23 24 25
3 12 26 3
3 18 27 19
3 14 28 29
3 24 23 30
3 25 31 32
3 25 33 34
3 13 35 1
3 20 36 4
3 18 37 38
3 7 39 5
3 13 40 41
3 13 42 43
3 16 44 17
3 18 45 46
3 47 48 49
3 50 51 52
3 20 53 54
3 12 55 56
3 57 21 10
3 15 28 14
3 58 33 59
3 32 33 25
3 12 60 61
3 62 18 38
3 38 63 62
3 38 37 64
3 37 18 65
3 64 37 65
3 65 26 66
3 26 12 61
3 66 26 61
3 61 60 67
3 60 12 68
3 67 60 68
3 68 69 70
3 69 12 56
3 70 69 56
3 56 55 71
3 55 12 72
3 71 55 72
3 72 36 73
3 36 20 54
3 73 36 54
3 54 53 74
3 53 20 75
3 74 53 75
3 75 76 77
3 76 20 78
3 77 76 78
3 78 79 80
3 79 20 81
3 80 79 81
3 81 35 82
3 35 13 43
3 82 35 43
3 43 42 83
3 42 13 84
3 83 42 84
3 84 85 86
3 85 13 41
3 86 85 41
3 41 40 87
3 40 13 88
3 87 40 88
3 89 90 25
3 91 39 7
3 92 90 89
3 90 91 7
3 93 94 95
3 39 93 95
3 95 94 5
3 17 96 14
3 49 16 97
3 97 16 14
3 98 99 100
3 101 98 102
3 102 98 5
3 103 21 57
3 99 104 100
3 104 103 57
3 105 106 22
3 22 106 10
3 21 105 22
3 107 33 32
3 44 96 17
3 58 108 34
3 34 108 25
3 33 58 34
3 90 92 109
3 24 30 110
3 92 24 111
3 51 50 112
3 113 51 10
3 114 51 113
3 51 114 115
3 93 116 94
3 94 117 101
3 16 49 118
3 119 50 120
3 119 120 121
3 33 107 122
3 96 44 123
3 121 28 15
3 50 119 112
3 119 121 15
3 124 125 47
3 58 59 108
3 108 126 30
3 124 47 29
3 28 124 29
3 27 127 128
3 27 18 46
3 127 27 46
3 46 45 129
3 45 18 130
3 129 45 130
3 63 130 62
3 64 131 38
3 38 132 63
3 65 133 64
3 65 66 133
3 68 70 134
3 67 68 135
3 80 136 78
3 78 137 77
3 81 82 138
3 81 138 80
3 41 139 86
3 87 140 41
3 88 141 87
3 24 92 89
3 7 6 25
3 5 104 57
3 57 9 5
3 126 59 142
3 2 11 8
3 48 125 143
3 144 120 143
3 115 143 52
3 144 143 145
3 25 108 23
3 14 47 97
3 146 0 14
3 147 148 123
3 128 127 149
3 105 21 150
3 129 151 46
3 46 152 127
3 130 63 153
3 129 130 151
3 98 101 154
3 21 103 155
3 31 6 156
3 157 158 159
3 52 51 115
3 160 91 161
3 125 28 145
3 120 50 52
3 49 48 158
3 162 98 154
3 59 33 122
3 108 59 126
3 106 150 163
3 122 107 164
3 165 32 166
3 161 109 167
3 84 86 168
3 83 84 169
3 83 169 43
3 43 170 82
3 75 77 171
3 74 75 172
3 74 172 54
3 54 173 73
3 72 73 174
3 72 174 71
3 56 175 70
3 71 176 56
3 67 135 61
3 61 177 66
3 178 179 168
3 180 170 179
3 169 179 170
3 168 179 169
3 137 136 179
3 136 138 179
3 180 179 138
3 181 137 179
3 182 175 183
3 184 183 174
3 176 174 183
3 175 176 183
3 171 183 172
3 172 183 173
3 184 173 183
3 181 183 171
3 185 186 153
3 187 152 186
3 151 186 152
3 153 186 151
3 188 189 186
3 189 190 186
3 28 121 145
3 191 188 186
3 185 132 192
3 193 192 133
3 131 133 192
3 132 131 192
3 134 192 135
3 135 192 177
3 193 177 192
3 182 192 134
3 164 142 122
3 161 167 160
3 194 126 142
3 59 122 142
3 117 116 167
3 118 195 147
3 96 123 196
3 110 167 111
3 150 155 197
3 198 199 141
3 200 201 197
3 202 197 154
3 5 94 102
3 15 8 10
3 164 107 203
3 10 51 112
3 158 157 118
3 164 203 142
3 110 30 194
3 25 90 7
3 91 109 161
3 145 121 144
3 204 14 205
3 206 128 32
3 111 24 110
3 154 101 202
3 114 163 207
3 121 120 144
3 19 156 3
3 19 27 166
3 88 13 205
3 0 2 8
3 208 183 179
3 208 192 183
3 185 192 186
3 88 196 141
3 101 117 202
3 94 116 117
3 207 163 197
3 163 150 197
3 158 48 143
3 204 13 146
3 10 9 57
3 5 98 100
3 26 18 3
3 36 12 4
3 5 39 95
3 35 20 1
3 165 27 206
3 94 101 102
3 12 36 72
3 112 119 10
3 20 35 81
3 25 24 89
3 30 23 108
3 20 79 78
3 12 69 68
3 20 76 75
3 90 109 91
3 18 62 130
3 100 104 5
3 13 85 84
3 44 16 147
3 106 114 113
3 176 175 56
3 103 201 200
3 174 176 71
3 167 197 202
3 149 127 203
3 201 99 162
3 86 178 168
3 93 39 116
3 116 39 160
3 84 168 169
3 111 167 109
3 116 160 167
3 194 167 110
3 187 186 203
3 207 143 115
3 139 140 195
3 125 145 143
3 151 152 46
3 30 126 194
3 106 163 114
3 47 125 48
3 194 142 167
3 130 153 151
3 152 187 127
3 63 185 153
3 52 143 120
3 155 103 200
3 75 171 172
3 6 31 25
3 141 140 87
3 140 141 148
3 202 117 167
3 10 119 15
3 10 106 113
3 147 16 118
3 140 139 41
3 173 184 73
3 169 170 43
3 73 184 174
3 138 136 80
3 137 181 77
3 136 137 78
3 177 193 66
3 135 177 61
3 133 131 64
3 209 198 141
3 139 178 86
3 131 132 38
3 123 44 147
3 175 182 70
3 77 181 171
3 178 139 157
3 82 180 138
3 104 99 201
3 70 182 134
3 68 134 135
3 179 178 159
3 170 180 82
3 66 193 133
3 109 92 111
3 132 185 63
3 115 114 207
3 172 173 54
3 206 27 128
3 192 208 186
3 197 143 207
3 150 21 155
3 18 26 65
3 208 179 159
3 200 197 155
3 183 181 179
3 210 191 186
3 192 182 183
3 186 208 210
3 162 197 201
3 178 157 159
3 124 28 125
3 139 195 157
3 154 197 162
3 141 199 148
3 140 148 195
3 104 201 103
3 118 49 158
3 99 98 162
3 39 91 160
3 186 190 203
3 127 187 203
3 29 47 14
3 105 150 106
3 88 205 196
3 196 209 141
3 13 204 205
3 47 49 97
3 27 165 166
3 6 9 8
3 9 6 5
3 156 11 3
3 19 166 156
3 146 13 0
3 2 1 11
3 128 107 32
3 128 149 107
3 208 197 167
3 188 142 189
3 14 96 205
3 203 190 142
3 157 195 118
3 107 149 203
3 189 142 190
3 191 142 188
3 198 123 199
3 204 146 14
3 167 142 208
3 142 210 208
3 210 142 191
3 208 159 143
3 31 156 166
3 123 209 196
3 195 148 147
3 209 123 198
3 32 31 166
3 208 143 197
3 158 143 159
3 165 206 32
3 6 11 156
3 96 196 205
3 148 199 123
3 0 8 14
3 11 6 8
