ply
format ascii 1.0
comment Created by Blender 2.70 (sub 0) - www.blender.org, source file: 'diamond.blend'
element vertex 780
property float x
property float y
property float z
property float nx
property float ny
property float nz
element face 307
property list uchar uint vertex_indices
end_header
-0.057117 -0.884166 0.540811 0.000000 0.000000 1.000000
0.579814 -0.653519 0.540811 0.000000 0.000000 1.000000
0.000000 0.884167 0.540811 0.000000 0.000000 1.000000
-0.091957 -1.798223 0.160113 0.000000 -0.999429 -0.033790
-0.089633 -1.796604 0.112225 0.000000 -0.999429 -0.033790
0.089633 -1.796604 0.112225 0.000000 -0.999429 -0.033790
0.091957 -1.798223 0.160113 0.000000 -0.999429 -0.033790
-0.670587 -0.596880 0.540811 -0.000000 0.000000 1.000000
-0.625200 0.625200 0.540811 0.000000 0.000000 1.000000
-0.884167 0.000000 0.540811 0.000000 0.000000 1.000000
-0.884167 0.000000 0.540811 -0.308040 -0.110225 0.944966
-1.264802 -0.451833 0.364028 -0.308040 -0.110225 0.944966
-0.670587 -0.596880 0.540811 -0.308040 -0.110225 0.944966
0.000000 0.884167 0.540811 -0.125598 0.303221 0.944607
-0.507310 1.224755 0.364028 -0.125598 0.303221 0.944607
-0.625200 0.625200 0.540811 -0.125598 0.303221 0.944607
0.884167 0.000000 0.540811 0.311829 0.129164 0.941318
1.230667 0.451833 0.364028 0.311829 0.129164 0.941318
0.625200 0.625200 0.540811 0.311829 0.129164 0.941318
-0.057117 -0.884166 0.540811 0.111647 -0.308311 0.944711
0.434766 -1.247735 0.364028 0.111647 -0.308311 0.944711
0.579814 -0.653519 0.540811 0.111647 -0.308311 0.944711
-0.670587 -0.596880 0.540811 -0.139063 -0.296955 0.944711
-0.579855 -1.201776 0.364028 -0.139063 -0.296955 0.944711
-0.057117 -0.884166 0.540811 -0.139063 -0.296955 0.944711
-0.625200 0.625200 0.540811 -0.295049 0.122213 0.947634
-1.218843 0.562788 0.364028 -0.295049 0.122213 0.947634
-0.884167 0.000000 0.540811 -0.295049 0.122213 0.947634
0.625200 0.625200 0.540811 0.125598 0.303221 0.944607
0.507310 1.224755 0.364028 0.125598 0.303221 0.944607
0.000000 0.884167 0.540811 0.125598 0.303221 0.944607
0.579814 -0.653519 0.540811 0.296876 -0.138259 0.944854
1.184709 -0.562787 0.364028 0.296876 -0.138259 0.944854
0.884167 0.000000 0.540811 0.296876 -0.138259 0.944854
-1.264802 -0.451833 0.364028 -0.339890 -0.310432 0.887754
-0.579855 -1.201776 0.364028 -0.339890 -0.310432 0.887754
-0.670587 -0.596880 0.540811 -0.339890 -0.310432 0.887754
-0.579855 -1.201776 0.364028 -0.020830 -0.459847 0.887754
0.434766 -1.247735 0.364028 -0.020830 -0.459847 0.887754
-0.057117 -0.884166 0.540811 -0.020830 -0.459847 0.887754
0.434766 -1.247735 0.364028 0.310432 -0.339890 0.887754
1.184709 -0.562787 0.364028 0.310432 -0.339890 0.887754
0.579814 -0.653519 0.540811 0.310432 -0.339890 0.887754
1.184709 -0.562787 0.364028 0.476550 -0.021586 0.878882
1.230667 0.451833 0.364028 0.476550 -0.021586 0.878882
0.884167 0.000000 0.540811 0.476550 -0.021586 0.878882
1.230667 0.451833 0.364028 0.350037 0.327591 0.877587
0.507310 1.224755 0.364028 0.350037 0.327591 0.877587
0.625200 0.625200 0.540811 0.350037 0.327591 0.877587
0.507310 1.224755 0.364028 -0.000000 0.460691 0.887561
-0.507310 1.224755 0.364028 -0.000000 0.460691 0.887561
0.000000 0.884167 0.540811 -0.000000 0.460691 0.887561
-0.507310 1.224755 0.364028 -0.301141 0.323689 0.896961
-1.218843 0.562788 0.364028 -0.301141 0.323689 0.896961
-0.625200 0.625200 0.540811 -0.301141 0.323689 0.896961
-1.218843 0.562788 0.364028 -0.440532 0.019955 0.897515
-1.264802 -0.451833 0.364028 -0.440532 0.019955 0.897515
-0.884167 0.000000 0.540811 -0.440532 0.019955 0.897515
-0.606281 1.694423 0.163177 -0.000000 0.000000 1.000000
0.088298 1.797457 0.163177 -0.000000 0.000000 1.000000
-0.264066 1.780145 0.163177 -0.000000 0.000000 1.000000
-1.208558 1.333429 0.163177 -0.000000 0.000000 1.000000
-0.925197 1.543586 0.163177 -0.000000 0.000000 1.000000
-1.626844 0.769432 0.163177 -0.000000 0.000000 1.000000
-1.445476 1.072030 0.163177 -0.000000 0.000000 1.000000
-1.797457 0.088297 0.163177 -0.000000 0.000000 1.000000
-1.745693 0.437267 0.163177 -0.000000 0.000000 1.000000
-1.694423 -0.606281 0.163177 -0.000000 -0.000000 1.000000
-1.780145 -0.264067 0.163177 -0.000000 -0.000000 1.000000
-1.333429 -1.208559 0.163177 -0.000000 -0.000000 1.000000
-1.543586 -0.925198 0.163177 -0.000000 -0.000000 1.000000
-0.769432 -1.626844 0.163177 -0.000000 -0.000000 1.000000
-1.072029 -1.445476 0.163177 -0.000000 -0.000000 1.000000
-0.769432 -1.626844 0.163177 -0.097513 -0.389301 0.915934
-0.088298 -1.797457 0.163177 -0.097513 -0.389301 0.915934
-0.579855 -1.201776 0.364028 -0.097513 -0.389301 0.915934
0.606280 -1.694424 0.163177 0.000000 -0.000000 1.000000
-0.088298 -1.797457 0.163177 0.000000 -0.000000 1.000000
0.264065 -1.780145 0.163177 0.000000 -0.000000 1.000000
1.208557 -1.333431 0.163177 0.000000 -0.000000 1.000000
0.925195 -1.543587 0.163177 0.000000 -0.000000 1.000000
1.626843 -0.769434 0.163177 0.000000 -0.000000 1.000000
1.445475 -1.072031 0.163177 0.000000 -0.000000 1.000000
1.797457 -0.088299 0.163177 0.000000 -0.000000 1.000000
1.745693 -0.437268 0.163177 0.000000 -0.000000 1.000000
1.694424 0.606280 0.163177 0.000000 0.000000 1.000000
1.780145 0.264064 0.163177 0.000000 0.000000 1.000000
1.333430 1.208558 0.163177 0.000000 0.000000 1.000000
1.543587 0.925196 0.163177 0.000000 0.000000 1.000000
0.769434 1.626843 0.163177 0.000000 0.000000 1.000000
1.072031 1.445475 0.163177 0.000000 0.000000 1.000000
0.437268 1.745693 0.163177 0.000000 0.000000 1.000000
-0.923894 -1.544262 0.121830 -0.485515 -0.868803 0.097246
-0.769432 -1.626843 0.104910 -0.485515 -0.868803 0.097246
-0.921141 -1.541515 0.160113 -0.485515 -0.868803 0.097246
-1.076935 -1.448822 0.160113 -0.485515 -0.868803 0.097246
-0.769434 1.626843 0.104910 -0.411285 0.910230 0.048238
-0.938210 1.541515 0.160113 -0.411285 0.910230 0.048238
-0.756689 1.629417 0.165007 -0.411285 0.910230 0.048238
-0.606277 1.694423 0.104910 -0.411285 0.910230 0.048238
-1.204013 -1.330525 0.160113 -0.603809 -0.664937 0.439589
-1.072029 -1.445476 0.163177 -0.159001 -0.222694 0.961821
-1.333429 -1.208559 0.163177 -0.281747 -0.257454 0.924284
-1.076935 -1.448822 0.160113 -0.559984 -0.712027 0.423536
-1.339057 -1.212548 0.160113 -0.661885 -0.593616 0.457656
-1.440287 -1.068403 0.160113 -0.727012 -0.564287 0.391156
-1.543586 -0.925198 0.163177 -0.156041 -0.101138 0.982543
1.626841 -0.769434 0.104910 0.895713 -0.428462 0.118821
1.701799 -0.611079 0.165007 0.895713 -0.428462 0.118821
1.620883 -0.765223 0.165007 0.895713 -0.428462 0.118821
1.550048 -0.929677 0.160113 0.895713 -0.428462 0.118821
-1.620883 -0.765223 0.165007 -0.267830 -0.083254 0.959838
-1.694423 -0.606281 0.163177 -0.087802 -0.023713 0.995849
0.606280 -1.694424 0.104910 0.331734 -0.938955 0.091196
0.773755 -1.629418 0.165007 0.331734 -0.938955 0.091196
0.441170 -1.747396 0.160113 0.331734 -0.938955 0.091196
-1.738862 -0.432636 0.160113 -0.935087 -0.259102 0.241798
-1.780145 -0.264067 0.163177 -0.179724 -0.020234 0.983490
-1.788479 -0.268998 0.160113 -0.878384 -0.112522 0.464492
-1.789690 -0.083423 0.160113 -0.984680 -0.046815 0.167882
-1.797457 0.088297 0.163177 -0.341624 0.025025 0.939482
-1.806757 0.083421 0.160113 -0.879604 0.021393 0.475204
-1.771412 0.268996 0.160113 -0.967528 0.118717 0.222999
-1.745693 0.437267 0.163177 -0.160161 0.033235 0.986511
-1.796601 -0.089632 0.112225 -0.988052 -0.042584 0.148124
-1.779496 -0.265418 0.124251 -0.988052 -0.042584 0.148124
-1.789690 -0.083423 0.160113 -0.988052 -0.042584 0.148124
-1.796602 0.089633 0.112225 -0.988052 -0.042584 0.148124
-1.684732 0.611077 0.165007 -0.192419 0.115970 0.974425
-1.626844 0.769432 0.163177 -0.079012 0.045991 0.995788
-0.606281 1.694423 0.163177 0.041169 -0.103702 0.993744
-0.619612 1.693266 0.165007 -0.192358 0.568896 0.799554
-0.925197 1.543586 0.163177 -0.149724 0.270272 0.951048
1.070615 1.445976 0.124251 0.571452 0.813670 0.106698
0.923894 1.544263 0.121830 0.571452 0.813670 0.106698
1.059869 1.448821 0.160113 0.571452 0.813670 0.106698
1.221081 1.330524 0.160113 0.571452 0.813670 0.106698
-1.532982 0.929675 0.160113 -0.813105 0.459975 0.356700
-1.445476 1.072030 0.163177 -0.174688 0.148991 0.973266
-1.457355 1.068402 0.160113 -0.712333 0.519944 0.471358
-1.321991 1.212547 0.160113 -0.675710 0.618091 0.401654
-1.208558 1.333429 0.163177 -0.271981 0.326518 0.905179
-1.221081 1.330524 0.160113 -0.622028 0.628895 0.466384
-1.059869 1.448821 0.160113 -0.531419 0.685507 0.497635
-0.938210 1.541515 0.160113 -0.484024 0.745140 0.458724
0.606280 -1.694424 0.163177 0.360759 -0.925565 -0.114536
0.441170 -1.747396 0.160113 0.187292 -0.804102 0.564165
0.773755 -1.629418 0.165007 0.312052 -0.623615 0.716727
-0.756689 1.629417 0.165007 -0.243416 0.541612 0.804590
-0.424102 1.747396 0.160113 -0.214728 0.806482 0.550859
-0.264066 1.780145 0.163177 -0.058260 0.583239 0.810205
-0.277531 1.779946 0.160113 -0.169530 0.934233 0.313700
-0.074888 1.798223 0.160113 -0.033815 0.830897 0.555345
0.088298 1.797457 0.163177 0.050630 0.841548 0.537736
0.074888 1.798223 0.160113 0.022401 0.995331 0.093844
0.277531 1.779946 0.160113 0.135502 0.818110 0.558824
0.437268 1.745693 0.163177 0.244209 0.849727 0.467208
0.424102 1.747396 0.160113 0.223426 0.957244 -0.183660
0.619612 1.693266 0.165007 0.233039 0.645711 0.727134
0.769434 1.626843 0.163177 -0.565477 -0.738762 0.366588
0.756689 1.629417 0.165007 0.222510 0.460738 -0.859157
0.938210 1.541515 0.160113 0.458022 0.701437 0.546037
1.072031 1.445475 0.163177 0.551561 0.739677 0.385510
0.925195 -1.543587 0.163177 0.469985 -0.818140 0.331278
0.921141 -1.541515 0.160113 0.463607 -0.791101 -0.398999
1.076935 -1.448822 0.160113 0.487106 -0.682607 0.544694
1.221081 1.330524 0.160113 0.559252 0.611560 0.559618
1.333430 1.208558 0.163177 0.693350 0.626881 0.355296
-1.755930 0.432634 0.160113 -0.879788 0.201514 0.430464
1.457355 1.068402 0.160113 0.708518 0.473342 0.523331
1.543587 0.925196 0.163177 0.855739 0.475845 0.203131
1.626843 -0.769434 0.163177 0.916379 -0.284188 -0.281899
1.550048 -0.929677 0.160113 0.706626 -0.461287 0.536546
1.620883 -0.765223 0.165007 0.600787 -0.274606 -0.750725
1.701799 -0.611079 0.165007 0.704215 -0.221473 0.674551
1.637951 0.765221 0.165007 0.655202 0.331034 0.679037
1.694424 0.606280 0.163177 0.865719 0.420728 -0.271065
1.779496 0.265419 0.124251 0.962000 0.187915 0.198103
1.745248 0.438665 0.121830 0.962000 0.187915 0.198103
1.771412 0.268996 0.160113 0.962000 0.187915 0.198103
1.806757 0.083421 0.160113 0.962000 0.187915 0.198103
1.755930 0.432634 0.160113 0.836818 0.160192 0.523484
1.780145 0.264064 0.163177 0.967589 0.140996 0.209418
-0.441170 -1.747396 0.160113 0.000000 0.000000 -1.000000
-0.091957 -1.798223 0.160113 0.000000 0.000000 -1.000000
-0.260462 -1.779946 0.160113 0.000000 0.000000 -1.000000
1.806757 0.083421 0.160113 0.834590 0.039186 0.549425
1.797457 -0.088299 0.163177 0.769250 -0.039125 0.637715
-0.089635 1.796603 0.112225 -0.093751 0.995361 -0.021618
-0.265418 1.779499 0.124251 -0.093751 0.995361 -0.021618
-0.277531 1.779946 0.160113 -0.093751 0.995361 -0.021618
-0.074888 1.798223 0.160113 -0.093751 0.995361 -0.021618
1.788479 -0.268998 0.160113 0.840602 -0.161840 0.516861
1.745693 -0.437268 0.163177 0.942991 -0.272256 0.191351
1.684732 0.611077 0.165007 0.628803 0.233955 -0.741478
1.738862 -0.432636 0.160113 0.839534 -0.220923 -0.496323
1.445475 -1.072031 0.163177 0.779412 -0.581286 0.233589
-1.544259 0.923897 0.121830 -0.869015 0.458148 0.186849
-1.626841 0.769434 0.104910 -0.869015 0.458148 0.186849
-1.532982 0.929675 0.160113 -0.869015 0.458148 0.186849
-1.457355 1.068402 0.160113 -0.869015 0.458148 0.186849
1.339057 -1.212548 0.160113 0.617023 -0.554582 0.558275
1.208557 -1.333431 0.163177 0.642201 -0.710318 0.288003
0.769434 1.626843 0.104910 0.430083 0.901255 0.052609
0.619612 1.693266 0.165007 0.430083 0.901255 0.052609
0.756689 1.629417 0.165007 0.430083 0.901255 0.052609
0.938210 1.541515 0.160113 0.430083 0.901255 0.052609
1.445973 -1.070618 0.124251 0.814180 -0.557115 0.163504
1.544259 -0.923897 0.121830 0.814180 -0.557115 0.163504
1.440287 -1.068403 0.160113 0.814180 -0.557115 0.163504
1.339057 -1.212548 0.160113 0.814180 -0.557115 0.163504
-0.606280 -1.694424 0.104910 -0.350350 -0.935773 0.039804
-0.441170 -1.747396 0.160113 -0.350350 -0.935773 0.039804
-0.602543 -1.693266 0.165007 -0.350350 -0.935773 0.039804
-0.769432 -1.626843 0.104910 -0.350350 -0.935773 0.039804
0.264065 -1.780145 0.163177 0.128239 -0.785394 0.605548
0.260462 -1.779946 0.160113 0.079043 -0.633564 -0.769616
0.091957 -1.798223 0.160113 0.057436 -0.830500 0.554003
-0.088298 -1.797457 0.163177 -0.022004 -0.736229 0.676351
-0.091957 -1.798223 0.160113 -0.077883 -0.987243 0.138707
-0.260462 -1.779946 0.160113 -0.144078 -0.972472 -0.183081
-0.437268 -1.745693 0.163177 -0.092441 -0.434034 0.896115
-0.441170 -1.747396 0.160113 -0.227912 -0.921934 0.313120
-0.602543 -1.693266 0.165007 -0.210303 -0.553972 0.805506
-0.769432 -1.626844 0.163177 0.003632 0.022431 0.999725
-0.921141 -1.541515 0.160113 -0.424604 -0.738762 0.523331
-0.773755 -1.629418 0.165007 -0.272866 -0.536637 0.798456
-0.921141 -1.541515 0.160113 -0.509047 -0.857608 -0.073350
-0.769432 -1.626843 0.104910 -0.509047 -0.857608 -0.073350
-0.773755 -1.629418 0.165007 -0.509047 -0.857608 -0.073350
-1.204013 -1.330525 0.160113 -0.670803 -0.720596 -0.175399
-1.070615 -1.445976 0.124251 -0.670803 -0.720596 -0.175399
-1.076935 -1.448822 0.160113 -0.670803 -0.720596 -0.175399
-1.204013 -1.330525 0.160113 -0.704123 -0.704123 0.091771
-1.333768 -1.207012 0.112225 -0.704123 -0.704123 0.091771
-1.207009 -1.333770 0.112225 -0.704123 -0.704123 0.091771
-1.745247 -0.438664 0.121830 -0.934318 -0.293630 0.202070
-1.694420 -0.606280 0.104910 -0.934318 -0.293630 0.202070
-1.738862 -0.432636 0.160113 -0.934318 -0.293630 0.202070
-1.788479 -0.268998 0.160113 -0.934318 -0.293630 0.202070
0.088298 1.797457 0.163177 -0.044700 0.301334 0.952470
-0.606281 1.694423 0.163177 -0.044700 0.301334 0.952470
0.507310 1.224755 0.364028 -0.044700 0.301334 0.952470
-1.445973 -1.070618 0.124251 -0.764852 -0.624068 0.159817
-1.333768 -1.207012 0.112225 -0.764852 -0.624068 0.159817
-1.440287 -1.068403 0.160113 -0.764852 -0.624068 0.159817
-1.550048 -0.929677 0.160113 -0.764852 -0.624068 0.159817
-1.532982 0.929675 0.160113 -0.838645 0.531796 -0.117759
-1.626841 0.769434 0.104910 -0.838645 0.531796 -0.117759
-1.637951 0.765221 0.165007 -0.838645 0.531796 -0.117759
-1.321991 1.212547 0.160113 -0.704122 0.704123 0.091778
-1.207009 1.333770 0.112225 -0.704122 0.704123 0.091778
-1.333768 1.207012 0.112225 -0.704122 0.704123 0.091778
-1.321991 1.212547 0.160113 -0.716274 0.672640 -0.185762
-1.445973 1.070618 0.124251 -0.716274 0.672640 -0.185762
-1.457355 1.068402 0.160113 -0.716274 0.672640 -0.185762
-0.606277 1.694423 0.104910 -0.233532 0.563810 -0.792201
0.000000 -0.000001 -1.279736 -0.233532 0.563810 -0.792201
-0.769434 1.626843 0.104910 -0.233532 0.563810 -0.792201
-0.438664 1.745251 0.121830 -0.295781 0.803310 0.516921
-0.606277 1.694423 0.104910 -0.295781 0.803310 0.516921
-0.277531 1.779946 0.160113 -0.295781 0.803310 0.516921
-0.606277 1.694423 0.104910 -0.267555 0.962677 -0.040824
-0.619612 1.693266 0.165007 -0.267555 0.962677 -0.040824
-0.424102 1.747396 0.160113 -0.267555 0.962677 -0.040824
-0.606277 1.694423 0.104910 -0.211672 0.953151 -0.216100
-0.424102 1.747396 0.160113 -0.211672 0.953151 -0.216100
-0.277531 1.779946 0.160113 -0.211672 0.953151 -0.216100
0.884167 0.000000 0.540811 -0.000000 0.000000 1.000000
0.625200 0.625200 0.540811 -0.000000 0.000000 1.000000
0.424102 1.747396 0.160113 0.216008 0.972677 -0.085083
0.265418 1.779499 0.124251 0.216008 0.972677 -0.085083
0.277531 1.779946 0.160113 0.216008 0.972677 -0.085083
1.771412 0.268996 0.160113 0.860653 0.152165 -0.485885
0.619612 1.693266 0.165007 0.381816 0.921809 -0.066964
0.769434 1.626843 0.104910 0.381816 0.921809 -0.066964
0.606277 1.694423 0.104910 0.381816 0.921809 -0.066964
0.424102 1.747396 0.160113 0.295125 0.953646 0.058826
0.606277 1.694423 0.104910 0.295125 0.953646 0.058826
0.438664 1.745251 0.121830 0.295125 0.953646 0.058826
1.333768 1.207012 0.112225 0.742617 0.669386 0.021005
1.221081 1.330524 0.160113 0.742617 0.669386 0.021005
1.457355 1.068402 0.160113 0.742617 0.669386 0.021005
1.221081 1.330524 0.160113 0.698242 0.698244 -0.157840
1.333768 1.207012 0.112225 0.698242 0.698244 -0.157840
1.207009 1.333770 0.112225 0.698242 0.698244 -0.157840
1.532982 0.929675 0.160113 0.851977 0.464454 -0.241696
1.445973 1.070618 0.124251 0.851977 0.464454 -0.241696
1.457355 1.068402 0.160113 0.851977 0.464454 -0.241696
-1.070615 1.445976 0.124251 -0.620548 0.774216 0.124540
-1.207009 1.333770 0.112225 -0.620548 0.774216 0.124540
-1.059869 1.448821 0.160113 -0.620548 0.774216 0.124540
-0.938210 1.541515 0.160113 -0.620548 0.774216 0.124540
1.532982 0.929675 0.160113 0.874294 0.446603 0.190147
1.626841 0.769434 0.104910 0.874294 0.446603 0.190147
1.544259 0.923897 0.121830 0.874294 0.446603 0.190147
1.637951 0.765221 0.165007 0.914455 0.378769 -0.142500
1.694420 0.606280 0.104910 0.914455 0.378769 -0.142500
1.626841 0.769434 0.104910 0.914455 0.378769 -0.142500
1.701799 -0.611079 0.165007 0.914451 -0.378768 -0.142528
1.626841 -0.769434 0.104910 0.914451 -0.378768 -0.142528
1.694420 -0.606280 0.104910 0.914451 -0.378768 -0.142528
1.738862 -0.432636 0.160113 0.931166 -0.302856 0.202997
1.694420 -0.606280 0.104910 0.931166 -0.302856 0.202997
1.745247 -0.438664 0.121830 0.931166 -0.302856 0.202997
0.773755 -1.629418 0.165007 0.381827 -0.921806 -0.066949
0.606280 -1.694424 0.104910 0.381827 -0.921806 -0.066949
0.769432 -1.626843 0.104910 0.381827 -0.921806 -0.066949
0.921141 -1.541515 0.160113 0.461050 -0.882118 0.096442
0.769432 -1.626843 0.104910 0.461050 -0.882118 0.096442
0.923894 -1.544262 0.121830 0.461050 -0.882118 0.096442
-1.637951 0.765221 0.165007 -0.651082 0.295724 0.698996
1.694420 0.606280 0.104910 0.935705 0.330091 0.124485
1.637951 0.765221 0.165007 0.935705 0.330091 0.124485
1.684732 0.611077 0.165007 0.935705 0.330091 0.124485
1.755930 0.432634 0.160113 0.935705 0.330091 0.124485
0.265418 1.779499 0.124251 0.093751 0.995361 -0.021618
0.089635 1.796603 0.112225 0.093751 0.995361 -0.021618
0.074888 1.798223 0.160113 0.093751 0.995361 -0.021618
0.277531 1.779946 0.160113 0.093751 0.995361 -0.021618
-1.550048 -0.929677 0.160113 -0.770379 -0.480026 0.419599
-0.441170 -1.747396 0.160113 -0.282753 -0.956478 -0.072117
-0.606280 -1.694424 0.104910 -0.282753 -0.956478 -0.072117
-0.438664 -1.745250 0.121830 -0.282753 -0.956478 -0.072117
1.789690 -0.083423 0.160113 0.766411 -0.044374 -0.640797
0.091957 -1.798223 0.160113 -0.000000 0.000000 -1.000000
0.441170 -1.747396 0.160113 -0.000000 0.000000 -1.000000
0.260462 -1.779946 0.160113 -0.000000 0.000000 -1.000000
-1.701799 -0.611079 0.165007 -0.675466 -0.236061 0.698569
0.921141 -1.541515 0.160113 0.505029 -0.848821 -0.156359
1.070615 -1.445976 0.124251 0.505029 -0.848821 -0.156359
1.076935 -1.448822 0.160113 0.505029 -0.848821 -0.156359
1.339057 -1.212548 0.160113 0.698242 -0.698242 -0.157847
1.207009 -1.333770 0.112225 0.698242 -0.698242 -0.157847
1.333768 -1.207012 0.112225 0.698242 -0.698242 -0.157847
1.440287 -1.068403 0.160113 0.722221 -0.510941 -0.466140
-0.606281 1.694423 0.163177 0.000000 0.393198 0.919454
-0.507310 1.224755 0.364028 0.000000 0.393198 0.919454
0.507310 1.224755 0.364028 0.000000 0.393198 0.919454
1.440287 -1.068403 0.160113 0.767131 -0.606959 -0.207634
1.544259 -0.923897 0.121830 0.767131 -0.606959 -0.207634
1.550048 -0.929677 0.160113 0.767131 -0.606959 -0.207634
1.788479 -0.268998 0.160113 0.989605 -0.006456 0.143664
1.796601 -0.089632 0.112225 0.989605 -0.006456 0.143664
1.789690 -0.083423 0.160113 0.989605 -0.006456 0.143664
1.738862 -0.432636 0.160113 0.924201 -0.280228 -0.259470
1.779496 -0.265418 0.124251 0.924201 -0.280228 -0.259470
1.788479 -0.268998 0.160113 0.924201 -0.280228 -0.259470
-1.779496 0.265419 0.124251 -0.973714 0.086013 0.210908
-1.796602 0.089633 0.112225 -0.973714 0.086013 0.210908
-1.771412 0.268996 0.160113 -0.973714 0.086013 0.210908
-1.755930 0.432634 0.160113 -0.973714 0.086013 0.210908
1.806757 0.083421 0.160113 0.978246 -0.000001 -0.207448
1.796601 -0.089632 0.112225 0.978246 -0.000001 -0.207448
1.796602 0.089633 0.112225 0.978246 -0.000001 -0.207448
-1.694420 -0.606280 0.104910 -0.584306 -0.186080 -0.789912
0.000000 -0.000001 -1.279736 -0.584306 -0.186080 -0.789912
-0.375840 -0.375842 -0.924741 -0.584306 -0.186080 -0.789912
-1.626841 -0.769434 0.104910 -0.584306 -0.186080 -0.789912
1.771412 0.268996 0.160113 0.962825 0.091097 -0.254304
1.745248 0.438665 0.121830 0.962825 0.091097 -0.254304
1.755930 0.432634 0.160113 0.962825 0.091097 -0.254304
1.059869 1.448821 0.160113 0.597523 0.784236 -0.167150
0.923894 1.544263 0.121830 0.597523 0.784236 -0.167150
0.938210 1.541515 0.160113 0.597523 0.784236 -0.167150
-1.626841 -0.769434 0.104910 -0.914111 -0.387972 0.117808
-1.550048 -0.929677 0.160113 -0.914111 -0.387972 0.117808
-1.620883 -0.765223 0.165007 -0.914111 -0.387972 0.117808
-1.694420 -0.606280 0.104910 -0.914111 -0.387972 0.117808
-0.938210 1.541515 0.160113 -0.478164 0.870534 -0.116321
-0.769434 1.626843 0.104910 -0.478164 0.870534 -0.116321
-0.923894 1.544263 0.121830 -0.478164 0.870534 -0.116321
-1.059869 1.448821 0.160113 -0.587448 0.800562 -0.118346
-1.207009 1.333770 0.112225 -0.587448 0.800562 -0.118346
-1.221081 1.330524 0.160113 -0.587448 0.800562 -0.118346
-1.445973 -1.070618 0.124251 -0.795040 -0.499534 -0.344059
-1.550048 -0.929677 0.160113 -0.795040 -0.499534 -0.344059
-1.626841 -0.769434 0.104910 -0.795040 -0.499534 -0.344059
-1.694420 0.606280 0.104910 -0.920510 0.372263 0.118669
-1.755930 0.432634 0.160113 -0.920510 0.372263 0.118669
-1.684732 0.611077 0.165007 -0.920510 0.372263 0.118669
-1.626841 0.769434 0.104910 -0.920510 0.372263 0.118669
-1.771412 0.268996 0.160113 -0.966115 0.184006 -0.181007
-1.796602 0.089633 0.112225 -0.966115 0.184006 -0.181007
-1.806757 0.083421 0.160113 -0.966115 0.184006 -0.181007
1.626841 -0.769434 0.104910 0.563810 -0.233532 -0.792200
0.000000 -0.000001 -1.279736 0.563810 -0.233532 -0.792200
1.694420 -0.606280 0.104910 0.563810 -0.233532 -0.792200
-1.789690 -0.083423 0.160113 -0.969864 -0.006327 -0.243567
-1.779496 -0.265418 0.124251 -0.969864 -0.006327 -0.243567
-1.788479 -0.268998 0.160113 -0.969864 -0.006327 -0.243567
-1.738862 -0.432636 0.160113 -0.969342 -0.205048 -0.135395
-1.694420 -0.606280 0.104910 -0.969342 -0.205048 -0.135395
-1.701799 -0.611079 0.165007 -0.969342 -0.205048 -0.135395
1.059869 1.448821 0.160113 0.426191 0.603229 -0.674093
1.207009 -1.333770 0.112225 0.669146 -0.742351 0.034037
1.339057 -1.212548 0.160113 0.669146 -0.742351 0.034037
1.076935 -1.448822 0.160113 0.669146 -0.742351 0.034037
-1.440287 -1.068403 0.160113 -0.808473 -0.567772 -0.154939
-1.333768 -1.207012 0.112225 -0.808473 -0.567772 -0.154939
-1.339057 -1.212548 0.160113 -0.808473 -0.567772 -0.154939
0.606280 -1.694424 0.104910 0.186081 -0.584305 -0.789912
0.000000 -0.000001 -1.279736 0.186081 -0.584305 -0.789912
0.375840 -0.375842 -0.924741 0.186081 -0.584305 -0.789912
0.769432 -1.626843 0.104910 0.186081 -0.584305 -0.789912
1.070615 1.445976 0.124251 0.365162 0.526194 -0.767969
1.207009 1.333770 0.112225 0.365162 0.526194 -0.767969
0.923894 1.544263 0.121830 0.365162 0.526194 -0.767969
1.207009 1.333770 0.112225 0.362330 0.521704 -0.772361
0.375840 0.375843 -0.924741 0.362330 0.521704 -0.772361
0.769434 1.626843 0.104910 0.362330 0.521704 -0.772361
1.207009 1.333770 0.112225 0.365786 0.526995 -0.767123
0.769434 1.626843 0.104910 0.365786 0.526995 -0.767123
0.923894 1.544263 0.121830 0.365786 0.526995 -0.767123
-1.207009 1.333770 0.112225 -0.448258 0.448259 -0.773388
-0.375840 0.375843 -0.924741 -0.448258 0.448259 -0.773388
-1.333768 1.207012 0.112225 -0.448258 0.448259 -0.773388
0.375840 0.375843 -0.924741 0.521704 0.362329 -0.772361
1.333768 1.207012 0.112225 0.521704 0.362329 -0.772361
1.626841 0.769434 0.104910 0.521704 0.362329 -0.772361
1.333768 1.207012 0.112225 0.526194 0.365161 -0.767969
1.445973 1.070618 0.124251 0.526194 0.365161 -0.767969
1.544259 0.923897 0.121830 0.526194 0.365161 -0.767969
1.333768 1.207012 0.112225 0.526996 0.365785 -0.767122
1.544259 0.923897 0.121830 0.526996 0.365785 -0.767122
1.626841 0.769434 0.104910 0.526996 0.365785 -0.767122
0.089633 -1.796604 0.112225 0.112713 -0.625192 -0.772289
0.000000 -0.531522 -0.924741 0.112713 -0.625192 -0.772289
0.606280 -1.694424 0.104910 0.112713 -0.625192 -0.772289
0.438664 -1.745250 0.121830 0.112713 -0.625192 -0.772289
-1.796602 0.089633 0.112225 -0.633933 -0.000001 -0.773388
-0.531520 0.000000 -0.924741 -0.633933 -0.000001 -0.773388
-1.796601 -0.089632 0.112225 -0.633933 -0.000001 -0.773388
1.779496 0.265419 0.124251 0.630321 0.113875 -0.767937
1.796602 0.089633 0.112225 0.630321 0.113875 -0.767937
1.745248 0.438665 0.121830 0.630321 0.113875 -0.767937
1.796602 0.089633 0.112225 0.625106 0.112697 -0.772361
0.531520 0.000000 -0.924741 0.625106 0.112697 -0.772361
1.694420 0.606280 0.104910 0.625106 0.112697 -0.772361
1.796602 0.089633 0.112225 0.631296 0.113996 -0.767118
1.694420 0.606280 0.104910 0.631296 0.113996 -0.767118
1.745248 0.438665 0.121830 0.631296 0.113996 -0.767118
1.544259 -0.923897 0.121830 0.527458 -0.365986 -0.766709
1.445973 -1.070618 0.124251 0.527458 -0.365986 -0.766709
1.626841 -0.769434 0.104910 0.527458 -0.365986 -0.766709
1.445973 -1.070618 0.124251 0.522301 -0.361577 -0.772310
1.333768 -1.207012 0.112225 0.522301 -0.361577 -0.772310
0.375840 -0.375842 -0.924741 0.522301 -0.361577 -0.772310
1.445973 -1.070618 0.124251 0.521506 -0.362770 -0.772289
0.375840 -0.375842 -0.924741 0.521506 -0.362770 -0.772289
1.626841 -0.769434 0.104910 0.521506 -0.362770 -0.772289
0.000000 -0.000001 -1.279736 0.327807 0.524711 -0.785634
0.000000 0.531522 -0.924741 0.327807 0.524711 -0.785634
0.606277 1.694423 0.104910 0.327807 0.524711 -0.785634
0.000000 -0.000001 -1.279736 0.524715 -0.327799 -0.785635
0.531520 0.000000 -0.924741 0.524715 -0.327799 -0.785635
1.694420 -0.606280 0.104910 0.524715 -0.327799 -0.785635
1.532982 0.929675 0.160113 0.750328 0.441908 -0.491592
-0.089633 -1.796604 0.112225 0.000000 -0.633933 -0.773388
0.000000 -0.531522 -0.924741 0.000000 -0.633933 -0.773388
0.089633 -1.796604 0.112225 0.000000 -0.633933 -0.773388
0.000000 -0.531522 -0.924741 -0.112713 -0.625192 -0.772289
-0.089633 -1.796604 0.112225 -0.112713 -0.625192 -0.772289
-0.438664 -1.745250 0.121830 -0.112713 -0.625192 -0.772289
-0.606280 -1.694424 0.104910 -0.112713 -0.625192 -0.772289
-1.445973 1.070618 0.124251 -0.526194 0.365161 -0.767969
-1.333768 1.207012 0.112225 -0.526194 0.365161 -0.767969
-1.544259 0.923897 0.121830 -0.526194 0.365161 -0.767969
-1.333768 1.207012 0.112225 -0.521704 0.362329 -0.772361
-0.375840 0.375843 -0.924741 -0.521704 0.362329 -0.772361
-1.626841 0.769434 0.104910 -0.521704 0.362329 -0.772361
-1.333768 1.207012 0.112225 -0.526995 0.365785 -0.767122
-1.626841 0.769434 0.104910 -0.526995 0.365785 -0.767122
-1.544259 0.923897 0.121830 -0.526995 0.365785 -0.767122
-1.333768 -1.207012 0.112225 -0.448258 -0.448258 -0.773388
-0.375840 -0.375842 -0.924741 -0.448258 -0.448258 -0.773388
-1.207009 -1.333770 0.112225 -0.448258 -0.448258 -0.773388
-0.438664 1.745251 0.121830 -0.114171 0.631742 -0.766725
-0.265418 1.779499 0.124251 -0.114171 0.631742 -0.766725
-0.606277 1.694423 0.104910 -0.114171 0.631742 -0.766725
-0.265418 1.779499 0.124251 -0.113655 0.624996 -0.772310
-0.089635 1.796603 0.112225 -0.113655 0.624996 -0.772310
0.000000 0.531522 -0.924741 -0.113655 0.624996 -0.772310
-0.265418 1.779499 0.124251 -0.112242 0.625278 -0.772288
0.000000 0.531522 -0.924741 -0.112242 0.625278 -0.772288
-0.606277 1.694423 0.104910 -0.112242 0.625278 -0.772288
1.694420 0.606280 0.104910 0.584306 0.186079 -0.789912
0.000000 -0.000001 -1.279736 0.584306 0.186079 -0.789912
0.375840 0.375843 -0.924741 0.584306 0.186079 -0.789912
1.626841 0.769434 0.104910 0.584306 0.186079 -0.789912
0.000000 -0.000001 -1.279736 -0.139238 0.602819 -0.785635
-0.375840 0.375843 -0.924741 -0.139238 0.602819 -0.785635
-0.769434 1.626843 0.104910 -0.139238 0.602819 -0.785635
-0.375840 0.375843 -0.924741 -0.362330 0.521704 -0.772361
-1.207009 1.333770 0.112225 -0.362330 0.521704 -0.772361
-0.769434 1.626843 0.104910 -0.362330 0.521704 -0.772361
-1.207009 1.333770 0.112225 -0.365162 0.526194 -0.767969
-1.070615 1.445976 0.124251 -0.365162 0.526194 -0.767969
-0.923894 1.544263 0.121830 -0.365162 0.526194 -0.767969
-1.207009 1.333770 0.112225 -0.365786 0.526995 -0.767122
-0.923894 1.544263 0.121830 -0.365786 0.526995 -0.767122
-0.769434 1.626843 0.104910 -0.365786 0.526995 -0.767122
1.333768 1.207012 0.112225 0.448258 0.448259 -0.773388
0.375840 0.375843 -0.924741 0.448258 0.448259 -0.773388
1.207009 1.333770 0.112225 0.448258 0.448259 -0.773388
-1.796602 0.089633 0.112225 -0.625185 0.112714 -0.772295
-1.779496 0.265419 0.124251 -0.625185 0.112714 -0.772295
-1.694420 0.606280 0.104910 -0.625185 0.112714 -0.772295
-0.531520 0.000000 -0.924741 -0.625185 0.112714 -0.772295
0.089635 1.796603 0.112225 0.113655 0.624996 -0.772309
0.265418 1.779499 0.124251 0.113655 0.624996 -0.772309
0.000000 0.531522 -0.924741 0.113655 0.624996 -0.772309
0.265418 1.779499 0.124251 0.114171 0.631742 -0.766725
0.438664 1.745251 0.121830 0.114171 0.631742 -0.766725
0.606277 1.694423 0.104910 0.114171 0.631742 -0.766725
0.265418 1.779499 0.124251 0.112242 0.625279 -0.772288
0.606277 1.694423 0.104910 0.112242 0.625279 -0.772288
0.000000 0.531522 -0.924741 0.112242 0.625279 -0.772288
0.089635 1.796603 0.112225 0.000000 0.633933 -0.773388
0.000000 0.531522 -0.924741 0.000000 0.633933 -0.773388
-0.089635 1.796603 0.112225 0.000000 0.633933 -0.773388
1.207009 -1.333770 0.112225 0.361577 -0.522302 -0.772310
1.070615 -1.445976 0.124251 0.361577 -0.522302 -0.772310
0.375840 -0.375842 -0.924741 0.361577 -0.522302 -0.772310
1.070615 -1.445976 0.124251 0.365987 -0.527458 -0.766708
0.923894 -1.544262 0.121830 0.365987 -0.527458 -0.766708
0.769432 -1.626843 0.104910 0.365987 -0.527458 -0.766708
1.070615 -1.445976 0.124251 0.362771 -0.521505 -0.772289
0.769432 -1.626843 0.104910 0.362771 -0.521505 -0.772289
0.375840 -0.375842 -0.924741 0.362771 -0.521505 -0.772289
0.089633 -1.796604 0.112225 0.145298 -0.988056 -0.051313
0.438664 -1.745250 0.121830 0.145298 -0.988056 -0.051313
0.441170 -1.747396 0.160113 0.145298 -0.988056 -0.051313
0.091957 -1.798223 0.160113 0.145298 -0.988056 -0.051313
-1.626841 0.769434 0.104910 -0.544746 0.281586 -0.789912
0.000000 -0.000001 -1.279736 -0.544746 0.281586 -0.789912
-0.531520 0.000000 -0.924741 -0.544746 0.281586 -0.789912
-1.694420 0.606280 0.104910 -0.544746 0.281586 -0.789912
-1.745247 -0.438664 0.121830 -0.631768 -0.114180 -0.766702
-1.779496 -0.265418 0.124251 -0.631768 -0.114180 -0.766702
-1.694420 -0.606280 0.104910 -0.631768 -0.114180 -0.766702
-1.779496 -0.265418 0.124251 -0.624996 -0.113655 -0.772310
-1.796601 -0.089632 0.112225 -0.624996 -0.113655 -0.772310
-0.531520 0.000000 -0.924741 -0.624996 -0.113655 -0.772310
-1.779496 -0.265418 0.124251 -0.625278 -0.112243 -0.772288
-0.531520 0.000000 -0.924741 -0.625278 -0.112243 -0.772288
-1.694420 -0.606280 0.104910 -0.625278 -0.112243 -0.772288
1.796601 -0.089632 0.112225 0.633933 -0.000001 -0.773388
0.531520 0.000000 -0.924741 0.633933 -0.000001 -0.773388
1.796602 0.089633 0.112225 0.633933 -0.000001 -0.773388
0.531520 0.000000 -0.924741 0.625106 -0.112697 -0.772361
1.796601 -0.089632 0.112225 0.625106 -0.112697 -0.772361
1.694420 -0.606280 0.104910 0.625106 -0.112697 -0.772361
1.796601 -0.089632 0.112225 0.630309 -0.113874 -0.767948
1.779496 -0.265418 0.124251 0.630309 -0.113874 -0.767948
1.745247 -0.438664 0.121830 0.630309 -0.113874 -0.767948
1.796601 -0.089632 0.112225 0.631302 -0.113997 -0.767113
1.745247 -0.438664 0.121830 0.631302 -0.113997 -0.767113
1.694420 -0.606280 0.104910 0.631302 -0.113997 -0.767113
-1.333768 -1.207012 0.112225 -0.521771 -0.362373 -0.772296
-1.445973 -1.070618 0.124251 -0.521771 -0.362373 -0.772296
-1.626841 -0.769434 0.104910 -0.521771 -0.362373 -0.772296
-0.375840 -0.375842 -0.924741 -0.521771 -0.362373 -0.772296
1.207009 -1.333770 0.112225 0.448258 -0.448258 -0.773388
0.375840 -0.375842 -0.924741 0.448258 -0.448258 -0.773388
1.333768 -1.207012 0.112225 0.448258 -0.448258 -0.773388
-0.923894 -1.544262 0.121830 -0.365987 -0.527458 -0.766708
-1.070615 -1.445976 0.124251 -0.365987 -0.527458 -0.766708
-0.769432 -1.626843 0.104910 -0.365987 -0.527458 -0.766708
-1.070615 -1.445976 0.124251 -0.361577 -0.522302 -0.772310
-1.207009 -1.333770 0.112225 -0.361577 -0.522302 -0.772310
-0.375840 -0.375842 -0.924741 -0.361577 -0.522302 -0.772310
-1.070615 -1.445976 0.124251 -0.362771 -0.521505 -0.772289
-0.375840 -0.375842 -0.924741 -0.362771 -0.521505 -0.772289
-0.769432 -1.626843 0.104910 -0.362771 -0.521505 -0.772289
-0.769432 -1.626843 0.104910 -0.281590 -0.544744 -0.789912
0.000000 -0.000001 -1.279736 -0.281590 -0.544744 -0.789912
0.000000 -0.531522 -0.924741 -0.281590 -0.544744 -0.789912
-0.606280 -1.694424 0.104910 -0.281590 -0.544744 -0.789912
0.000000 -0.000001 -1.279736 -0.602817 0.139244 -0.785635
-1.626841 0.769434 0.104910 -0.602817 0.139244 -0.785635
-0.375840 0.375843 -0.924741 -0.602817 0.139244 -0.785635
0.000000 -0.000001 -1.279736 -0.524715 -0.327799 -0.785635
-1.694420 -0.606280 0.104910 -0.524715 -0.327799 -0.785635
-0.531520 0.000000 -0.924741 -0.524715 -0.327799 -0.785635
0.000000 -0.000001 -1.279736 0.327802 -0.524713 -0.785635
0.606280 -1.694424 0.104910 0.327802 -0.524713 -0.785635
0.000000 -0.531522 -0.924741 0.327802 -0.524713 -0.785635
0.000000 -0.000001 -1.279736 0.602817 -0.139245 -0.785635
1.626841 -0.769434 0.104910 0.602817 -0.139245 -0.785635
0.375840 -0.375842 -0.924741 0.602817 -0.139245 -0.785635
0.000000 -0.000001 -1.279736 0.524714 0.327801 -0.785634
1.694420 0.606280 0.104910 0.524714 0.327801 -0.785634
0.531520 0.000000 -0.924741 0.524714 0.327801 -0.785634
-0.438664 -1.745250 0.121830 -0.145298 -0.988056 -0.051313
-0.089633 -1.796604 0.112225 -0.145298 -0.988056 -0.051313
-0.091957 -1.798223 0.160113 -0.145298 -0.988056 -0.051313
-0.441170 -1.747396 0.160113 -0.145298 -0.988056 -0.051313
-1.333429 -1.208559 0.163177 -0.248887 -0.227316 0.941479
-0.579855 -1.201776 0.364028 -0.248887 -0.227316 0.941479
-1.264802 -0.451833 0.364028 -0.248887 -0.227316 0.941479
-0.088298 -1.797457 0.163177 -0.014972 -0.330541 0.943673
0.434766 -1.247735 0.364028 -0.014972 -0.330541 0.943673
-0.579855 -1.201776 0.364028 -0.014972 -0.330541 0.943673
1.208557 -1.333431 0.163177 0.218955 -0.239732 0.945826
1.184709 -0.562787 0.364028 0.218955 -0.239732 0.945826
0.434766 -1.247735 0.364028 0.218955 -0.239732 0.945826
1.797457 -0.088299 0.163177 0.321615 -0.014568 0.946758
1.230667 0.451833 0.364028 0.321615 -0.014568 0.946758
1.184709 -0.562787 0.364028 0.321615 -0.014568 0.946758
1.333430 1.208558 0.163177 0.234543 0.219503 0.947000
0.507310 1.224755 0.364028 0.234543 0.219503 0.947000
1.230667 0.451833 0.364028 0.234543 0.219503 0.947000
-1.779496 0.265419 0.124251 -0.908349 0.206066 -0.363922
-1.755930 0.432634 0.160113 -0.908349 0.206066 -0.363922
-1.694420 0.606280 0.104910 -0.908349 0.206066 -0.363922
-1.208558 1.333429 0.163177 -0.230974 0.248268 0.940752
-1.218843 0.562788 0.364028 -0.230974 0.248268 0.940752
-0.507310 1.224755 0.364028 -0.230974 0.248268 0.940752
-1.797457 0.088297 0.163177 -0.339108 0.015360 0.940622
-1.264802 -0.451833 0.364028 -0.339108 0.015360 0.940622
-1.218843 0.562788 0.364028 -0.339108 0.015360 0.940622
-0.507310 1.224755 0.364028 -0.208100 0.347191 0.914414
-0.606281 1.694423 0.163177 -0.208100 0.347191 0.914414
-1.208558 1.333429 0.163177 -0.208100 0.347191 0.914414
-1.218843 0.562788 0.364028 -0.326882 0.242430 0.913442
-1.208558 1.333429 0.163177 -0.326882 0.242430 0.913442
-1.626844 0.769432 0.163177 -0.326882 0.242430 0.913442
-1.218843 0.562788 0.364028 -0.398327 0.099774 0.911801
-1.626844 0.769432 0.163177 -0.398327 0.099774 0.911801
-1.797457 0.088297 0.163177 -0.398327 0.099774 0.911801
-1.264802 -0.451833 0.364028 -0.404942 -0.060069 0.912367
-1.797457 0.088297 0.163177 -0.404942 -0.060069 0.912367
-1.694423 -0.606281 0.163177 -0.404942 -0.060069 0.912367
-1.264802 -0.451833 0.364028 -0.350956 -0.210357 0.912458
-1.694423 -0.606281 0.163177 -0.350956 -0.210357 0.912458
-1.333429 -1.208559 0.163177 -0.350956 -0.210357 0.912458
-0.579855 -1.201776 0.364028 -0.240850 -0.324752 0.914619
-1.333429 -1.208559 0.163177 -0.240850 -0.324752 0.914619
-0.769432 -1.626844 0.163177 -0.240850 -0.324752 0.914619
-0.437268 -1.745693 0.163177 0.000000 0.000000 1.000000
0.434766 -1.247735 0.364028 0.057971 -0.390804 0.918647
-0.088298 -1.797457 0.163177 0.057971 -0.390804 0.918647
0.606280 -1.694424 0.163177 0.057971 -0.390804 0.918647
0.434766 -1.247735 0.364028 0.201548 -0.336261 0.919950
0.606280 -1.694424 0.163177 0.201548 -0.336261 0.919950
1.208557 -1.333431 0.163177 0.201548 -0.336261 0.919950
1.184709 -0.562787 0.364028 0.311023 -0.230669 0.921985
1.208557 -1.333431 0.163177 0.311023 -0.230669 0.921985
1.626843 -0.769434 0.163177 0.311023 -0.230669 0.921985
1.184709 -0.562787 0.364028 0.375041 -0.093942 0.922236
1.626843 -0.769434 0.163177 0.375041 -0.093942 0.922236
1.797457 -0.088299 0.163177 0.375041 -0.093942 0.922236
1.230667 0.451833 0.364028 0.380884 0.056500 0.922895
1.797457 -0.088299 0.163177 0.380884 0.056500 0.922895
1.694424 0.606280 0.163177 0.380884 0.056500 0.922895
1.230667 0.451833 0.364028 0.332753 0.199446 0.921682
1.694424 0.606280 0.163177 0.332753 0.199446 0.921682
1.333430 1.208558 0.163177 0.332753 0.199446 0.921682
0.507310 1.224755 0.364028 0.230308 0.310537 0.922239
1.333430 1.208558 0.163177 0.230308 0.310537 0.922239
0.769434 1.626843 0.163177 0.230308 0.310537 0.922239
0.507310 1.224755 0.364028 0.098353 0.392650 0.914414
0.769434 1.626843 0.163177 0.098353 0.392650 0.914414
0.088298 1.797457 0.163177 0.098353 0.392650 0.914414
-1.070615 -1.445976 0.124251 -0.551037 -0.818592 -0.162069
-0.923894 -1.544262 0.121830 -0.551037 -0.818592 -0.162069
-1.076935 -1.448822 0.160113 -0.551037 -0.818592 -0.162069
-1.207009 -1.333770 0.112225 -0.637439 -0.765022 0.091725
-1.070615 -1.445976 0.124251 -0.637439 -0.765022 0.091725
-1.204013 -1.330525 0.160113 -0.637439 -0.765022 0.091725
-1.339057 -1.212548 0.160113 -0.649678 -0.743666 -0.157734
-1.333768 -1.207012 0.112225 -0.649678 -0.743666 -0.157734
-1.204013 -1.330525 0.160113 -0.649678 -0.743666 -0.157734
-1.701799 -0.611079 0.165007 -0.876153 -0.459925 -0.144307
-1.694420 -0.606280 0.104910 -0.876153 -0.459925 -0.144307
-1.620883 -0.765223 0.165007 -0.876153 -0.459925 -0.144307
-1.445973 1.070618 0.124251 -0.808222 0.545092 -0.222826
-1.544259 0.923897 0.121830 -0.808222 0.545092 -0.222826
-1.457355 1.068402 0.160113 -0.808222 0.545092 -0.222826
-1.221081 1.330524 0.160113 -0.748015 0.639803 -0.176427
-1.207009 1.333770 0.112225 -0.748015 0.639803 -0.176427
-1.321991 1.212547 0.160113 -0.748015 0.639803 -0.176427
-1.333768 1.207012 0.112225 -0.762295 0.637142 0.113825
-1.445973 1.070618 0.124251 -0.762295 0.637142 0.113825
-1.321991 1.212547 0.160113 -0.762295 0.637142 0.113825
0.769434 1.626843 0.104910 0.233532 0.563810 -0.792201
0.000000 -0.000001 -1.279736 0.233532 0.563810 -0.792201
0.606277 1.694423 0.104910 0.233532 0.563810 -0.792201
-0.265418 1.779499 0.124251 -0.192315 0.978296 -0.077151
-0.438664 1.745251 0.121830 -0.192315 0.978296 -0.077151
-0.277531 1.779946 0.160113 -0.192315 0.978296 -0.077151
0.438664 1.745251 0.121830 0.194151 0.980790 0.018895
0.265418 1.779499 0.124251 0.194151 0.980790 0.018895
0.424102 1.747396 0.160113 0.194151 0.980790 0.018895
0.619612 1.693266 0.165007 0.267555 0.962677 -0.040824
0.606277 1.694423 0.104910 0.267555 0.962677 -0.040824
0.424102 1.747396 0.160113 0.267555 0.962677 -0.040824
1.207009 1.333770 0.112225 0.622949 0.771255 -0.130765
1.070615 1.445976 0.124251 0.622949 0.771255 -0.130765
1.221081 1.330524 0.160113 0.622949 0.771255 -0.130765
1.544259 0.923897 0.121830 0.821416 0.547625 0.159322
1.445973 1.070618 0.124251 0.821416 0.547625 0.159322
1.532982 0.929675 0.160113 0.821416 0.547625 0.159322
1.445973 1.070618 0.124251 0.764660 0.610982 -0.204928
1.333768 1.207012 0.112225 0.764660 0.610982 -0.204928
1.457355 1.068402 0.160113 0.764660 0.610982 -0.204928
1.637951 0.765221 0.165007 0.838645 0.531796 -0.117759
1.626841 0.769434 0.104910 0.838645 0.531796 -0.117759
1.532982 0.929675 0.160113 0.838645 0.531796 -0.117759
1.701799 -0.611079 0.165007 0.969342 -0.205048 -0.135395
1.694420 -0.606280 0.104910 0.969342 -0.205048 -0.135395
1.738862 -0.432636 0.160113 0.969342 -0.205048 -0.135395
0.773755 -1.629418 0.165007 0.509047 -0.857608 -0.073350
0.769432 -1.626843 0.104910 0.509047 -0.857608 -0.073350
0.921141 -1.541515 0.160113 0.509047 -0.857608 -0.073350
-0.773755 -1.629418 0.165007 -0.348675 -0.934978 -0.065129
-0.769432 -1.626843 0.104910 -0.348675 -0.934978 -0.065129
-0.602543 -1.693266 0.165007 -0.348675 -0.934978 -0.065129
0.438664 -1.745250 0.121830 0.282753 -0.956478 -0.072117
0.606280 -1.694424 0.104910 0.282753 -0.956478 -0.072117
0.441170 -1.747396 0.160113 0.282753 -0.956478 -0.072117
1.070615 -1.445976 0.124251 0.617120 -0.768346 -0.169728
1.207009 -1.333770 0.112225 0.617120 -0.768346 -0.169728
1.076935 -1.448822 0.160113 0.617120 -0.768346 -0.169728
0.923894 -1.544262 0.121830 0.552681 -0.827479 0.099111
1.070615 -1.445976 0.124251 0.552681 -0.827479 0.099111
0.921141 -1.541515 0.160113 0.552681 -0.827479 0.099111
1.333768 -1.207012 0.112225 0.769464 -0.619200 -0.156576
1.445973 -1.070618 0.124251 0.769464 -0.619200 -0.156576
1.339057 -1.212548 0.160113 0.769464 -0.619200 -0.156576
1.544259 -0.923897 0.121830 0.854438 -0.478888 -0.201498
1.626841 -0.769434 0.104910 0.854438 -0.478888 -0.201498
1.550048 -0.929677 0.160113 0.854438 -0.478888 -0.201498
1.779496 -0.265418 0.124251 0.961398 -0.110783 -0.251873
1.796601 -0.089632 0.112225 0.961398 -0.110783 -0.251873
1.788479 -0.268998 0.160113 0.961398 -0.110783 -0.251873
1.745247 -0.438664 0.121830 0.962460 -0.192935 0.190909
1.779496 -0.265418 0.124251 0.962460 -0.192935 0.190909
1.738862 -0.432636 0.160113 0.962460 -0.192935 0.190909
1.796602 0.089633 0.112225 0.975267 0.108092 -0.192795
1.779496 0.265419 0.124251 0.975267 0.108092 -0.192795
1.806757 0.083421 0.160113 0.975267 0.108092 -0.192795
1.789690 -0.083423 0.160113 0.982804 -0.100535 0.154880
1.796601 -0.089632 0.112225 0.982804 -0.100535 0.154880
1.806757 0.083421 0.160113 0.982804 -0.100535 0.154880
1.745248 0.438665 0.121830 0.939328 0.262559 -0.220739
1.694420 0.606280 0.104910 0.939328 0.262559 -0.220739
1.755930 0.432634 0.160113 0.939328 0.262559 -0.220739
0.923894 1.544263 0.121830 0.478164 0.870534 -0.116321
0.769434 1.626843 0.104910 0.478164 0.870534 -0.116321
0.938210 1.541515 0.160113 0.478164 0.870534 -0.116321
-0.619612 1.693266 0.165007 -0.421008 0.903867 -0.076006
-0.606277 1.694423 0.104910 -0.421008 0.903867 -0.076006
-0.756689 1.629417 0.165007 -0.421008 0.903867 -0.076006
-0.923894 1.544263 0.121830 -0.552137 0.820590 -0.147569
-1.070615 1.445976 0.124251 -0.552137 0.820590 -0.147569
-0.938210 1.541515 0.160113 -0.552137 0.820590 -0.147569
-1.637951 0.765221 0.165007 -0.945389 0.286916 -0.154657
-1.626841 0.769434 0.104910 -0.945389 0.286916 -0.154657
-1.684732 0.611077 0.165007 -0.945389 0.286916 -0.154657
-1.806757 0.083421 0.160113 -0.970719 -0.099299 -0.218732
-1.796602 0.089633 0.112225 -0.970719 -0.099299 -0.218732
-1.789690 -0.083423 0.160113 -0.970719 -0.099299 -0.218732
-1.779496 -0.265418 0.124251 -0.948979 -0.184024 -0.256073
-1.745247 -0.438664 0.121830 -0.948979 -0.184024 -0.256073
-1.788479 -0.268998 0.160113 -0.948979 -0.184024 -0.256073
-0.375840 -0.375842 -0.924741 -0.139242 -0.602818 -0.785635
0.000000 -0.000001 -1.279736 -0.139242 -0.602818 -0.785635
-0.769432 -1.626843 0.104910 -0.139242 -0.602818 -0.785635
0.375840 0.375843 -0.924741 0.139238 0.602819 -0.785635
0.000000 -0.000001 -1.279736 0.139238 0.602819 -0.785635
0.769434 1.626843 0.104910 0.139238 0.602819 -0.785635
0.000000 0.531522 -0.924741 -0.327807 0.524711 -0.785634
0.000000 -0.000001 -1.279736 -0.327807 0.524711 -0.785634
-0.606277 1.694423 0.104910 -0.327807 0.524711 -0.785634
0.074888 1.798223 0.160113 0.000000 0.999428 -0.033808
0.089635 1.796603 0.112225 0.000000 0.999428 -0.033808
-0.089635 1.796603 0.112225 0.000000 0.999428 -0.033808
-0.074888 1.798223 0.160113 0.000000 0.999428 -0.033808
3 0 1 2
4 3 4 5 6
3 0 2 7
3 2 8 9
3 2 9 7
3 10 11 12
3 13 14 15
3 16 17 18
3 19 20 21
3 22 23 24
3 25 26 27
3 28 29 30
3 31 32 33
3 34 35 36
3 37 38 39
3 40 41 42
3 43 44 45
3 46 47 48
3 49 50 51
3 52 53 54
3 55 56 57
3 58 59 60
3 61 58 62
3 63 61 64
3 65 63 66
3 67 65 68
3 69 67 70
3 71 69 72
3 73 74 75
3 76 77 78
3 79 76 80
3 81 79 82
3 83 81 84
3 85 83 86
3 87 85 88
3 89 87 90
3 59 89 91
4 92 93 94 95
4 96 97 98 99
3 100 101 102
3 103 101 100
3 100 102 104
3 105 102 106
3 104 102 105
4 107 108 109 110
3 111 106 112
3 113 114 115
3 116 112 117
3 116 117 118
3 119 117 120
3 118 117 119
3 119 120 121
3 122 120 123
3 121 120 122
4 124 125 126 127
3 128 123 129
3 130 131 132
4 133 134 135 136
3 137 129 138
3 137 138 139
3 140 138 141
3 139 138 140
3 140 141 142
3 143 141 132
3 142 141 143
3 143 132 144
3 145 146 147
3 144 132 148
3 149 130 150
3 131 130 149
3 149 150 151
3 152 150 153
3 151 150 152
3 152 153 154
3 155 153 156
3 154 153 155
3 155 156 157
3 158 156 159
3 157 156 158
3 158 159 160
3 161 159 162
3 160 159 161
4 163 147 164 165
3 166 162 167
4 123 128 168 122
3 169 167 170
4 171 172 173 174
3 175 170 176
4 177 178 179 180
3 181 176 182
3 183 184 185
3 186 182 187
4 188 189 190 191
3 192 187 193
4 176 181 194 175
3 174 193 171
4 193 174 195 192
3 172 171 196
4 197 198 199 200
3 201 196 202
4 203 204 205 206
3 165 202 163
4 207 208 209 210
3 147 163 145
4 211 212 213 214
3 146 145 215
3 146 215 216
3 217 215 218
3 216 215 217
3 217 218 219
3 220 218 221
3 219 218 220
3 220 221 222
3 223 221 224
3 222 221 223
4 224 225 226 223
3 227 228 229
3 230 231 232
3 233 234 235
4 236 237 238 239
3 240 241 242
4 243 244 245 246
3 247 248 249
3 250 251 252
3 253 254 255
3 256 257 258
3 259 260 261
3 262 263 264
3 265 266 267
3 167 169 166
4 268 269 2 1
3 270 271 272
4 182 186 273 181
3 274 275 276
3 277 278 279
3 280 281 282
3 283 284 285
3 286 287 288
4 289 290 291 292
3 293 294 295
3 296 297 298
3 299 300 301
3 302 303 304
3 305 306 307
3 308 309 310
4 129 137 311 128
4 312 313 314 315
4 316 317 318 319
4 106 111 320 105
3 321 322 323
3 192 324 186
3 325 326 327
4 112 116 328 111
3 329 330 331
3 332 333 334
4 196 201 335 172
3 336 337 338
3 339 340 341
3 342 343 344
3 345 346 347
4 348 349 350 351
3 352 353 354
4 355 356 357 358
3 359 360 361
3 362 363 364
4 365 366 367 368
3 131 148 132
3 369 370 371
4 225 224 101 103
3 372 373 374
3 202 165 201
3 375 376 377
4 378 379 380 381
3 382 383 384
3 385 386 387
3 388 389 390
3 391 392 393
3 166 394 161
3 395 396 397
3 398 399 400
4 401 402 403 404
3 405 406 407
3 408 409 410
3 411 412 413
3 414 415 416
3 417 418 419
3 420 421 422
3 423 424 425
4 426 427 428 429
3 430 431 432
3 433 434 435
3 436 437 438
3 439 440 441
3 442 443 444
3 445 446 447
3 448 449 450
3 451 452 453
3 454 455 456
4 170 175 457 169
3 458 459 460
4 461 462 463 464
3 465 466 467
3 468 469 470
3 471 472 473
3 474 475 476
3 477 478 479
3 480 481 482
3 483 484 485
4 486 487 488 489
3 490 491 492
3 493 494 495
3 496 497 498
3 499 500 501
3 502 503 504
4 505 506 507 508
3 509 510 511
3 512 513 514
3 515 516 517
3 518 519 520
3 521 522 523
3 524 525 526
3 527 528 529
4 530 531 532 533
4 534 535 536 537
3 538 539 540
3 541 542 543
3 544 545 546
3 547 548 549
3 550 551 552
3 553 554 555
3 556 557 558
4 559 560 561 562
3 563 564 565
3 566 567 568
3 569 570 571
3 572 573 574
4 575 576 577 578
3 579 580 581
3 582 583 584
3 585 586 587
3 588 589 590
3 591 592 593
4 594 595 596 597
3 0 1 2
3 598 599 600
3 601 602 603
3 604 605 606
3 607 608 609
3 610 611 612
3 613 614 615
3 616 617 618
3 619 620 621
3 622 623 624
3 625 626 627
3 628 629 630
3 631 632 633
3 634 635 636
3 637 638 639
3 640 77 71
3 641 642 643
3 644 645 646
3 647 648 649
3 650 651 652
3 653 654 655
3 656 657 658
3 659 660 661
3 662 663 664
3 665 666 667
3 668 669 670
3 671 672 673
3 674 675 676
3 677 678 679
3 680 681 682
3 683 684 685
3 686 687 688
3 689 690 691
3 692 693 694
3 695 696 697
3 698 699 700
3 701 702 703
3 704 705 706
3 707 708 709
3 710 711 712
3 713 714 715
3 716 717 718
3 719 720 721
3 187 192 186
3 722 723 724
3 725 726 727
3 728 729 730
3 731 732 733
3 734 735 736
3 737 738 739
3 740 741 742
3 743 744 745
3 746 747 748
3 749 750 751
3 752 753 754
3 755 756 757
3 758 759 760
3 761 762 763
3 162 166 161
3 764 765 766
3 767 768 769
3 770 771 772
3 773 774 775
4 776 777 778 779
