ply
format ascii 1.0
comment Created by Blender 2.70 (sub 0) - www.blender.org, source file: 'diamond.blend'
element vertex 185
property float x
property float y
property float z
element face 366
property list uchar uint vertex_indices
end_header
-0.040049 -0.884166 -1.712195
0.040051 0.884167 -1.712195
0.596882 -0.653519 -1.712195
-0.653518 -0.596880 -1.712195
-0.884166 0.040050 -1.712195
-0.596880 0.653520 -1.712195
0.884168 -0.040049 -1.712195
0.653521 0.596881 -1.712195
-1.247733 -0.451832 -1.888978
-0.451832 1.247735 -1.888978
1.247736 0.451833 -1.888978
0.451834 -1.247734 -1.888978
-0.562787 -1.201775 -1.888978
-1.201774 0.562788 -1.888978
0.562789 1.201776 -1.888978
1.201777 -0.562787 -1.888978
-0.615875 1.692108 -2.083702
-0.273927 1.779746 -2.083702
0.078548 1.798990 -2.083702
-1.216536 1.327618 -2.083702
-0.934155 1.539443 -2.083702
-1.631990 0.761010 -2.083702
-1.452167 1.064774 -2.083702
-1.798988 0.078546 -2.083702
-1.749098 0.428002 -2.083702
-1.692106 -0.615876 -2.083702
-1.779745 -0.273929 -2.083702
-1.327617 -1.216537 -2.083702
-1.539441 -0.934156 -2.083702
-0.761009 -1.631991 -2.083702
-1.064772 -1.452167 -2.083702
-0.078548 -1.798989 -2.083702
0.615875 -1.692108 -2.083702
0.273927 -1.779746 -2.083702
1.216536 -1.327619 -2.083702
0.934155 -1.539443 -2.083702
1.631991 -0.761012 -2.083702
1.452167 -1.064775 -2.083702
1.798990 -0.078547 -2.083702
1.749099 -0.428004 -2.083702
1.692109 0.615875 -2.083702
1.779747 0.273928 -2.083702
1.327620 1.216537 -2.083702
1.539445 0.934155 -2.083702
0.761012 1.631991 -2.083702
1.064775 1.452167 -2.083702
0.428004 1.749099 -2.083702
-0.916236 -1.547729 -2.095956
-0.761009 -1.631991 -2.086169
-1.064772 -1.452167 -2.095956
-1.200578 -1.339241 -2.095956
-1.327617 -1.216537 -2.095956
-1.438782 -1.079287 -2.095956
-1.539441 -0.934156 -2.095956
-1.621695 -0.777856 -2.095956
-1.692106 -0.615876 -2.086169
-1.742286 -0.446533 -2.095956
-1.779745 -0.273929 -2.095956
-1.795923 -0.098050 -2.095956
-1.798988 0.078546 -2.095956
-1.780544 0.254202 -2.095956
-1.749098 0.428002 -2.095956
-1.696739 0.596685 -2.095956
-1.631990 0.761010 -2.086169
-1.547729 0.916237 -2.095956
-1.452167 1.064774 -2.095956
-1.339241 1.200579 -2.095956
-1.216536 1.327618 -2.095956
-1.079286 1.438784 -2.095956
-0.934155 1.539443 -2.095956
-0.777855 1.621696 -2.095956
-0.615875 1.692108 -2.086169
-0.446531 1.742288 -2.095956
-0.273927 1.779746 -2.095956
-0.098048 1.795925 -2.095956
0.078548 1.798990 -2.095956
0.254204 1.780545 -2.095956
0.428004 1.749099 -2.095956
0.596686 1.696740 -2.095956
0.761012 1.631991 -2.086169
0.916239 1.547730 -2.095956
1.064775 1.452167 -2.095956
1.200581 1.339241 -2.095956
1.327620 1.216537 -2.095956
1.438785 1.079286 -2.095956
1.539445 0.934155 -2.095956
1.621697 0.777855 -2.095956
1.692109 0.615875 -2.086169
1.742289 0.446532 -2.095956
1.779747 0.273928 -2.095956
1.795926 0.098048 -2.095956
1.798990 -0.078547 -2.095956
1.780545 -0.254203 -2.095956
1.749099 -0.428004 -2.095956
1.696740 -0.596686 -2.095956
1.631991 -0.761012 -2.086169
1.547729 -0.916239 -2.095956
1.452167 -1.064775 -2.095956
1.339241 -1.200580 -2.095956
1.216536 -1.327619 -2.095956
1.079286 -1.438784 -2.095956
0.934155 -1.539443 -2.095956
0.777855 -1.621696 -2.095956
0.615875 -1.692108 -2.086169
0.446531 -1.742288 -2.095956
0.273927 -1.779746 -2.095956
0.098047 -1.795924 -2.095956
-0.078548 -1.798989 -2.095956
-0.254204 -1.780544 -2.095956
-0.428004 -1.749098 -2.083702
-0.428004 -1.749098 -2.095956
-0.596685 -1.696739 -2.095956
-0.913633 -1.549081 -2.136905
-0.761009 -1.631991 -2.159286
-1.061944 -1.453169 -2.125445
-1.197483 -1.339922 -2.132064
-1.327615 -1.216538 -2.149498
-1.621692 -0.777857 -2.136905
-1.692104 -0.615877 -2.159286
-1.539439 -0.934157 -2.125445
-1.549079 0.913637 -2.136905
-1.631990 0.761010 -2.159286
-1.339920 1.197486 -2.132064
-1.216536 1.327618 -2.149498
-1.453166 1.061948 -2.125445
-0.615875 1.692108 -2.159286
-0.449332 1.741403 -2.136905
-0.276640 1.778454 -2.125445
-0.100723 1.794217 -2.132064
0.078548 1.798990 -2.149498
0.254197 1.780544 -2.132064
0.596679 1.696739 -2.136905
0.761012 1.631991 -2.159286
0.427997 1.749098 -2.125445
1.061944 1.453170 -2.125445
1.197483 1.339923 -2.132064
1.327615 1.216539 -2.149498
1.438780 1.079289 -2.132064
1.539439 0.934158 -2.125445
1.621693 0.777858 -2.136905
1.692104 0.615878 -2.159286
1.696736 -0.596682 -2.136905
1.631990 -0.761009 -2.159286
1.749095 -0.427999 -2.125445
0.777855 -1.621695 -2.136905
0.615880 -1.692109 -2.159286
0.934155 -1.539442 -2.125445
0.100723 -1.794216 -2.132064
-0.078542 -1.798990 -2.149498
0.276640 -1.778453 -2.125445
-0.254196 -1.780543 -2.132064
-0.596679 -1.696738 -2.136905
-0.427996 -1.749097 -2.125445
0.449332 -1.741402 -2.136905
1.216536 -1.327617 -2.149498
1.079286 -1.438783 -2.132064
1.339920 -1.197485 -2.132064
1.453166 -1.061947 -2.125445
1.549079 -0.913636 -2.136905
1.798988 -0.078545 -2.149498
1.780541 -0.254199 -2.132064
1.778451 0.276637 -2.125445
1.794215 0.100720 -2.132064
1.741400 0.449330 -2.136905
0.913634 1.549082 -2.136905
-0.777855 1.621696 -2.136905
-0.934155 1.539443 -2.125445
-1.079286 1.438784 -2.132064
-1.696736 0.596683 -2.136905
-1.749095 0.428000 -2.125445
-1.780541 0.254200 -2.132064
-1.798988 0.078546 -2.149498
-1.794214 -0.100719 -2.132064
-1.778451 -0.276636 -2.125445
-1.741400 -0.449328 -2.136905
-1.438780 -1.079288 -2.132064
-0.359431 0.392251 -3.177747
-0.531520 0.023207 -3.177747
-0.023203 -0.531522 -3.177747
-0.392248 -0.359433 -3.177747
0.392248 0.359434 -3.177747
0.023203 0.531523 -3.177747
0.531520 -0.023205 -3.177747
0.359431 -0.392250 -3.177747
0.000001 -0.000000 -3.532742
3 0 1 2
3 3 4 5
3 1 6 2
3 1 7 6
3 0 3 5
3 0 5 1
3 4 3 8
3 1 5 9
3 6 7 10
3 0 2 11
3 3 0 12
3 5 4 13
3 7 1 14
3 2 6 15
3 8 3 12
3 12 0 11
3 11 2 15
3 15 6 10
3 10 7 14
3 14 1 9
3 9 5 13
3 13 4 8
3 16 17 18
3 19 20 16
3 21 22 19
3 23 24 21
3 25 26 23
3 27 28 25
3 29 30 27
3 29 12 31
3 32 33 31
3 34 35 32
3 36 37 34
3 38 39 36
3 40 41 38
3 42 43 40
3 44 45 42
3 18 46 44
3 30 29 47
3 47 29 48
3 47 49 30
3 50 27 30
3 49 50 30
3 50 51 27
3 52 28 27
3 51 52 27
3 52 53 28
3 54 25 28
3 53 54 28
3 54 55 25
3 56 26 25
3 55 56 25
3 56 57 26
3 58 23 26
3 57 58 26
3 58 59 23
3 60 24 23
3 59 60 23
3 60 61 24
3 62 21 24
3 61 62 24
3 62 63 21
3 64 22 21
3 63 64 21
3 64 65 22
3 66 19 22
3 65 66 22
3 66 67 19
3 68 20 19
3 67 68 19
3 68 69 20
3 70 16 20
3 69 70 20
3 70 71 16
3 72 17 16
3 71 72 16
3 72 73 17
3 74 18 17
3 73 74 17
3 74 75 18
3 76 46 18
3 75 76 18
3 76 77 46
3 78 44 46
3 77 78 46
3 78 79 44
3 80 45 44
3 79 80 44
3 80 81 45
3 82 42 45
3 81 82 45
3 82 83 42
3 84 43 42
3 83 84 42
3 84 85 43
3 86 40 43
3 85 86 43
3 86 87 40
3 88 41 40
3 87 88 40
3 88 89 41
3 90 38 41
3 89 90 41
3 90 91 38
3 92 39 38
3 91 92 38
3 92 93 39
3 94 36 39
3 93 94 39
3 94 95 36
3 96 37 36
3 95 96 36
3 96 97 37
3 98 34 37
3 97 98 37
3 98 99 34
3 100 35 34
3 99 100 34
3 100 101 35
3 102 32 35
3 101 102 35
3 102 103 32
3 104 33 32
3 103 104 32
3 104 105 33
3 106 31 33
3 105 106 33
3 106 107 31
3 108 109 31
3 107 108 31
3 108 110 109
3 111 29 109
3 110 111 109
3 48 29 111
3 49 47 112
3 47 48 113
3 50 49 114
3 50 115 116
3 54 117 118
3 53 119 117
3 65 64 120
3 64 63 121
3 66 122 123
3 66 65 124
3 72 71 125
3 73 72 126
3 74 73 127
3 74 128 129
3 77 76 130
3 76 75 129
3 78 131 132
3 77 133 131
3 82 81 134
3 82 135 136
3 85 84 137
3 84 83 136
3 85 138 139
3 86 139 140
3 94 141 142
3 93 143 141
3 102 144 145
3 101 146 144
3 106 147 148
3 106 105 149
3 110 108 150
3 108 107 148
3 111 151 113
3 110 152 151
3 104 103 145
3 105 104 153
3 100 99 154
3 101 100 155
3 98 156 154
3 98 97 157
3 96 95 142
3 97 96 158
3 92 91 159
3 93 92 160
3 90 89 161
3 90 162 159
3 88 87 140
3 89 88 163
3 81 80 164
3 80 79 132
3 70 165 125
3 69 166 165
3 69 68 167
3 68 67 123
3 62 168 121
3 61 169 168
3 61 60 170
3 60 59 171
3 58 172 171
3 58 57 173
3 56 55 118
3 57 56 174
3 53 52 175
3 52 51 116
3 125 165 176
3 123 176 167
3 166 167 176
3 165 166 176
3 120 124 176
3 124 122 176
3 123 176 122
3 121 120 176
3 118 174 177
3 171 177 172
3 173 172 177
3 174 173 177
3 168 169 177
3 169 170 177
3 171 177 170
3 121 168 177
3 113 151 178
3 148 178 150
3 152 150 178
3 151 152 178
3 153 149 178
3 149 147 178
3 148 178 147
3 145 153 178
3 113 112 179
3 116 179 115
3 114 115 179
3 112 114 179
3 117 119 179
3 119 175 179
3 116 179 175
3 118 117 179
3 140 139 180
3 136 180 137
3 138 137 180
3 139 138 180
3 164 134 180
3 134 135 180
3 136 180 135
3 132 164 180
3 125 126 181
3 129 181 128
3 127 128 181
3 126 127 181
3 131 133 181
3 133 130 181
3 129 181 130
3 132 131 181
3 142 141 182
3 159 182 160
3 143 160 182
3 141 143 182
3 163 161 182
3 161 162 182
3 159 182 162
3 140 163 182
3 142 158 183
3 154 183 156
3 157 156 183
3 158 157 183
3 144 146 183
3 146 155 183
3 154 183 155
3 145 144 183
3 184 176 121
3 184 177 118
3 113 178 184
3 184 178 145
3 184 183 142
3 184 182 140
3 132 181 184
3 125 176 184
3 27 8 12
3 31 12 11
3 34 11 15
3 38 15 10
3 42 10 14
3 18 14 9
3 19 9 13
3 23 13 8
3 9 16 18
3 9 19 16
3 13 21 19
3 13 23 21
3 8 25 23
3 8 27 25
3 12 29 27
3 109 29 31
3 11 32 31
3 11 34 32
3 15 36 34
3 15 38 36
3 10 40 38
3 10 42 40
3 14 44 42
3 14 18 44
3 114 49 112
3 112 47 113
3 115 50 114
3 51 50 116
3 55 54 118
3 54 53 117
3 124 65 120
3 120 64 121
3 67 66 123
3 122 66 124
3 126 72 125
3 127 73 126
3 128 74 127
3 75 74 129
3 133 77 130
3 130 76 129
3 79 78 132
3 78 77 131
3 135 82 134
3 83 82 136
3 138 85 137
3 137 84 136
3 86 85 139
3 87 86 140
3 95 94 142
3 94 93 141
3 103 102 145
3 102 101 144
3 107 106 148
3 147 106 149
3 152 110 150
3 150 108 148
3 48 111 113
3 111 110 151
3 153 104 145
3 149 105 153
3 155 100 154
3 146 101 155
3 99 98 154
3 156 98 157
3 158 96 142
3 157 97 158
3 160 92 159
3 143 93 160
3 162 90 161
3 91 90 159
3 163 88 140
3 161 89 163
3 134 81 164
3 164 80 132
3 71 70 125
3 70 69 165
3 166 69 167
3 167 68 123
3 63 62 121
3 62 61 168
3 169 61 170
3 170 60 171
3 59 58 171
3 172 58 173
3 174 56 118
3 173 57 174
3 119 53 175
3 175 52 116
3 177 184 121
3 179 184 118
3 179 113 184
3 183 184 145
3 182 184 142
3 180 184 140
3 180 132 184
3 181 125 184
