ply
format ascii 1.0
comment Created by Blender 2.70 (sub 0) - www.blender.org, source file: 'diamond.blend'
element vertex 185
property float x
property float y
property float z
element face 367
property list uchar uint vertex_indices
end_header
-0.057117 -0.884166 0.540811
0.022983 0.884167 0.540811
0.579814 -0.653519 0.540811
-0.670587 -0.596880 0.540811
-0.613948 0.653520 0.540811
-0.901234 0.040050 0.540811
0.867099 -0.040050 0.540811
0.636452 0.596881 0.540811
-1.264802 -0.451833 0.364028
-0.468900 1.247734 0.364028
1.230667 0.451833 0.364028
0.434766 -1.247735 0.364028
-0.579855 -1.201776 0.364028
-1.218843 0.562788 0.364028
0.545721 1.201776 0.364028
1.184709 -0.562787 0.364028
-0.632943 1.692108 0.169304
0.061479 1.798989 0.169304
-0.290995 1.779746 0.169304
-1.233605 1.327618 0.169304
-0.951223 1.539443 0.169304
-1.649058 0.761010 0.169304
-1.469235 1.064774 0.169304
-1.816057 0.078546 0.169304
-1.766166 0.428002 0.169304
-1.709175 -0.615877 0.169304
-1.796813 -0.273929 0.169304
-1.344685 -1.216537 0.169304
-1.556510 -0.934157 0.169304
-0.778077 -1.631991 0.169304
-1.081841 -1.452167 0.169304
-0.095616 -1.798989 0.169304
0.598807 -1.692109 0.169304
0.256859 -1.779746 0.169304
1.199468 -1.327620 0.169304
0.917087 -1.539444 0.169304
1.614923 -0.761012 0.169304
1.435099 -1.064775 0.169304
1.781922 -0.078548 0.169304
1.732031 -0.428004 0.169304
1.675041 0.615875 0.169304
1.762679 0.273927 0.169304
1.310552 1.216536 0.169304
1.522376 0.934155 0.169304
0.743944 1.631991 0.169304
1.047707 1.452167 0.169304
0.410936 1.749099 0.169304
-0.933304 -1.547730 0.157050
-0.778077 -1.631991 0.166837
-1.081841 -1.452167 0.157050
-1.217646 -1.339242 0.157050
-1.344685 -1.216537 0.157050
-1.455850 -1.079287 0.157050
-1.556510 -0.934157 0.157050
-1.638763 -0.777857 0.157050
-1.709175 -0.615877 0.166837
-1.759355 -0.446533 0.157050
-1.796813 -0.273929 0.157050
-1.812991 -0.098050 0.157050
-1.816057 0.078546 0.157050
-1.797612 0.254202 0.157050
-1.766166 0.428002 0.157050
-1.713807 0.596685 0.157050
-1.649058 0.761010 0.166837
-1.564797 0.916237 0.157050
-1.469235 1.064774 0.157050
-1.356309 1.200579 0.157050
-1.233605 1.327618 0.157050
-1.096354 1.438784 0.157050
-0.951223 1.539443 0.157050
-0.794923 1.621696 0.157050
-0.632943 1.692108 0.166837
-0.463600 1.742288 0.157050
-0.290995 1.779746 0.157050
-0.115116 1.795924 0.157050
0.061479 1.798989 0.157050
0.237136 1.780545 0.157050
0.410936 1.749099 0.157050
0.579618 1.696739 0.157050
0.743944 1.631991 0.166837
0.899171 1.547729 0.157050
1.047707 1.452167 0.157050
1.183512 1.339241 0.157050
1.310552 1.216536 0.157050
1.421717 1.079286 0.157050
1.522376 0.934155 0.157050
1.604629 0.777855 0.157050
1.675041 0.615875 0.166837
1.725221 0.446531 0.157050
1.762679 0.273927 0.157050
1.778857 0.098048 0.157050
1.781922 -0.078548 0.157050
1.763477 -0.254204 0.157050
1.732031 -0.428004 0.157050
1.679672 -0.596686 0.157050
1.614923 -0.761012 0.166837
1.530661 -0.916239 0.157050
1.435099 -1.064775 0.157050
1.322173 -1.200580 0.157050
1.199468 -1.327620 0.157050
1.062218 -1.438785 0.157050
0.917087 -1.539444 0.157050
0.760787 -1.621697 0.157050
0.598807 -1.692109 0.166837
0.429463 -1.742288 0.157050
0.256859 -1.779746 0.157050
0.080979 -1.795924 0.157050
-0.095616 -1.798989 0.157050
-0.271272 -1.780544 0.157050
-0.445072 -1.749098 0.169304
-0.445072 -1.749098 0.157050
-0.613753 -1.696739 0.157050
-0.930702 -1.549082 0.116100
-0.778077 -1.631991 0.093720
-1.079012 -1.453169 0.127561
-1.344683 -1.216538 0.103507
-1.214551 -1.339923 0.120942
-1.709173 -0.615878 0.093720
-1.638761 -0.777857 0.116100
-1.556507 -0.934157 0.127561
-1.566147 0.913637 0.116100
-1.649058 0.761010 0.093720
-1.233605 1.327618 0.103507
-1.356989 1.197486 0.120942
-1.470235 1.061947 0.127561
-0.632943 1.692108 0.093720
-0.466400 1.741403 0.116100
-0.293708 1.778454 0.127561
0.061479 1.798989 0.103507
-0.117791 1.794217 0.120942
0.237128 1.780544 0.120942
0.743944 1.631991 0.093720
0.579611 1.696739 0.116100
0.410928 1.749098 0.127561
1.044876 1.453169 0.127561
1.310547 1.216539 0.103507
1.180414 1.339923 0.120942
1.421712 1.079288 0.120942
1.604624 0.777858 0.116100
1.522371 0.934158 0.127561
1.675036 0.615878 0.093720
1.614922 -0.761010 0.093720
1.679668 -0.596682 0.116100
1.732027 -0.427999 0.127561
0.598812 -1.692109 0.093720
0.760787 -1.621696 0.116100
0.917087 -1.539442 0.127561
-0.095610 -1.798991 0.103507
0.083655 -1.794217 0.120942
0.259572 -1.778453 0.127561
-0.271265 -1.780543 0.120942
-0.613747 -1.696738 0.116100
-0.445065 -1.749097 0.127561
0.432264 -1.741403 0.116100
1.199468 -1.327618 0.103507
1.062218 -1.438783 0.120942
1.322852 -1.197486 0.120942
1.436098 -1.061947 0.127561
1.532011 -0.913636 0.116100
1.781920 -0.078545 0.103507
1.763473 -0.254200 0.120942
1.761383 0.276637 0.127561
1.777146 0.100720 0.120942
1.724332 0.449329 0.116100
0.896565 1.549082 0.116100
-0.794923 1.621696 0.116100
-0.951223 1.539443 0.127561
-1.096354 1.438784 0.120942
-1.713804 0.596683 0.116100
-1.766163 0.428000 0.127561
-1.797609 0.254200 0.120942
-1.816057 0.078546 0.103507
-1.811283 -0.100720 0.120942
-1.795519 -0.276637 0.127561
-1.758468 -0.449329 0.116100
-1.455848 -1.079289 0.120942
-0.376500 0.392251 -0.924741
-0.548588 0.023206 -0.924741
-0.040271 -0.531522 -0.924741
-0.409316 -0.359433 -0.924741
0.375180 0.359434 -0.924741
0.006135 0.531522 -0.924741
0.514452 -0.023206 -0.924741
0.342363 -0.392251 -0.924741
-0.017068 -0.000001 -1.279736
3 0 1 2
3 3 4 5
3 1 2 6
3 1 6 7
3 0 4 3
3 0 1 4
3 5 8 3
3 1 9 4
3 6 10 7
3 0 11 2
3 3 12 0
3 4 13 5
3 7 14 1
3 2 15 6
3 8 12 3
3 12 11 0
3 11 15 2
3 15 10 6
3 10 14 7
3 14 9 1
3 9 13 4
3 13 8 5
3 16 17 18
3 19 16 20
3 21 19 22
3 23 21 24
3 25 23 26
3 27 25 28
3 29 27 30
3 29 31 12
3 32 31 33
3 34 32 35
3 36 34 37
3 38 36 39
3 40 38 41
3 42 40 43
3 44 42 45
3 17 44 46
3 30 47 29
3 47 48 29
3 47 30 49
3 50 30 27
3 49 30 50
3 50 27 51
3 52 27 28
3 51 27 52
3 52 28 53
3 54 28 25
3 53 28 54
3 54 25 55
3 56 25 26
3 55 25 56
3 56 26 57
3 58 26 23
3 57 26 58
3 58 23 59
3 60 23 24
3 59 23 60
3 60 24 61
3 62 24 21
3 61 24 62
3 62 21 63
3 64 21 22
3 63 21 64
3 64 22 65
3 66 22 19
3 65 22 66
3 66 19 67
3 68 19 20
3 67 19 68
3 68 20 69
3 70 20 16
3 69 20 70
3 70 16 71
3 72 16 18
3 71 16 72
3 72 18 73
3 74 18 17
3 73 18 74
3 74 17 75
3 76 17 46
3 75 17 76
3 76 46 77
3 78 46 44
3 77 46 78
3 78 44 79
3 80 44 45
3 79 44 80
3 80 45 81
3 82 45 42
3 81 45 82
3 82 42 83
3 84 42 43
3 83 42 84
3 84 43 85
3 86 43 40
3 85 43 86
3 86 40 87
3 88 40 41
3 87 40 88
3 88 41 89
3 90 41 38
3 89 41 90
3 90 38 91
3 92 38 39
3 91 38 92
3 92 39 93
3 94 39 36
3 93 39 94
3 94 36 95
3 96 36 37
3 95 36 96
3 96 37 97
3 98 37 34
3 97 37 98
3 98 34 99
3 100 34 35
3 99 34 100
3 100 35 101
3 102 35 32
3 101 35 102
3 102 32 103
3 104 32 33
3 103 32 104
3 104 33 105
3 106 33 31
3 105 33 106
3 106 31 107
3 108 31 109
3 107 31 108
3 108 109 110
3 111 109 29
3 110 109 111
3 48 111 29
3 49 112 47
3 47 113 48
3 50 114 49
3 50 115 116
3 54 117 118
3 53 118 119
3 65 120 64
3 64 121 63
3 66 122 123
3 66 124 65
3 72 125 71
3 73 126 72
3 74 127 73
3 74 128 129
3 77 130 76
3 76 128 75
3 78 131 132
3 77 132 133
3 82 134 81
3 82 135 136
3 85 137 84
3 84 135 83
3 85 138 139
3 86 140 138
3 94 141 142
3 93 142 143
3 102 144 145
3 101 145 146
3 106 147 148
3 106 149 105
3 110 150 108
3 108 147 107
3 111 113 151
3 110 151 152
3 104 144 103
3 105 153 104
3 100 154 99
3 101 155 100
3 98 154 156
3 98 157 97
3 96 141 95
3 97 158 96
3 92 159 91
3 93 160 92
3 90 161 89
3 90 159 162
3 88 140 87
3 89 163 88
3 81 164 80
3 80 131 79
3 70 125 165
3 69 165 166
3 69 167 68
3 68 122 67
3 62 121 168
3 61 168 169
3 61 170 60
3 60 171 59
3 58 171 172
3 58 173 57
3 56 117 55
3 57 174 56
3 53 175 52
3 52 115 51
3 125 176 165
3 122 167 176
3 166 176 167
3 165 176 166
3 120 124 176
3 124 123 176
3 122 176 123
3 121 120 176
3 117 174 177
3 171 177 172
3 173 172 177
3 174 173 177
3 168 177 169
3 169 177 170
3 171 170 177
3 121 177 168
3 113 178 151
3 147 150 178
3 152 178 150
3 151 178 152
3 153 149 178
3 149 148 178
3 147 178 148
3 144 153 178
3 113 112 179
3 115 179 116
3 114 116 179
3 112 114 179
3 118 179 119
3 119 179 175
3 115 175 179
3 117 179 118
3 140 180 138
3 135 137 180
3 139 180 137
3 138 180 139
3 164 134 180
3 134 136 180
3 135 180 136
3 131 164 180
3 125 126 181
3 128 181 129
3 127 129 181
3 126 127 181
3 132 181 133
3 133 181 130
3 128 130 181
3 131 181 132
3 141 182 142
3 159 160 182
3 143 182 160
3 142 182 143
3 163 161 182
3 161 162 182
3 159 182 162
3 140 163 182
3 141 158 183
3 154 183 156
3 157 156 183
3 158 157 183
3 145 183 146
3 146 183 155
3 154 155 183
3 144 183 145
3 184 121 176
3 184 117 177
3 113 184 178
3 184 144 178
3 184 141 183
3 184 140 182
3 131 184 181
3 125 184 176
3 0 1 2
3 27 12 8
3 31 11 12
3 34 15 11
3 38 10 15
3 42 14 10
3 17 9 14
3 19 13 9
3 23 8 13
3 9 17 16
3 9 16 19
3 13 19 21
3 13 21 23
3 8 23 25
3 8 25 27
3 12 27 29
3 109 31 29
3 11 31 32
3 11 32 34
3 15 34 36
3 15 36 38
3 10 38 40
3 10 40 42
3 14 42 44
3 14 44 17
3 114 112 49
3 112 113 47
3 116 114 50
3 51 115 50
3 55 117 54
3 54 118 53
3 124 120 65
3 120 121 64
3 67 122 66
3 123 124 66
3 126 125 72
3 127 126 73
3 129 127 74
3 75 128 74
3 133 130 77
3 130 128 76
3 79 131 78
3 78 132 77
3 136 134 82
3 83 135 82
3 139 137 85
3 137 135 84
3 86 138 85
3 87 140 86
3 95 141 94
3 94 142 93
3 103 144 102
3 102 145 101
3 107 147 106
3 148 149 106
3 152 150 110
3 150 147 108
3 48 113 111
3 111 151 110
3 153 144 104
3 149 153 105
3 155 154 100
3 146 155 101
3 99 154 98
3 156 157 98
3 158 141 96
3 157 158 97
3 160 159 92
3 143 160 93
3 162 161 90
3 91 159 90
3 163 140 88
3 161 163 89
3 134 164 81
3 164 131 80
3 71 125 70
3 70 165 69
3 166 167 69
3 167 122 68
3 63 121 62
3 62 168 61
3 169 170 61
3 170 171 60
3 59 171 58
3 172 173 58
3 174 117 56
3 173 174 57
3 119 175 53
3 175 115 52
3 177 121 184
3 179 117 184
3 179 184 113
3 183 144 184
3 182 141 184
3 180 140 184
3 180 184 131
3 181 184 125
