ply
format ascii 1.0
comment Created by Blender 2.70 (sub 0) - www.blender.org, source file: 'diamond.blend'
element vertex 214
property float x
property float y
property float z
element face 424
property list uchar uint vertex_indices
end_header
0.040049 -0.884166 0.361565
0.653518 -0.596880 0.361565
0.596880 0.653520 0.361565
-0.653518 -0.596880 0.361565
-0.596880 0.653520 0.361565
-0.884166 0.040050 0.361565
0.884166 0.040050 0.361565
1.247733 -0.451833 0.184781
-0.040049 -0.884166 0.361565
-1.247733 -0.451833 0.184781
-0.000000 0.869663 0.361565
-0.000000 0.913770 0.347170
-0.451832 1.247735 0.184781
1.696739 0.596685 -0.022196
1.631990 0.761010 -0.009942
1.749098 0.428002 -0.009942
1.547729 0.916237 -0.022196
1.452167 1.064774 -0.022196
1.452167 1.064774 -0.009942
-0.562787 -1.201775 0.184781
-1.201774 0.562788 0.184781
1.339241 1.200579 -0.022196
1.216536 1.327618 -0.022196
1.216536 1.327618 -0.009942
0.273927 1.779746 -0.022196
0.446531 1.742288 -0.022196
0.449332 1.741403 -0.063146
1.631990 0.761010 -0.012409
1.339920 1.197486 -0.058304
1.216536 1.327618 -0.075739
0.615875 1.692108 -0.012409
0.615875 1.692108 -0.085526
1.539441 -0.934157 -0.022196
1.539439 -0.934157 -0.051685
1.621692 -0.777857 -0.063146
-0.000000 1.227268 0.184781
1.064772 -1.452167 -0.009942
0.761009 -1.631991 -0.009942
0.916236 -1.547730 -0.022196
-1.216536 1.327618 -0.009942
-0.615875 1.692108 -0.009942
-0.934155 1.539443 -0.009942
-1.631990 0.761010 -0.009942
-1.452167 1.064774 -0.009942
-1.798988 0.078546 -0.009942
-1.749098 0.428002 -0.009942
-1.692106 -0.615877 -0.009942
-1.779745 -0.273929 -0.009942
-1.327617 -1.216537 -0.009942
-1.539441 -0.934157 -0.009942
-0.761009 -1.631991 -0.009942
-1.064772 -1.452167 -0.009942
-0.078548 -1.798989 -0.009942
-0.000000 -1.786899 -0.009942
-0.000000 -1.794701 -0.009942
1.780544 0.254202 -0.022196
1.798988 0.078546 -0.009942
1.692106 -0.615877 -0.012409
1.742286 -0.446533 -0.022196
1.692106 -0.615877 -0.009942
1.438782 -1.079287 -0.022196
1.539441 -0.934157 -0.009942
1.798988 0.078546 -0.022196
1.327617 -1.216537 -0.009942
-0.916236 -1.547730 -0.022196
-0.761009 -1.631991 -0.012409
-1.064772 -1.452167 -0.022196
-1.200578 -1.339242 -0.022196
-1.327617 -1.216537 -0.022196
-1.438782 -1.079287 -0.022196
-1.539441 -0.934157 -0.022196
-1.621695 -0.777857 -0.022196
-1.692106 -0.615877 -0.012409
-1.742286 -0.446533 -0.022196
-1.779745 -0.273929 -0.022196
-1.795923 -0.098050 -0.022196
-1.798988 0.078546 -0.022196
-1.780544 0.254202 -0.022196
-1.749098 0.428002 -0.022196
-1.696739 0.596685 -0.022196
-1.631990 0.761010 -0.012409
-1.547729 0.916237 -0.022196
-1.452167 1.064774 -0.022196
-1.339241 1.200579 -0.022196
-1.216536 1.327618 -0.022196
-1.079286 1.438784 -0.022196
-0.934155 1.539443 -0.022196
-0.777855 1.621696 -0.022196
-0.615875 1.692108 -0.012409
-0.446531 1.742288 -0.022196
-0.273927 1.779746 -0.009942
-0.273927 1.779746 -0.022196
-0.098048 1.795924 -0.022196
0.098048 1.795924 -0.022196
0.276640 1.778454 -0.051685
0.428004 -1.749098 -0.022196
0.254204 -1.780544 -0.022196
0.254196 -1.780543 -0.058304
0.078548 -1.798989 -0.022196
0.078542 -1.798991 -0.075739
1.079286 1.438784 -0.022196
0.934155 1.539443 -0.009942
0.934155 1.539443 -0.022196
1.064772 -1.452167 -0.022196
0.913633 -1.549082 -0.063146
1.061944 -1.453169 -0.051685
0.761009 -1.631991 -0.012409
0.596685 -1.696739 -0.022196
0.777855 1.621696 -0.022196
0.615875 1.692108 -0.009942
0.596679 -1.696738 -0.063146
0.761009 -1.631991 -0.085526
0.777855 1.621696 -0.063146
0.427996 -1.749097 -0.051685
1.079286 1.438784 -0.058304
0.934155 1.539443 -0.051685
1.197483 -1.339923 -0.058304
1.200578 -1.339242 -0.022196
1.621695 -0.777857 -0.022196
1.696736 0.596683 -0.063146
1.631990 0.761010 -0.085526
1.438780 -1.079289 -0.058304
1.741400 -0.449329 -0.063146
0.531520 0.023206 -1.103987
1.778451 -0.276637 -0.051685
0.023203 -0.531522 -1.103987
1.692104 -0.615878 -0.085526
0.273927 1.779746 -0.009942
1.798988 0.078546 -0.075739
1.749098 0.428002 -0.022196
1.795923 -0.098050 -0.022196
1.779745 -0.273929 -0.022196
1.201774 0.562788 0.184781
0.428004 -1.749098 -0.009942
0.078548 -1.798989 -0.009942
1.327617 -1.216537 -0.022196
1.327615 -1.216538 -0.075739
-0.000000 -1.797626 -0.015393
-0.000000 -1.797626 -0.022196
-0.254204 -1.780544 -0.022196
-0.428004 -1.749098 -0.009942
-0.078548 -1.798989 -0.022196
-0.428004 -1.749098 -0.022196
-0.596685 -1.696739 -0.022196
-0.913633 -1.549082 -0.063146
-0.761009 -1.631991 -0.085526
-1.061944 -1.453169 -0.051685
-1.327615 -1.216538 -0.075739
-1.197483 -1.339923 -0.058304
-1.692104 -0.615878 -0.085526
-1.621692 -0.777857 -0.063146
-1.539439 -0.934157 -0.051685
-1.549079 0.913637 -0.063146
-1.631990 0.761010 -0.085526
-1.216536 1.327618 -0.075739
-1.339920 1.197486 -0.058304
-1.453166 1.061948 -0.051685
-0.615875 1.692108 -0.085526
-0.449332 1.741403 -0.063146
-0.276640 1.778454 -0.051685
1.779745 -0.273929 -0.009942
1.453166 1.061948 -0.051685
1.549079 0.913637 -0.063146
0.451832 1.247735 0.184781
0.392248 -0.359433 -1.103987
0.562787 -1.201775 0.184781
-0.000000 -1.797627 -0.051925
-0.078542 -1.798991 -0.075739
-0.000000 -1.796899 -0.068100
-0.254196 -1.780543 -0.058304
-0.596679 -1.696738 -0.063146
-0.427996 -1.749097 -0.051685
0.359431 0.392251 -1.103987
-0.000000 -0.000026 0.361565
1.780541 0.254200 -0.058304
-0.777855 1.621696 -0.063146
-0.934155 1.539443 -0.051685
-1.079286 1.438784 -0.058304
-1.696736 0.596683 -0.063146
-1.749095 0.428000 -0.051685
-1.780541 0.254200 -0.058304
-1.798988 0.078546 -0.075739
-1.794214 -0.100720 -0.058304
-1.778451 -0.276637 -0.051685
-1.741400 -0.449329 -0.063146
-1.438780 -1.079289 -0.058304
-0.359431 0.392251 -1.103987
-0.531520 0.023206 -1.103987
-0.023203 -0.531522 -1.103987
-0.000000 -0.590932 -1.052878
-0.000000 -0.628015 -1.022555
-0.000000 -0.767942 -0.908199
-0.000000 -0.573660 -1.067010
-0.392248 -0.359433 -1.103987
-0.000000 1.797626 -0.015393
-0.000000 1.796898 -0.068100
-0.000000 0.767942 -0.908200
-0.100723 1.794217 -0.058304
-0.000000 -1.717350 0.018896
-0.000000 -1.227268 0.184781
-0.000000 -0.000001 -1.458982
-0.000000 1.717350 0.018896
-0.000000 1.797626 -0.022196
-0.000000 1.797626 -0.051924
-0.000000 0.628015 -1.022556
0.100723 1.794217 -0.058304
-0.000000 0.590932 -1.052878
1.794214 -0.100720 -0.058304
-0.000000 1.786900 -0.009942
-0.000000 1.794701 -0.009942
1.749095 0.428000 -0.051685
-0.000000 -0.913768 0.347171
-0.000000 0.573660 -1.067010
-0.000000 -0.869664 0.361565
3 0 1 2
3 3 4 5
3 1 6 2
3 6 1 7
3 8 4 3
3 5 9 3
3 10 11 12
3 13 14 15
3 16 17 18
3 3 19 8
3 4 20 5
3 21 22 23
3 24 25 26
3 9 19 3
3 27 16 14
3 21 28 29
3 25 30 31
3 32 33 34
3 35 12 11
3 12 20 4
3 20 9 5
3 36 37 38
3 39 40 41
3 42 39 43
3 44 42 45
3 46 44 47
3 48 46 49
3 50 48 51
3 50 52 19
3 53 52 54
3 55 15 56
3 57 58 59
3 60 32 61
3 62 55 56
3 60 61 63
3 51 64 50
3 64 65 50
3 64 51 66
3 67 51 48
3 66 51 67
3 67 48 68
3 69 48 49
3 68 48 69
3 69 49 70
3 71 49 46
3 70 49 71
3 71 46 72
3 73 46 47
3 72 46 73
3 73 47 74
3 75 47 44
3 74 47 75
3 75 44 76
3 77 44 45
3 76 44 77
3 77 45 78
3 79 45 42
3 78 45 79
3 79 42 80
3 81 42 43
3 80 42 81
3 81 43 82
3 83 43 39
3 82 43 83
3 83 39 84
3 85 39 41
3 84 39 85
3 85 41 86
3 87 41 40
3 86 41 87
3 87 40 88
3 89 40 90
3 88 40 89
3 89 90 91
3 63 61 59
3 91 90 92
3 93 24 94
3 95 96 97
3 96 98 99
3 100 101 23
3 22 100 23
3 100 102 101
3 103 38 104
3 105 103 104
3 106 37 107
3 108 109 101
3 108 30 109
3 102 108 101
3 107 110 111
3 108 112 31
3 95 113 110
3 102 100 114
3 100 22 29
3 102 115 112
3 116 117 105
3 118 32 34
3 13 119 120
3 33 32 121
3 122 123 124
3 113 97 125
3 126 123 122
3 111 110 125
3 25 127 109
3 25 24 127
3 30 25 109
3 55 62 128
3 7 63 59
3 13 129 119
3 7 59 56
3 130 131 124
3 132 14 23
3 96 133 134
3 60 135 136
3 131 58 122
3 137 54 52
3 96 95 133
3 138 137 52
3 139 52 140
3 141 52 139
3 139 140 142
3 143 140 50
3 142 140 143
3 65 143 50
3 66 144 64
3 64 145 65
3 67 146 66
3 67 147 148
3 71 149 150
3 70 150 151
3 82 152 81
3 81 153 80
3 83 154 155
3 83 156 82
3 89 157 88
3 91 158 89
3 92 159 91
3 131 130 160
3 56 132 7
3 118 57 59
3 161 17 162
3 163 23 109
3 104 164 105
3 165 37 63
3 57 118 126
3 166 167 168
3 136 116 164
3 142 169 139
3 139 167 141
3 143 145 170
3 142 170 171
3 162 172 161
3 115 114 172
3 58 57 126
3 132 56 14
3 173 0 10
3 115 102 114
3 133 37 134
3 121 60 136
3 137 138 134
3 128 123 174
3 62 130 128
3 31 112 172
3 87 157 175
3 86 175 176
3 86 177 85
3 85 154 84
3 79 153 178
3 78 178 179
3 78 180 77
3 77 181 76
3 75 181 182
3 75 183 74
3 73 149 72
3 74 184 73
3 70 185 69
3 69 147 68
3 157 186 175
3 154 177 186
3 176 186 177
3 175 186 176
3 152 156 186
3 156 155 186
3 154 186 155
3 153 152 186
3 149 184 187
3 181 187 182
3 183 182 187
3 184 183 187
3 178 187 179
3 179 187 180
3 181 180 187
3 153 187 178
3 145 188 170
3 167 169 188
3 171 188 169
3 170 188 171
3 189 190 188
3 190 191 188
3 105 164 116
3 192 189 188
3 145 144 193
3 147 193 148
3 146 148 193
3 144 146 193
3 150 193 151
3 151 193 185
3 147 185 193
3 149 193 150
3 162 16 120
3 22 21 29
3 93 194 127
3 58 131 160
3 195 196 197
3 106 107 111
3 63 7 165
3 135 117 136
3 130 62 56
3 130 56 160
3 23 101 109
3 174 55 128
3 34 33 164
3 198 134 199
3 126 34 164
3 99 125 97
3 98 138 99
3 99 168 125
3 29 172 114
3 200 153 186
3 200 149 187
3 145 200 188
3 200 192 188
3 23 163 132
3 114 100 29
3 157 200 186
3 48 19 9
3 16 18 14
3 21 17 161
3 118 34 126
3 117 103 105
3 201 12 35
3 39 20 12
3 44 9 20
3 37 36 63
3 12 40 39
3 20 39 42
3 20 42 44
3 9 44 46
3 9 46 48
3 19 48 50
3 140 52 50
3 198 52 53
3 13 27 14
3 16 27 120
3 17 16 162
3 118 59 61
3 21 23 18
3 38 106 111
3 146 144 66
3 144 145 64
3 148 146 67
3 68 147 67
3 72 149 71
3 71 150 70
3 156 152 82
3 152 153 81
3 84 154 83
3 155 156 83
3 158 157 89
3 159 158 91
3 197 159 92
3 202 203 92
3 94 204 205
3 103 117 36
3 33 121 164
3 37 165 134
3 122 58 126
3 26 206 94
3 58 160 59
3 203 93 195
3 136 164 121
3 104 38 111
3 128 207 123
3 107 37 133
3 208 109 209
3 171 169 142
3 169 167 139
3 65 145 143
3 143 170 142
3 120 119 123
3 161 172 28
3 201 163 208
3 32 60 121
3 129 210 119
3 130 207 128
3 199 165 211
3 124 123 207
3 29 28 172
3 111 164 104
3 31 212 26
3 88 157 87
3 87 175 86
3 176 177 86
3 177 154 85
3 80 153 79
3 79 178 78
3 179 180 78
3 180 181 77
3 76 181 75
3 182 183 75
3 184 149 73
3 183 184 74
3 151 185 70
3 185 147 69
3 187 153 200
3 193 149 200
3 193 200 145
3 11 10 163
3 124 131 122
3 28 21 161
3 212 200 157
3 97 96 99
3 92 203 195
3 158 206 212
3 30 108 31
3 197 196 204
3 159 204 206
3 207 130 124
3 120 172 162
3 92 90 194
3 110 113 125
3 90 40 209
3 188 191 168
3 95 107 133
3 167 166 138
3 92 194 202
3 4 8 10
3 117 116 136
3 12 201 208
3 52 198 199
3 129 13 15
3 19 199 211
3 17 21 18
3 8 213 173
3 8 211 213
3 8 173 10
3 1 0 165
3 2 6 132
3 98 96 134
3 40 208 209
3 90 209 194
3 38 103 36
3 117 135 63
3 108 102 112
3 163 2 132
3 55 129 15
3 8 19 211
3 38 37 106
3 107 95 110
3 56 15 14
3 59 160 56
3 210 129 174
3 129 55 174
3 19 52 199
3 112 115 172
3 94 24 26
3 210 174 123
3 40 12 208
3 141 167 138
3 167 188 168
3 119 210 123
3 158 159 206
3 159 197 204
3 7 1 165
3 135 60 63
3 117 63 36
3 157 158 212
3 26 25 31
3 132 6 7
3 205 93 94
3 24 93 127
3 14 18 23
3 197 92 195
3 32 118 61
3 27 13 120
3 141 138 52
3 4 10 12
3 113 95 97
3 10 2 163
3 166 168 99
3 212 206 26
3 93 202 194
3 165 0 211
3 192 125 189
3 201 35 163
3 200 125 192
3 163 109 208
3 109 127 209
3 164 111 200
3 123 200 120
3 93 205 195
3 31 172 200
3 200 172 120
3 53 54 134
3 111 125 200
3 195 205 196
3 198 53 134
3 0 173 213
3 206 204 94
3 204 196 205
3 189 125 190
3 190 125 191
3 168 191 125
3 200 123 126
3 35 11 163
3 138 166 99
3 0 213 211
3 202 93 203
3 134 165 199
3 194 209 127
3 164 200 126
3 138 98 134
3 137 134 54
3 0 2 10
3 212 31 200
