ply
format ascii 1.0
comment Created by Blender 2.70 (sub 0) - www.blender.org, source file: ''
element vertex 201
property float x
property float y
property float z
property float nx
property float ny
property float nz
property float s
property float t
element face 67
property list uchar uint vertex_indices
end_header
-0.404292 0.243595 2.082232 -0.349369 0.028306 0.936557 0.269030 0.404329
-0.737103 0.059405 1.963648 -0.349369 0.028306 0.936557 0.234835 0.234835
-0.438284 -0.175960 2.082232 -0.349369 0.028306 0.936557 0.404329 0.269030
-0.543375 -0.541536 1.963648 -0.253776 -0.495242 0.830863 0.500000 0.125000
-0.416459 -0.986119 1.737415 -0.253776 -0.495242 0.830863 0.691342 0.038060
0.018542 -0.829478 1.963648 -0.253776 -0.495242 0.830863 0.765165 0.234835
0.907424 -0.073833 1.963648 0.529635 0.170742 0.830863 0.765165 0.765165
1.132050 0.330278 1.737415 0.529635 0.170742 0.830863 0.691342 0.961940
0.713695 0.527108 1.963648 0.529635 0.170742 0.830863 0.500000 0.875000
0.619482 -0.635749 1.963648 0.495242 -0.253776 0.830863 0.875000 0.500000
1.064065 -0.508833 1.737415 0.495242 -0.253776 0.830863 0.961940 0.691342
0.907424 -0.073833 1.963648 0.495242 -0.253776 0.830863 0.765165 0.765165
-0.083586 0.516231 2.082232 -0.227026 0.267056 0.936558 0.269030 0.595671
-0.449162 0.621321 1.963648 -0.227026 0.267056 0.936558 0.125000 0.500000
-0.404292 0.243595 2.082232 -0.227026 0.267056 0.936558 0.269030 0.404329
-0.165649 -0.496667 2.082232 -0.028305 -0.349370 0.936557 0.595671 0.269030
0.018542 -0.829478 1.963648 -0.028305 -0.349370 0.936557 0.765165 0.234835
0.253906 -0.530658 2.082232 -0.028305 -0.349370 0.936557 0.730970 0.404329
-0.438284 -0.175960 2.082232 -0.267057 -0.227027 0.936557 0.404329 0.269030
-0.543375 -0.541536 1.963648 -0.267057 -0.227027 0.936557 0.500000 0.125000
-0.165649 -0.496667 2.082232 -0.267057 -0.227027 0.936557 0.595671 0.269030
0.253906 -0.530658 2.082232 0.227027 -0.267057 0.936557 0.730970 0.404329
0.619482 -0.635749 1.963648 0.227027 -0.267057 0.936557 0.875000 0.500000
0.574613 -0.258024 2.082232 0.227027 -0.267057 0.936557 0.730970 0.595671
0.151779 0.815050 1.963648 -0.170742 0.529636 0.830863 0.234835 0.765165
-0.252332 1.039675 1.737415 -0.170742 0.529636 0.830863 0.038060 0.691342
-0.449162 0.621321 1.963648 -0.170742 0.529636 0.830863 0.125000 0.500000
0.574613 -0.258024 2.082232 0.349369 -0.028305 0.936558 0.730970 0.595671
0.907424 -0.073833 1.963648 0.349369 -0.028305 0.936558 0.765165 0.765165
0.608604 0.161532 2.082232 0.349369 -0.028305 0.936558 0.595671 0.730970
1.132050 0.330278 1.737415 0.581838 0.494625 0.645609 0.308658 0.500000
0.586780 0.971691 1.737415 0.581838 0.494625 0.645609 0.691342 0.500000
0.713695 0.527108 1.963648 0.581838 0.494625 0.645609 0.500000 0.602838
1.064065 -0.508833 1.737415 0.761174 -0.061670 0.645609 0.961940 0.691342
1.132050 0.330278 1.737415 0.761174 -0.061670 0.645609 0.691342 0.961940
0.907424 -0.073833 1.963648 0.761174 -0.061670 0.645609 0.765165 0.765165
0.422652 -1.054103 1.737415 0.494625 -0.581838 0.645609 0.308658 0.500000
1.064065 -0.508833 1.737415 0.494625 -0.581838 0.645609 0.691342 0.500000
0.619482 -0.635749 1.963648 0.494625 -0.581838 0.645609 0.500000 0.602838
-0.416459 -0.986119 1.737415 -0.061669 -0.761174 0.645609 0.691342 0.038060
0.422652 -1.054103 1.737415 -0.061669 -0.761174 0.645609 0.961940 0.308658
0.018542 -0.829478 1.963648 -0.061669 -0.761174 0.645609 0.765165 0.234835
0.335970 0.482239 2.082232 0.028305 0.349369 0.936558 0.404329 0.730970
0.151779 0.815050 1.963648 0.028305 0.349369 0.936558 0.234835 0.765165
-0.083586 0.516231 2.082232 0.028305 0.349369 0.936558 0.269030 0.595671
-0.961728 -0.344706 1.737415 -0.581839 -0.494625 0.645608 0.308658 0.500000
-0.416459 -0.986119 1.737415 -0.581839 -0.494625 0.645608 0.691342 0.500000
-0.543375 -0.541536 1.963648 -0.581839 -0.494625 0.645608 0.500000 0.602838
-0.893744 0.494405 1.737415 -0.761175 0.061669 0.645608 0.038060 0.308658
-0.961728 -0.344706 1.737415 -0.761175 0.061669 0.645608 0.308658 0.038060
-0.737103 0.059405 1.963648 -0.761175 0.061669 0.645608 0.234835 0.234835
0.608604 0.161532 2.082232 0.267056 0.227026 0.936558 0.595671 0.730970
0.713695 0.527108 1.963648 0.267056 0.227026 0.936558 0.500000 0.875000
0.335970 0.482239 2.082232 0.267056 0.227026 0.936558 0.404329 0.730970
-0.252332 1.039675 1.737415 -0.494625 0.581839 0.645608 0.308658 0.500000
-0.893744 0.494405 1.737415 -0.494625 0.581839 0.645608 0.691342 0.500000
-0.449162 0.621321 1.963648 -0.494625 0.581839 0.645608 0.500000 0.602838
0.586780 0.971691 1.737415 0.061669 0.761175 0.645608 0.308658 0.961940
-0.252332 1.039675 1.737415 0.061669 0.761175 0.645608 0.038060 0.691342
0.151779 0.815050 1.963648 0.061669 0.761175 0.645608 0.234835 0.765165
0.713695 0.527108 1.963648 0.253777 0.495242 0.830863 0.500000 0.875000
0.586780 0.971691 1.737415 0.253777 0.495242 0.830863 0.308658 0.961940
0.151779 0.815050 1.963648 0.253777 0.495242 0.830863 0.234835 0.765165
-0.737103 0.059405 1.963648 -0.529636 -0.170742 0.830863 0.234835 0.234835
-0.961728 -0.344706 1.737415 -0.529636 -0.170742 0.830863 0.308658 0.038060
-0.543375 -0.541536 1.963648 -0.529636 -0.170742 0.830863 0.500000 0.125000
-0.449162 0.621321 1.963648 -0.495242 0.253776 0.830863 0.125000 0.500000
-0.893744 0.494405 1.737415 -0.495242 0.253776 0.830863 0.038060 0.308658
-0.737103 0.059405 1.963648 -0.495242 0.253776 0.830863 0.234835 0.234835
0.018542 -0.829478 1.963648 0.170742 -0.529636 0.830863 0.765165 0.234835
0.422652 -1.054103 1.737415 0.170742 -0.529636 0.830863 0.961940 0.308658
0.619482 -0.635749 1.963648 0.170742 -0.529636 0.830863 0.875000 0.500000
0.253906 -0.530658 2.082232 0.000000 0.000000 -1.000000 0.730970 0.404329
0.085160 -0.007214 2.082232 0.000000 0.000000 -1.000000 0.500000 0.500000
-0.083586 0.516231 2.082232 0.000000 0.000000 -1.000000 0.269030 0.595671
-0.404292 0.243595 2.082232 0.000000 -0.000000 1.000000 0.269030 0.404329
-0.438284 -0.175960 2.082232 0.000000 -0.000000 1.000000 0.404329 0.269030
0.085160 -0.007214 2.082232 0.000000 -0.000000 1.000000 0.500000 0.500000
-0.083586 0.516231 2.082232 0.000000 -0.000000 1.000000 0.269030 0.595671
-0.404292 0.243595 2.082232 0.000000 -0.000000 1.000000 0.269030 0.404329
0.085160 -0.007214 2.082232 0.000000 -0.000000 1.000000 0.500000 0.500000
0.085160 -0.007214 2.082232 0.000000 -0.000000 1.000000 0.500000 0.500000
-0.165649 -0.496667 2.082232 0.000000 -0.000000 1.000000 0.595671 0.269030
0.253906 -0.530658 2.082232 0.000000 -0.000000 1.000000 0.730970 0.404329
0.085160 -0.007214 2.082232 0.000000 0.000000 1.000000 0.500000 0.500000
0.253906 -0.530658 2.082232 0.000000 0.000000 1.000000 0.730970 0.404329
0.574613 -0.258024 2.082232 0.000000 0.000000 1.000000 0.730970 0.595671
-0.438284 -0.175960 2.082232 0.000000 0.000000 1.000000 0.404329 0.269030
-0.165649 -0.496667 2.082232 0.000000 0.000000 1.000000 0.595671 0.269030
0.085160 -0.007214 2.082232 0.000000 0.000000 1.000000 0.500000 0.500000
0.608604 0.161532 2.082232 -0.000000 0.000000 1.000000 0.595671 0.730970
0.335970 0.482239 2.082232 -0.000000 0.000000 1.000000 0.404329 0.730970
0.085160 -0.007214 2.082232 -0.000000 0.000000 1.000000 0.500000 0.500000
0.574613 -0.258024 2.082232 -0.000000 0.000000 1.000000 0.730970 0.595671
0.608604 0.161532 2.082232 -0.000000 0.000000 1.000000 0.595671 0.730970
0.085160 -0.007214 2.082232 -0.000000 0.000000 1.000000 0.500000 0.500000
0.335970 0.482239 2.082232 -0.000000 -0.000000 1.000000 0.404329 0.730970
-0.083586 0.516231 2.082232 -0.000000 -0.000000 1.000000 0.269030 0.595671
0.085160 -0.007214 2.082232 -0.000000 -0.000000 1.000000 0.500000 0.500000
-0.961868 -0.343035 1.737415 0.593053 0.502382 0.629206 0.691962 0.500000
-0.961841 -0.342831 1.737226 0.593053 0.502382 0.629206 0.692024 0.499914
-0.962047 -0.342824 1.737415 0.593053 0.502382 0.629206 0.692087 0.500000
-0.249451 1.039912 1.737415 -0.064507 -0.773955 0.629946 0.038826 0.692410
0.131300 0.540318 1.162600 -0.064507 -0.773955 0.629946 0.323955 0.677185
0.589501 0.969988 1.737415 -0.064507 -0.773955 0.629946 0.310049 0.962381
-0.892123 0.496127 1.737415 0.674054 -0.243014 0.697564 0.037941 0.309727
-0.462452 0.037926 1.162600 0.674054 -0.243014 0.697564 0.323137 0.323633
0.085620 -0.007754 0.617086 0.674054 -0.243014 0.697564 0.500322 0.500000
1.133286 0.327316 1.737415 -0.773955 0.064507 0.629946 0.692732 0.961496
0.633691 -0.053434 1.162600 -0.773955 0.064507 0.629946 0.677507 0.676367
1.063362 -0.511636 1.737415 -0.773955 0.064507 0.629946 0.962703 0.690273
0.085620 -0.007754 0.617086 -0.407934 -0.589062 0.697564 0.500322 0.500000
0.505466 0.347490 1.162600 -0.407934 -0.589062 0.697564 0.500900 0.749999
0.589501 0.969988 1.737415 -0.407934 -0.589062 0.697564 0.310049 0.962381
0.589501 0.969988 1.737415 -0.592882 -0.501656 0.629946 0.310049 0.500000
0.505466 0.347490 1.162600 -0.592882 -0.501656 0.629946 0.500900 0.238707
1.133286 0.327316 1.737415 -0.592882 -0.501656 0.629946 0.692732 0.500000
1.063362 -0.511636 1.737415 -0.501656 0.592882 0.629946 0.309727 0.500000
0.440864 -0.427600 1.162599 -0.501656 0.592882 0.629946 0.500578 0.238707
0.420690 -1.055421 1.737415 -0.501656 0.592882 0.629946 0.692410 0.500000
1.133286 0.327316 1.737415 -0.648465 -0.304790 0.697564 0.692732 0.961496
0.505466 0.347490 1.162600 -0.648465 -0.304790 0.697564 0.500900 0.749999
0.085620 -0.007754 0.617086 -0.648465 -0.304790 0.697564 0.500322 0.500000
0.085620 -0.007754 0.617086 0.704983 0.128077 0.697564 0.500322 0.500000
-0.462452 0.037926 1.162600 0.704983 0.128077 0.697564 0.323137 0.323633
-0.962047 -0.342824 1.737415 0.704983 0.128077 0.697564 0.307913 0.038504
0.085620 -0.007754 0.617086 -0.589062 0.407933 0.697564 0.500322 0.500000
0.440864 -0.427600 1.162599 -0.589062 0.407933 0.697564 0.750322 0.499422
1.063362 -0.511636 1.737415 -0.589062 0.407933 0.697564 0.962703 0.690273
-0.249451 1.039912 1.737415 0.304791 -0.648465 0.697564 0.038826 0.692410
-0.269625 0.412092 1.162600 0.304791 -0.648465 0.697564 0.250323 0.500578
0.085620 -0.007754 0.617086 0.304791 -0.648465 0.697564 0.500322 0.500000
-0.962047 -0.342824 1.737415 0.773955 -0.064506 0.629946 0.307913 0.038504
-0.462452 0.037926 1.162600 0.773955 -0.064506 0.629946 0.323137 0.323633
-0.892123 0.496127 1.737415 0.773955 -0.064506 0.629946 0.037941 0.309727
-0.892123 0.496127 1.737415 0.501656 -0.592882 0.629946 0.309727 0.500000
-0.269625 0.412092 1.162600 0.501656 -0.592882 0.629946 0.500578 0.238707
-0.249451 1.039912 1.737415 0.501656 -0.592882 0.629946 0.692410 0.500000
0.420690 -1.055421 1.737415 0.065447 0.774206 0.629541 0.961818 0.307590
0.039939 -0.555826 1.162599 0.065447 0.774206 0.629541 0.676690 0.322815
-0.417770 -0.984542 1.737415 0.065447 0.774206 0.629541 0.690409 0.038070
0.085620 -0.007754 0.617086 -0.128077 0.704982 0.697564 0.500322 0.500000
0.039939 -0.555826 1.162599 -0.128077 0.704982 0.697564 0.676690 0.322815
0.420690 -1.055421 1.737415 -0.128077 0.704982 0.697564 0.961818 0.307590
-0.417770 -0.984542 1.737415 0.244740 0.673674 0.697328 0.690409 0.038070
0.039939 -0.555826 1.162599 0.244740 0.673674 0.697328 0.676690 0.322815
0.085620 -0.007754 0.617086 0.244740 0.673674 0.697328 0.500322 0.500000
-0.961868 -0.343035 1.737415 0.592541 0.502566 0.629541 0.691962 0.500000
-0.417770 -0.984542 1.737415 0.592541 0.502566 0.629541 0.309591 0.500000
-0.334226 -0.362999 1.162600 0.592541 0.502566 0.629541 0.500256 0.238707
-0.165649 -0.496667 2.082232 -0.222477 -0.434161 0.872931 0.595671 0.269030
-0.543375 -0.541536 1.963648 -0.222477 -0.434161 0.872931 0.500000 0.125000
0.018542 -0.829478 1.963648 -0.222477 -0.434161 0.872931 0.765165 0.234835
0.608604 0.161532 2.082232 0.464312 0.149683 0.872931 0.595671 0.730970
0.907424 -0.073833 1.963648 0.464312 0.149683 0.872931 0.765165 0.765165
0.713695 0.527108 1.963648 0.464312 0.149683 0.872931 0.500000 0.875000
0.574613 -0.258024 2.082232 0.434160 -0.222476 0.872931 0.730970 0.595671
0.619482 -0.635749 1.963648 0.434160 -0.222476 0.872931 0.875000 0.500000
0.907424 -0.073833 1.963648 0.434160 -0.222476 0.872931 0.765165 0.765165
-0.083586 0.516231 2.082232 -0.149684 0.464312 0.872931 0.269030 0.595671
0.151779 0.815050 1.963648 -0.149684 0.464312 0.872931 0.234835 0.765165
-0.449162 0.621321 1.963648 -0.149684 0.464312 0.872931 0.125000 0.500000
0.335970 0.482239 2.082232 0.222477 0.434160 0.872931 0.404329 0.730970
0.713695 0.527108 1.963648 0.222477 0.434160 0.872931 0.500000 0.875000
0.151779 0.815050 1.963648 0.222477 0.434160 0.872931 0.234835 0.765165
-0.438284 -0.175960 2.082232 -0.464313 -0.149684 0.872931 0.404329 0.269030
-0.737103 0.059405 1.963648 -0.464313 -0.149684 0.872931 0.234835 0.234835
-0.543375 -0.541536 1.963648 -0.464313 -0.149684 0.872931 0.500000 0.125000
-0.404292 0.243595 2.082232 -0.434161 0.222476 0.872931 0.269030 0.404329
-0.449162 0.621321 1.963648 -0.434161 0.222476 0.872931 0.125000 0.500000
-0.737103 0.059405 1.963648 -0.434161 0.222476 0.872931 0.234835 0.234835
0.253906 -0.530658 2.082232 0.149683 -0.464313 0.872931 0.730970 0.404329
0.018542 -0.829478 1.963648 0.149683 -0.464313 0.872931 0.765165 0.234835
0.619482 -0.635749 1.963648 0.149683 -0.464313 0.872931 0.875000 0.500000
-0.269625 0.412092 1.162600 0.589062 -0.407935 0.697564 0.250323 0.500578
-0.892123 0.496127 1.737415 0.589062 -0.407935 0.697564 0.037941 0.309727
0.085620 -0.007754 0.617086 0.589062 -0.407935 0.697564 0.500322 0.500000
0.131300 0.540318 1.162600 -0.243016 -0.674053 0.697564 0.323955 0.677185
0.085620 -0.007754 0.617086 -0.243016 -0.674053 0.697564 0.500322 0.500000
0.589501 0.969988 1.737415 -0.243016 -0.674053 0.697564 0.310049 0.962381
0.633691 -0.053434 1.162600 -0.704983 -0.128076 0.697564 0.677507 0.676367
1.133286 0.327316 1.737415 -0.704983 -0.128076 0.697564 0.692732 0.961496
0.085620 -0.007754 0.617086 -0.704983 -0.128076 0.697564 0.500322 0.500000
-0.334226 -0.362999 1.162600 0.648466 0.304789 0.697564 0.499744 0.250001
0.085620 -0.007754 0.617086 0.648466 0.304789 0.697564 0.500322 0.500000
-0.962047 -0.342824 1.737415 0.648466 0.304789 0.697564 0.307913 0.038504
0.633691 -0.053434 1.162600 -0.674053 0.243016 0.697564 0.677507 0.676367
0.085620 -0.007754 0.617086 -0.674053 0.243016 0.697564 0.500322 0.500000
1.063362 -0.511636 1.737415 -0.674053 0.243016 0.697564 0.962703 0.690273
0.131300 0.540318 1.162600 0.128077 -0.704983 0.697564 0.323955 0.677185
-0.249451 1.039912 1.737415 0.128077 -0.704983 0.697564 0.038826 0.692410
0.085620 -0.007754 0.617086 0.128077 -0.704983 0.697564 0.500322 0.500000
0.440864 -0.427600 1.162599 -0.304790 0.648465 0.697564 0.750322 0.499422
0.085620 -0.007754 0.617086 -0.304790 0.648465 0.697564 0.500322 0.500000
0.420690 -1.055421 1.737415 -0.304790 0.648465 0.697564 0.961818 0.307590
-0.334226 -0.362999 1.162600 0.406624 0.590246 0.697328 0.499744 0.250001
-0.417770 -0.984542 1.737415 0.406624 0.590246 0.697328 0.690409 0.038070
0.085620 -0.007754 0.617086 0.406624 0.590246 0.697328 0.500322 0.500000
-0.961841 -0.342831 1.737226 0.592487 0.502711 0.629477 0.692024 0.499914
-0.961868 -0.343035 1.737415 0.592487 0.502711 0.629477 0.691962 0.500000
-0.334226 -0.362999 1.162600 0.592487 0.502711 0.629477 0.500256 0.238707
3 0 1 2
3 3 4 5
3 6 7 8
3 9 10 11
3 12 13 14
3 15 16 17
3 18 19 20
3 21 22 23
3 24 25 26
3 27 28 29
3 30 31 32
3 33 34 35
3 36 37 38
3 39 40 41
3 42 43 44
3 45 46 47
3 48 49 50
3 51 52 53
3 54 55 56
3 57 58 59
3 60 61 62
3 63 64 65
3 66 67 68
3 69 70 71
3 72 73 74
3 75 76 77
3 78 79 80
3 81 82 83
3 84 85 86
3 87 88 89
3 90 91 92
3 93 94 95
3 96 97 98
3 99 100 101
3 102 103 104
3 105 106 107
3 108 109 110
3 111 112 113
3 114 115 116
3 117 118 119
3 120 121 122
3 123 124 125
3 126 127 128
3 129 130 131
3 132 133 134
3 135 136 137
3 138 139 140
3 141 142 143
3 144 145 146
3 147 148 149
3 150 151 152
3 153 154 155
3 156 157 158
3 159 160 161
3 162 163 164
3 165 166 167
3 168 169 170
3 171 172 173
3 174 175 176
3 177 178 179
3 180 181 182
3 183 184 185
3 186 187 188
3 189 190 191
3 192 193 194
3 195 196 197
3 198 199 200
