ply
format ascii 1.0
element vertex 65
property float x
property float y
property float z
element face 126
property list uchar int vertex_indices
end_header
-0.647859 -1.1775 -0.720303 
0.69069 -0.464708 -0.471021 
0.833858 -0.563996 -0.720508 
0.833858 -0.563996 -0.769615 
0.642177 -1.17747 -0.720507 
0.833859 0.336442 -0.77098 
0.908172 -0.007199 -0.768894 
0.412657 -0.290913 -0.33555 
0.169974 0.386454 -0.335733 
-0.329794 0.318036 -0.335544 
0.329793 0.318034 -0.335543 
0.466397 -0.007199 -0.335541 
0.398093 0.157155 -0.335544 
-0.420814 -0.29002 -0.335545 
-1e-006 -1.11124 -0.335541 
0.190132 -0.929901 -0.335546 
-0.908172 -0.007199 -0.719787 
-0.647983 0.616099 -0.722092 
-0.270414 0.603949 -0.473338 
0.30275 -1.42905 -0.472367 
-0.838774 -0.563811 -0.769617 
-1e-006 -2.11687 -0.719787 
-0.367782 -1.66653 -0.769582 
0.629007 0.249336 -0.470109 
0.355446 -1.66664 -0.72051 
0.264674 0.603846 -0.473754 
0.833858 0.336442 -0.721872 
0.355598 0.807861 -0.721184 
-0.167963 0.386092 -0.335545 
-1e-006 0.45158 -0.335543 
-0 0.866889 -0.721177 
-0.431013 0.170782 -1.1956 
-0.838753 0.335698 -0.770983 
-0.838753 0.335698 -0.721876 
-0.398096 0.157048 -0.336213 
-0.466398 -0.007199 -0.335541 
-0.319693 -0.7735 -0.335544 
-0.307141 -1.4296 -0.472376 
-0.190325 -0.929732 -0.335981 
0.349994 -0.772723 -0.335542 
-0.368038 0.807684 -0.720971 
-0.368038 0.807684 -0.770078 
-0 0.866886 -0.770285 
0.642177 0.617205 -0.721876 
0.908171 -0.007199 -0.719787 
-0.367783 -1.66653 -0.720474 
-0.685122 -0.464803 -0.471383 
-0.838775 -0.563811 -0.72051 
-0.629807 0.249296 -0.469918 
0.355598 0.807861 -0.770292 
0.642177 0.617205 -0.770984 
3e-006 -0.010141 -1.54358 
0.428527 0.170859 -1.19601 
0.462084 -0.324982 -1.19952 
0.642177 -1.17747 -0.769615 
-0.647859 -1.1775 -0.76941 
-0.908171 -0.007199 -0.768894 
-0.463535 -0.325105 -1.19973 
-0.206369 -1.03047 -1.19896 
0.210687 -1.03089 -1.19945 
-1e-006 -2.11687 -0.768894 
0.355446 -1.66665 -0.769618 
0.180009 0.410245 -1.20269 
-0.178616 0.408978 -1.20416 
-0.647983 0.616099 -0.771199 
3 0 55 20 
3 0 20 47 
3 19 39 1 
3 19 1 4 
3 2 3 54 
3 2 54 4 
3 26 5 6 
3 26 6 44 
3 1 7 11 
3 23 12 10 
3 25 8 29 
3 18 28 9 
3 51 31 56 
3 51 56 57 
3 28 29 8 
3 9 28 8 
3 10 9 8 
3 12 9 10 
3 34 9 12 
3 35 34 12 
3 11 35 12 
3 13 35 11 
3 7 13 11 
3 39 13 7 
3 36 13 39 
3 38 36 39 
3 15 38 39 
3 14 38 15 
3 35 13 46 
3 46 16 48 
3 46 48 35 
3 33 32 64 
3 33 64 17 
3 17 18 9 
3 17 9 48 
3 9 34 48 
3 14 15 19 
3 46 36 37 
3 46 37 0 
3 47 20 56 
3 47 56 16 
3 39 7 1 
3 21 60 22 
3 21 22 45 
3 45 22 55 
3 45 55 0 
3 11 12 23 
3 4 54 61 
3 4 61 24 
3 24 61 60 
3 24 60 21 
3 23 10 25 
3 23 25 43 
3 44 6 3 
3 44 3 2 
3 1 11 23 
3 1 23 44 
3 10 8 25 
3 5 26 43 
3 5 43 50 
3 30 42 49 
3 30 49 27 
3 29 28 18 
3 25 29 18 
3 25 18 30 
3 51 63 64 
3 51 64 31 
3 16 56 32 
3 16 32 33 
3 48 34 35 
3 37 14 19 
3 37 19 21 
3 36 38 37 
3 46 13 36 
3 14 37 38 
3 19 15 39 
3 27 49 50 
3 27 50 43 
3 40 41 42 
3 40 42 30 
3 17 64 41 
3 17 41 40 
3 18 17 40 
3 18 40 30 
3 25 30 27 
3 25 27 43 
3 23 43 26 
3 23 26 44 
3 1 44 2 
3 1 2 4 
3 19 4 24 
3 19 24 21 
3 37 21 45 
3 37 45 0 
3 46 0 47 
3 46 47 16 
3 48 16 33 
3 48 33 17 
3 49 42 62 
3 50 62 51 
3 50 51 52 
3 6 52 51 
3 6 51 53 
3 59 54 53 
3 59 53 51 
3 60 61 59 
3 57 55 58 
3 57 58 51 
3 32 56 31 
3 41 64 63 
3 20 55 57 
3 56 20 57 
3 58 60 59 
3 58 59 51 
3 55 22 58 
3 54 3 53 
3 22 60 58 
3 6 5 52 
3 61 54 59 
3 50 49 62 
3 3 6 53 
3 42 41 63 
3 5 50 52 
3 64 32 31 
3 42 63 51 
3 42 51 62 
