ply
format ascii 1.0
comment Created by Blender 2.70 (sub 0) - www.blender.org, source file: 'noobfenixcombod.blend'
element vertex 164
property float x
property float y
property float z
property float nx
property float ny
property float nz
property float s
property float t
element face 320
property list uchar uint vertex_indices
end_header
15.448500 -52.300293 394.673645 1.000000 0.000000 0.000000 -46.907600 -45.591202
15.201401 -51.192871 394.110321 0.915128 0.359233 -0.182806 -46.907600 -45.591202
15.201401 -51.061584 394.576904 0.915159 0.401837 -0.031373 -46.907600 -45.591202
15.201401 -51.492859 393.729431 0.915159 0.261971 -0.306314 -46.907600 -45.591202
15.201401 -51.915619 393.492218 0.915128 0.124821 -0.383251 -46.907600 -45.591202
15.201401 -52.397064 393.434937 0.915159 -0.031373 -0.401837 -46.907600 -45.591202
15.201401 -52.863739 393.566284 0.915159 -0.182806 -0.359233 -46.907600 -45.591202
15.201401 -53.244659 393.866241 0.915128 -0.306375 -0.261940 -46.907600 -45.591202
15.201401 -53.481720 394.289124 0.915159 -0.383282 -0.124760 -46.907600 -45.591202
15.201401 -53.539001 394.770416 0.915159 -0.401837 0.031343 -46.907600 -45.591202
15.201401 -53.407684 395.237122 0.915159 -0.359233 0.182745 -46.907600 -45.591202
15.201401 -53.107819 395.617981 0.915159 -0.261940 0.306314 -46.907600 -45.591202
15.201401 -52.684967 395.855103 0.915159 -0.124760 0.383251 -46.907600 -45.591202
15.201401 -52.203552 395.912384 0.915159 0.031373 0.401837 -46.907600 -45.591202
15.201401 -51.736847 395.781036 0.915159 0.182775 0.359233 -46.907600 -45.591202
15.201401 -51.356018 395.481171 0.915159 0.306345 0.261971 -46.907600 -45.591202
15.201401 -51.118835 395.058319 0.915159 0.383282 0.124790 -46.907600 -45.591202
14.497601 -50.254150 393.632660 0.695151 0.640675 -0.325999 -46.907600 -45.591202
14.497601 -50.011444 394.494873 0.695120 0.716666 -0.055971 -46.907600 -45.591202
14.497601 -50.808350 392.928864 0.695151 0.467177 -0.546342 -46.907600 -45.591202
14.497601 -51.589600 392.490723 0.695151 0.222571 -0.683493 -46.907600 -45.591202
14.497601 -52.479065 392.384827 0.695120 -0.055971 -0.716666 -46.907600 -45.591202
14.497601 -53.341400 392.627563 0.695151 -0.325968 -0.640675 -46.907600 -45.591202
14.497601 -54.045166 393.181702 0.695151 -0.546342 -0.467177 -46.907600 -45.591202
14.497601 -54.483368 393.963013 0.695151 -0.683523 -0.222510 -46.907600 -45.591202
14.497601 -54.589142 394.852448 0.695120 -0.716666 0.055971 -46.907600 -45.591202
14.497601 -54.346527 395.714752 0.695120 -0.640706 0.325968 -46.907600 -45.591202
14.497601 -53.792328 396.418549 0.695120 -0.467147 0.546373 -46.907600 -45.591202
14.497601 -53.011078 396.856628 0.695120 -0.222541 0.683523 -46.907600 -45.591202
14.497601 -52.121521 396.962463 0.695151 0.055971 0.716666 -46.907600 -45.591202
14.497601 -51.259277 396.719818 0.695151 0.325968 0.640675 -46.907600 -45.591202
14.497601 -50.555511 396.165710 0.695120 0.546342 0.467208 -46.907600 -45.591202
14.497601 -50.117310 395.384399 0.695120 0.683554 0.222571 -46.907600 -45.591202
13.444201 -49.626801 393.313446 0.374371 0.826441 -0.420484 -46.907600 -45.591202
13.444201 -50.350891 392.393951 0.374371 0.602619 -0.704733 -46.907600 -45.591202
13.444201 -51.371674 391.821350 0.374340 0.287088 -0.881710 -46.907600 -45.591202
13.444201 -52.533875 391.683167 0.374340 -0.072207 -0.924467 -46.907600 -45.591202
13.444201 -53.660522 392.000122 0.374340 -0.420454 -0.826441 -46.907600 -45.591202
13.444201 -54.580109 392.724304 0.374371 -0.704764 -0.602588 -46.907600 -45.591202
13.444201 -55.152557 393.745056 0.374340 -0.881710 -0.287057 -46.907600 -45.591202
13.444201 -55.290802 394.907257 0.374340 -0.924436 0.072207 -46.907600 -45.591202
13.444201 -54.973785 396.033875 0.374340 -0.826441 0.420484 -46.907600 -45.591202
13.444201 -54.249786 396.953400 0.374371 -0.602649 0.704733 -46.907600 -45.591202
13.444201 -53.228912 397.525940 0.374371 -0.287088 0.881680 -46.907600 -45.591202
13.444201 -52.066711 397.664246 0.374371 0.072207 0.924436 -46.907600 -45.591202
13.444201 -50.940063 397.347137 0.374371 0.420515 0.826411 -46.907600 -45.591202
13.444201 -50.020569 396.623047 0.374371 0.704733 0.602619 -46.907600 -45.591202
13.444201 -49.448029 395.602264 0.374371 0.881710 0.287057 -46.907600 -45.591202
13.444201 -49.309784 394.440063 0.374340 0.924467 -0.072176 -46.907600 -45.591202
12.201801 -49.406555 393.201324 0.088931 0.887722 -0.451643 -46.907600 -45.591202
12.201801 -50.190247 392.206055 0.088992 0.647298 -0.756981 -46.907600 -45.591202
12.201801 -51.295166 391.586426 0.088839 0.308390 -0.947081 -46.907600 -45.591202
12.201801 -52.553131 391.436829 0.089541 -0.077548 -0.992950 -46.907600 -45.591202
12.201801 -53.772583 391.779938 0.089053 -0.451613 -0.887722 -46.907600 -45.591202
12.201801 -54.767944 392.563599 0.089053 -0.756981 -0.647298 -46.907600 -45.591202
12.201801 -55.387573 393.668518 0.088931 -0.947081 -0.308329 -46.907600 -45.591202
12.201801 -55.537231 394.926483 0.088900 -0.993011 0.077548 -46.907600 -45.591202
12.201801 -55.194061 396.145996 0.088961 -0.887722 0.451643 -46.907600 -45.591202
12.201801 -54.410370 397.141266 0.089450 -0.647298 0.756951 -46.907600 -45.591202
12.201801 -53.305420 397.761017 0.088260 -0.308298 0.947172 -46.907600 -45.591202
12.201801 -52.047455 397.910614 0.088931 0.077548 0.993011 -46.907600 -45.591202
12.201801 -50.828003 397.567505 0.088412 0.451674 0.887753 -46.907600 -45.591202
12.201801 -49.832672 396.783691 0.088931 0.757042 0.647267 -46.907600 -45.591202
12.201801 -49.213043 395.678802 0.089022 0.947081 0.308329 -46.907600 -45.591202
12.201801 -49.063446 394.420837 0.089053 0.992981 -0.077548 -46.907600 -45.591202
12.099800 -49.407990 393.202057 -0.671560 0.660360 -0.335978 -46.907600 -45.591202
12.099800 -49.065033 394.420959 -0.671468 0.738762 -0.057680 -46.907600 -45.591202
12.099800 -50.191345 392.207245 -0.671529 0.481491 -0.563189 -46.907600 -45.591202
12.099800 -51.295746 391.587952 -0.671651 0.229286 -0.704459 -46.907600 -45.591202
12.099800 -52.553009 391.438354 -0.671102 -0.057711 -0.739097 -46.907600 -45.591202
12.099800 -53.771881 391.781372 -0.671468 -0.336009 -0.660421 -46.907600 -45.591202
12.099800 -54.766754 392.564636 -0.671468 -0.563189 -0.481582 -46.907600 -45.591202
12.099800 -55.386017 393.669006 -0.671590 -0.704489 -0.229347 -46.907600 -45.591202
12.099800 -55.535614 394.926361 -0.671621 -0.738639 0.057680 -46.907600 -45.591202
12.099800 -55.192596 396.145264 -0.671560 -0.660360 0.335978 -46.907600 -45.591202
12.099800 -54.409363 397.140076 -0.671163 -0.481765 0.563372 -46.907600 -45.591202
12.099800 -53.304932 397.759338 -0.672109 -0.229225 0.704062 -46.907600 -45.591202
12.099800 -52.047577 397.908997 -0.671560 0.057649 0.738670 -46.907600 -45.591202
12.099800 -50.828796 397.565948 -0.672018 0.335795 0.659993 -46.907600 -45.591202
12.099800 -49.833954 396.782684 -0.671590 0.563066 0.481552 -46.907600 -45.591202
12.099800 -49.214569 395.678314 -0.671468 0.704581 0.229408 -46.907600 -45.591202
12.099800 -52.300293 394.673645 -1.000000 0.000000 0.000000 -46.907600 -45.591202
-15.777399 -52.300293 394.673645 -1.000000 0.000000 0.000000 -46.907600 -45.591202
-15.530199 -51.061584 394.576904 -0.915128 0.401868 -0.031373 -46.907600 -45.591202
-15.530199 -51.192871 394.110321 -0.915128 0.359264 -0.182806 -46.907600 -45.591202
-15.530199 -51.492859 393.729431 -0.915128 0.261971 -0.306345 -46.907600 -45.591202
-15.530199 -51.915619 393.492218 -0.915128 0.124851 -0.383282 -46.907600 -45.591202
-15.530199 -52.397064 393.434937 -0.915128 -0.031373 -0.401868 -46.907600 -45.591202
-15.530199 -52.863739 393.566284 -0.915128 -0.182806 -0.359264 -46.907600 -45.591202
-15.530199 -53.244659 393.866241 -0.915128 -0.306406 -0.261940 -46.907600 -45.591202
-15.530199 -53.481720 394.289124 -0.915128 -0.383282 -0.124760 -46.907600 -45.591202
-15.530199 -53.539001 394.770416 -0.915128 -0.401868 0.031343 -46.907600 -45.591202
-15.530199 -53.407684 395.237122 -0.915128 -0.359264 0.182775 -46.907600 -45.591202
-15.530199 -53.107819 395.617981 -0.915159 -0.261940 0.306345 -46.907600 -45.591202
-15.530199 -52.684967 395.855103 -0.915128 -0.124760 0.383282 -46.907600 -45.591202
-15.530199 -52.203552 395.912384 -0.915128 0.031373 0.401868 -46.907600 -45.591202
-15.530199 -51.736847 395.781036 -0.915128 0.182806 0.359264 -46.907600 -45.591202
-15.530199 -51.356018 395.481171 -0.915128 0.306345 0.261971 -46.907600 -45.591202
-15.530199 -51.118835 395.058319 -0.915128 0.383282 0.124790 -46.907600 -45.591202
-14.826399 -50.011444 394.494873 -0.695151 0.716666 -0.055971 -46.907600 -45.591202
-14.826399 -50.254150 393.632660 -0.695151 0.640645 -0.325999 -46.907600 -45.591202
-14.826399 -50.808350 392.928864 -0.695151 0.467147 -0.546312 -46.907600 -45.591202
-14.826399 -51.589600 392.490723 -0.695181 0.222571 -0.683493 -46.907600 -45.591202
-14.826399 -52.479065 392.384827 -0.695151 -0.055971 -0.716666 -46.907600 -45.591202
-14.826399 -53.341400 392.627563 -0.695151 -0.325968 -0.640645 -46.907600 -45.591202
-14.826399 -54.045166 393.181702 -0.695151 -0.546342 -0.467147 -46.907600 -45.591202
-14.826399 -54.483368 393.963013 -0.695151 -0.683523 -0.222541 -46.907600 -45.591202
-14.826399 -54.589142 394.852448 -0.695151 -0.716666 0.055971 -46.907600 -45.591202
-14.826399 -54.346527 395.714752 -0.695120 -0.640706 0.325968 -46.907600 -45.591202
-14.826399 -53.792328 396.418549 -0.695151 -0.467147 0.546342 -46.907600 -45.591202
-14.826399 -53.011078 396.856628 -0.695151 -0.222510 0.683523 -46.907600 -45.591202
-14.826399 -52.121521 396.962463 -0.695151 0.055971 0.716636 -46.907600 -45.591202
-14.826399 -51.259277 396.719818 -0.695151 0.325968 0.640675 -46.907600 -45.591202
-14.826399 -50.555511 396.165710 -0.695151 0.546312 0.467177 -46.907600 -45.591202
-14.826399 -50.117310 395.384399 -0.695120 0.683523 0.222571 -46.907600 -45.591202
-13.773100 -49.309784 394.440063 -0.374340 0.924467 -0.072176 -46.907600 -45.591202
-13.773100 -49.626801 393.313446 -0.374371 0.826411 -0.420484 -46.907600 -45.591202
-13.773100 -50.350891 392.393951 -0.374401 0.602619 -0.704703 -46.907600 -45.591202
-13.773100 -51.371674 391.821350 -0.374371 0.287057 -0.881710 -46.907600 -45.591202
-13.773100 -52.533875 391.683167 -0.374340 -0.072207 -0.924467 -46.907600 -45.591202
-13.773100 -53.660522 392.000122 -0.374340 -0.420484 -0.826441 -46.907600 -45.591202
-13.773100 -54.580109 392.724304 -0.374371 -0.704733 -0.602588 -46.907600 -45.591202
-13.773100 -55.152557 393.745056 -0.374371 -0.881710 -0.287057 -46.907600 -45.591202
-13.773100 -55.290802 394.907257 -0.374371 -0.924436 0.072207 -46.907600 -45.591202
-13.773100 -54.973785 396.033875 -0.374340 -0.826441 0.420484 -46.907600 -45.591202
-13.773100 -54.249786 396.953400 -0.374371 -0.602649 0.704703 -46.907600 -45.591202
-13.773100 -53.228912 397.525940 -0.374401 -0.287057 0.881680 -46.907600 -45.591202
-13.773100 -52.066711 397.664246 -0.374371 0.072207 0.924436 -46.907600 -45.591202
-13.773100 -50.940063 397.347137 -0.374401 0.420515 0.826411 -46.907600 -45.591202
-13.773100 -50.020569 396.623047 -0.374401 0.704733 0.602619 -46.907600 -45.591202
-13.773100 -49.448029 395.602264 -0.374371 0.881710 0.287057 -46.907600 -45.591202
-12.530600 -49.063446 394.420837 -0.089053 0.992981 -0.077548 -46.907600 -45.591202
-12.530600 -49.406555 393.201324 -0.088931 0.887722 -0.451643 -46.907600 -45.591202
-12.530600 -50.190247 392.206055 -0.088931 0.647328 -0.756981 -46.907600 -45.591202
-12.530600 -51.295166 391.586426 -0.088778 0.308390 -0.947081 -46.907600 -45.591202
-12.530600 -52.553131 391.436829 -0.089511 -0.077548 -0.992950 -46.907600 -45.591202
-12.530600 -53.772583 391.779938 -0.088931 -0.451643 -0.887722 -46.907600 -45.591202
-12.530600 -54.767944 392.563599 -0.089206 -0.756951 -0.647328 -46.907600 -45.591202
-12.530600 -55.387573 393.668518 -0.088900 -0.947111 -0.308329 -46.907600 -45.591202
-12.530600 -55.537231 394.926483 -0.088870 -0.993011 0.077548 -46.907600 -45.591202
-12.530600 -55.194061 396.145996 -0.088931 -0.887722 0.451643 -46.907600 -45.591202
-12.530600 -54.410370 397.141266 -0.089419 -0.647298 0.756951 -46.907600 -45.591202
-12.530600 -53.305420 397.761017 -0.088229 -0.308298 0.947172 -46.907600 -45.591202
-12.530600 -52.047455 397.910614 -0.088870 0.077548 0.993011 -46.907600 -45.591202
-12.530600 -50.828003 397.567505 -0.088351 0.451704 0.887753 -46.907600 -45.591202
-12.530600 -49.832672 396.783691 -0.088961 0.757042 0.647267 -46.907600 -45.591202
-12.530600 -49.213043 395.678802 -0.089022 0.947081 0.308329 -46.907600 -45.591202
-12.428600 -49.065033 394.420959 0.671468 0.738762 -0.057680 -46.907600 -45.591202
-12.428600 -49.407990 393.202057 0.671560 0.660360 -0.335978 -46.907600 -45.591202
-12.428600 -50.191345 392.207245 0.671560 0.481460 -0.563158 -46.907600 -45.591202
-12.428600 -51.295746 391.587952 0.671651 0.229286 -0.704459 -46.907600 -45.591202
-12.428600 -52.553009 391.438354 0.671133 -0.057711 -0.739067 -46.907600 -45.591202
-12.428600 -53.771881 391.781372 0.671560 -0.335978 -0.660329 -46.907600 -45.591202
-12.428600 -54.766754 392.564636 0.671377 -0.563250 -0.481643 -46.907600 -45.591202
-12.428600 -55.386017 393.669006 0.671590 -0.704489 -0.229347 -46.907600 -45.591202
-12.428600 -55.535614 394.926361 0.671590 -0.738639 0.057680 -46.907600 -45.591202
-12.428600 -55.192596 396.145264 0.671560 -0.660360 0.335978 -46.907600 -45.591202
-12.428600 -54.409363 397.140076 0.671194 -0.481735 0.563341 -46.907600 -45.591202
-12.428600 -53.304932 397.759338 0.672109 -0.229225 0.704031 -46.907600 -45.591202
-12.428600 -52.047577 397.908997 0.671590 0.057649 0.738639 -46.907600 -45.591202
-12.428600 -50.828796 397.565948 0.672048 0.335795 0.659963 -46.907600 -45.591202
-12.428600 -49.833954 396.782684 0.671560 0.563066 0.481552 -46.907600 -45.591202
-12.428600 -49.214569 395.678314 0.671499 0.704581 0.229408 -46.907600 -45.591202
-12.428600 -52.300293 394.673645 1.000000 0.000000 0.000000 -46.907600 -45.591202
3 0 1 2
3 0 3 1
3 0 4 3
3 0 5 4
3 0 6 5
3 0 7 6
3 0 8 7
3 0 9 8
3 0 10 9
3 0 11 10
3 0 12 11
3 0 13 12
3 0 14 13
3 0 15 14
3 0 16 15
3 0 2 16
3 1 17 18
3 3 19 17
3 3 4 20
3 4 5 21
3 6 22 21
3 7 23 22
3 8 24 23
3 8 9 25
3 9 10 26
3 11 27 26
3 12 28 27
3 12 13 29
3 14 30 29
3 15 31 30
3 15 16 32
3 2 18 32
3 18 17 33
3 19 34 33
3 19 20 35
3 21 36 35
3 22 37 36
3 23 38 37
3 24 39 38
3 25 40 39
3 25 26 41
3 27 42 41
3 28 43 42
3 28 29 44
3 30 45 44
3 30 31 46
3 31 32 47
3 32 18 48
3 48 33 49
3 33 34 50
3 34 35 51
3 36 52 51
3 36 37 53
3 37 38 54
3 39 55 54
3 40 56 55
3 40 41 57
3 41 42 58
3 42 43 59
3 44 60 59
3 45 61 60
3 46 62 61
3 47 63 62
3 48 64 63
3 49 65 66
3 49 50 67
3 50 51 68
3 51 52 69
3 53 70 69
3 53 54 71
3 55 72 71
3 56 73 72
3 56 57 74
3 57 58 75
3 59 76 75
3 60 77 76
3 61 78 77
3 61 62 79
3 63 80 79
3 64 66 80
3 81 66 65
3 81 65 67
3 81 67 68
3 81 68 69
3 81 69 70
3 81 70 71
3 81 71 72
3 81 72 73
3 81 73 74
3 81 74 75
3 81 75 76
3 81 76 77
3 81 77 78
3 81 78 79
3 81 79 80
3 81 80 66
3 82 83 84
3 82 84 85
3 82 85 86
3 82 86 87
3 82 87 88
3 82 88 89
3 82 89 90
3 82 90 91
3 82 91 92
3 82 92 93
3 82 93 94
3 82 94 95
3 82 95 96
3 82 96 97
3 82 97 98
3 82 98 83
3 99 100 84
3 100 101 85
3 85 101 102
3 86 102 103
3 103 104 88
3 104 105 89
3 105 106 90
3 90 106 107
3 91 107 108
3 108 109 93
3 109 110 94
3 94 110 111
3 111 112 96
3 112 113 97
3 97 113 114
3 98 114 99
3 99 115 116
3 116 117 101
3 101 117 118
3 118 119 103
3 119 120 104
3 120 121 105
3 105 121 122
3 122 123 107
3 107 123 124
3 124 125 109
3 109 125 126
3 110 126 127
3 127 128 112
3 112 128 129
3 113 129 130
3 114 130 115
3 115 131 132
3 116 132 133
3 133 134 118
3 134 135 119
3 119 135 136
3 136 137 121
3 137 138 122
3 138 139 123
3 123 139 140
3 124 140 141
3 125 141 142
3 142 143 127
3 143 144 128
3 144 145 129
3 145 146 130
3 146 131 115
3 147 148 132
3 132 148 149
3 133 149 150
3 134 150 151
3 151 152 136
3 152 153 137
3 153 154 138
3 154 155 139
3 139 155 156
3 140 156 157
3 157 158 142
3 158 159 143
3 159 160 144
3 144 160 161
3 161 162 146
3 146 162 147
3 163 148 147
3 163 149 148
3 163 150 149
3 163 151 150
3 163 152 151
3 163 153 152
3 163 154 153
3 163 155 154
3 163 156 155
3 163 157 156
3 163 158 157
3 163 159 158
3 163 160 159
3 163 161 160
3 163 162 161
3 163 147 162
3 2 1 18
3 1 3 17
3 19 3 20
3 20 4 21
3 5 6 21
3 6 7 22
3 7 8 23
3 24 8 25
3 25 9 26
3 10 11 26
3 11 12 27
3 28 12 29
3 13 14 29
3 14 15 30
3 31 15 32
3 16 2 32
3 48 18 33
3 17 19 33
3 34 19 35
3 20 21 35
3 21 22 36
3 22 23 37
3 23 24 38
3 24 25 39
3 40 25 41
3 26 27 41
3 27 28 42
3 43 28 44
3 29 30 44
3 45 30 46
3 46 31 47
3 47 32 48
3 64 48 49
3 49 33 50
3 50 34 51
3 35 36 51
3 52 36 53
3 53 37 54
3 38 39 54
3 39 40 55
3 56 40 57
3 57 41 58
3 58 42 59
3 43 44 59
3 44 45 60
3 45 46 61
3 46 47 62
3 47 48 63
3 64 49 66
3 65 49 67
3 67 50 68
3 68 51 69
3 52 53 69
3 70 53 71
3 54 55 71
3 55 56 72
3 73 56 74
3 74 57 75
3 58 59 75
3 59 60 76
3 60 61 77
3 78 61 79
3 62 63 79
3 63 64 80
3 83 99 84
3 84 100 85
3 86 85 102
3 87 86 103
3 87 103 88
3 88 104 89
3 89 105 90
3 91 90 107
3 92 91 108
3 92 108 93
3 93 109 94
3 95 94 111
3 95 111 96
3 96 112 97
3 98 97 114
3 83 98 99
3 100 99 116
3 100 116 101
3 102 101 118
3 102 118 103
3 103 119 104
3 104 120 105
3 106 105 122
3 106 122 107
3 108 107 124
3 108 124 109
3 110 109 126
3 111 110 127
3 111 127 112
3 113 112 129
3 114 113 130
3 99 114 115
3 116 115 132
3 117 116 133
3 117 133 118
3 118 134 119
3 120 119 136
3 120 136 121
3 121 137 122
3 122 138 123
3 124 123 140
3 125 124 141
3 126 125 142
3 126 142 127
3 127 143 128
3 128 144 129
3 129 145 130
3 130 146 115
3 131 147 132
3 133 132 149
3 134 133 150
3 135 134 151
3 135 151 136
3 136 152 137
3 137 153 138
3 138 154 139
3 140 139 156
3 141 140 157
3 141 157 142
3 142 158 143
3 143 159 144
3 145 144 161
3 145 161 146
3 131 146 147
